<?xml version="1.0" encoding="utf-8"?>
<!-- Generator: Adobe Illustrator 18.1.1, SVG Export Plug-In . SVG Version: 6.00 Build 0)  -->
<svg version="1.1" id="Layer_1" xmlns="http://www.w3.org/2000/svg" xmlns:xlink="http://www.w3.org/1999/xlink" x="0px" y="0px"
	 viewBox="0 0 792 612" enable-background="new 0 0 792 612" xml:space="preserve">
<g>
	<path fill="#FFF0BB" d="M288.8,388.9c-45.7,48.6-91.5,51.5-94.4,51.5H0v65.8h191.6l0,0c5.7,0,68.6,0,128.7-57.2
		C311.7,431.8,300.2,411.8,288.8,388.9z"/>
	<path fill="#FFF0BB" d="M583.3,111.6c-37.2,0-97.2,8.6-151.5,54.3c11.4,17.2,25.7,37.2,34.3,57.2c48.6-48.6,108.6-45.7,111.5-45.7
		h111.5v-65.8H583.3z"/>
</g>
<polygon fill="#FFF0BB" points="689.1,46.2 689.1,242.1 792,149.2 "/>
<path fill="#FFF0BB" d="M792,471.8L689.1,368.9v68.6H560.4c-2.9,0-97.2,0-148.7-140.1c-60-160.1-183-185.8-243-185.8H0v65.8h171.6
	c11.4,0,125.8-2.9,174.4,143c62.9,185.8,205.9,185.8,211.6,185.8h131.5v68.6L792,471.8z"/>
</svg>
