<?xml version="1.0" encoding="utf-8"?>
<!-- Generator: Adobe Illustrator 18.1.1, SVG Export Plug-In . SVG Version: 6.00 Build 0)  -->
<svg version="1.1" id="Layer_1" xmlns="http://www.w3.org/2000/svg" xmlns:xlink="http://www.w3.org/1999/xlink" x="0px" y="0px"
	 viewBox="0 0 792 612" enable-background="new 0 0 792 612" xml:space="preserve">
<g>
	<path fill="#FFFFFF" d="M293.5,452.5c-57.4-37.2-143.6-122.5-143-215.6C151.7,67.4,317,51.1,394.6,145.7
		C457.8,46.6,637.8,66,639,235.9c0.7,93.1-86.6,176.1-143,215.6c-51.5,36.1-92.8,73.8-92.8,73.8S349.2,488.5,293.5,452.5z"/>
	<path d="M404.1,538l-6.5-4.4c-0.5-0.4-54.5-37.1-109.5-72.7c-16.5-10.7-59-40.9-95.8-89.2c-34.2-44.9-52.1-91.5-51.8-134.9
		c0.3-50,14.8-91.4,41.8-119.6c24.1-25.2,57.6-39.1,94.4-39.1c43.1,0,86,19.1,117.1,51.5c12.1-15.5,27.6-28.4,45.4-37.6
		c20.6-10.7,44-16.4,67.4-16.4c37.5,0,72.2,14.1,97.7,39.6c28.9,28.8,44.3,70.5,44.7,120.5c0.3,43.6-17.3,88.7-52.2,134.1
		c-33.8,43.9-74.1,75.1-95.1,89.8c-50.4,35.3-91.4,72.6-91.8,73L404.1,538z M276.6,98.1c-31.2,0-59.6,11.7-79.9,32.9
		c-23.4,24.5-35.9,61.1-36.2,105.9c-0.3,38.9,16.2,81.3,47.7,122.6c34.9,45.8,75.1,74.4,90.8,84.5c44,28.5,87.4,57.7,103.4,68.6
		c13.3-11.7,47.7-41.2,87.9-69.4C557.7,396,629.6,316.7,629,235.9C628.3,139,567,95.7,506.6,95.7c-42.7,0-81.4,20.7-103.5,55.4
		l-7.4,11.6l-8.7-10.6C359.2,118.3,318,98.1,276.6,98.1z"/>
</g>
</svg>
