{"asset":{"version":"2.0","generator":"VECTARY"},"nodes":[{"translation":[-5.6505203237300354e-8,0.0000035787659436579135,1.776790520269245e-18],"scale":[0.001,0.001,0.001],"rotation":[0,-0.7071067811865475,0,0.7071067811865476],"name":"Group","children":[1,2,3,4,5,6,7,8,9,10,11]},{"translation":[14.84,0,86.30110574835706],"scale":[1.8542000000000003,1.4999976335173302,1.85416842046188],"rotation":[0,0,0,1],"name":"dent_front","mesh":0},{"translation":[-14.84,0,86.30110574835706],"scale":[1.8542000000000003,1.4999976335173302,1.85416842046188],"rotation":[-1.2274173396278401e-48,-9.869188120389905e-65,1,6.123233998860309e-17],"name":"dent_back","mesh":1},{"translation":[15.999999999999998,-150,-5.5],"scale":[0.018500000000000003,0.010514583727630223,0.018500000000000003],"rotation":[3.0385816786431356e-64,-2.7369110631344083e-48,0,1],"name":"Capsule - baked 2","mesh":2},{"translation":[15.999999999999988,149.99999999999994,86.92374169921877],"scale":[0.018500000000000003,0.010514583727630223,0.01845038302792812],"rotation":[1.8605946633490537e-80,1,3.0385816786431356e-64,6.123233995736766e-17],"name":"Capsule - baked 3","mesh":3},{"translation":[16,-149.99999999999997,86.92374169921875],"scale":[0.018500000000000003,0.010514583727630223,0.018500000000000003],"rotation":[3.0385816786431356e-64,-2.7369110631344083e-48,0,1],"name":"Capsule - baked 1","mesh":4},{"translation":[16.05,150.42374169921874,-99.1],"scale":[0.01854,0.010514583727630223,0.02971066268381862],"rotation":[-0.7071067811865475,-1.935288372246823e-48,-4.357881996052624e-33,0.7071067811865476],"name":"Capsule - baked","mesh":5},{"translation":[15.999999999999998,1.0658141036401503e-14,-6.4073152747369315],"scale":[0.018542,2.9999952670346604,1.85416842046188],"rotation":[3.0385816786431356e-64,-2.7369110631344083e-48,0,1],"name":"front","mesh":6},{"translation":[-16,0,-99.11573629783095],"scale":[0.018542,2.9999952670346604,1.85416842046188],"rotation":[0,0,0,1],"name":"back","mesh":7},{"translation":[0.00010477194785805325,0,-95.30739945690716],"scale":[0.2899999999999999,2.9666174053328747,1.9097934730757364],"rotation":[0,0,0,1],"name":"pages","mesh":8},{"translation":[0.00010477194785796229,0,95.57194785066645],"scale":[1.2944237627656645,1.0033603279680097,1],"rotation":[0,0,0,1],"name":"highlight","mesh":9},{"translation":[0.00010477194785807331,0,97.24069942908216],"scale":[0.25999588828627923,2.999999999999999,0.018708559362460374],"rotation":[0,0,0,1],"name":"spine","mesh":10},{"translation":[-0.15389220031799758,0.06886052419363642,0.5049329723082551],"scale":[1,1,1],"rotation":[-0.0638635074468489,-0.062080576447212044,-0.003980534336597674,0.9960178762406643],"name":"Camera","camera":0}],"materials":[{"pbrMetallicRoughness":{"baseColorFactor":[1,1,1,1],"baseColorTexture":{"index":0,"extensions":{"KHR_texture_transform":{"offset":[0,0],"scale":[0.1,0.1],"rotation":0}},"texCoord":0},"metallicFactor":0,"roughnessFactor":0.9},"name":"Fabric Editable 1","emissiveFactor":[0,0,0],"alphaMode":"OPAQUE","doubleSided":false},{"pbrMetallicRoughness":{"baseColorFactor":[1,1,1,1],"baseColorTexture":{"index":1,"extensions":{"KHR_texture_transform":{"offset":[0,0],"scale":[1,1],"rotation":0}},"texCoord":0},"metallicFactor":0,"roughnessFactor":0.2},"name":"Capsule material 3","emissiveFactor":[0,0,0],"alphaMode":"OPAQUE","doubleSided":false},{"pbrMetallicRoughness":{"baseColorFactor":[1,1,1,1],"baseColorTexture":{"index":2,"extensions":{"KHR_texture_transform":{"offset":[0,0.78],"scale":[0.995,0.801],"rotation":0}},"texCoord":0},"metallicFactor":0,"roughnessFactor":1},"name":"Capsule material 2","emissiveFactor":[0,0,0],"alphaMode":"OPAQUE","doubleSided":false},{"pbrMetallicRoughness":{"baseColorFactor":[1,1,1,1],"baseColorTexture":{"index":2,"extensions":{"KHR_texture_transform":{"offset":[0,-0.01],"scale":[0.5179487179487179,0.99],"rotation":0}},"texCoord":0},"metallicFactor":0,"roughnessFactor":1},"name":"Capsule material","emissiveFactor":[0,0,0],"alphaMode":"OPAQUE","doubleSided":false},{"pbrMetallicRoughness":{"baseColorFactor":[1,1,1,1],"baseColorTexture":{"index":3,"extensions":{"KHR_texture_transform":{"offset":[0,0],"scale":[0.995,0.995],"rotation":0}},"texCoord":0},"metallicRoughnessTexture":{"index":4,"extensions":{"KHR_texture_transform":{"offset":[0,0],"scale":[0.995,0.995],"rotation":0}},"texCoord":0},"metallicFactor":0,"roughnessFactor":0.6},"name":"Fabric Editable","emissiveFactor":[0,0,0],"occlusionTexture":{"index":5,"strength":1,"extensions":{"KHR_texture_transform":{"offset":[0,0],"scale":[0.995,0.995],"rotation":0}},"texCoord":1},"alphaMode":"OPAQUE","doubleSided":true},{"pbrMetallicRoughness":{"baseColorFactor":[1,1,1,1],"baseColorTexture":{"index":6,"extensions":{"KHR_texture_transform":{"offset":[0,0],"scale":[1,1],"rotation":0}},"texCoord":0},"metallicFactor":0,"roughnessFactor":1},"name":"Fabric Editable 4","emissiveFactor":[0,0,0],"alphaMode":"OPAQUE","doubleSided":true},{"pbrMetallicRoughness":{"baseColorFactor":[1,1,1,1],"baseColorTexture":{"index":7,"extensions":{"KHR_texture_transform":{"offset":[0,0],"scale":[1,1],"rotation":0}},"texCoord":0},"metallicFactor":0.04,"roughnessFactor":1},"name":"Material 1","emissiveFactor":[0.1,0.1,0.1],"alphaMode":"OPAQUE","doubleSided":false},{"pbrMetallicRoughness":{"baseColorFactor":[1,1,1,1],"baseColorTexture":{"index":8,"extensions":{"KHR_texture_transform":{"offset":[0,0],"scale":[1,1],"rotation":0}},"texCoord":0},"metallicFactor":0.1,"roughnessFactor":0.4},"name":"Material","emissiveFactor":[0,0,0],"alphaMode":"OPAQUE","doubleSided":false},{"pbrMetallicRoughness":{"baseColorFactor":[1,1,1,1],"baseColorTexture":{"index":9,"extensions":{"KHR_texture_transform":{"offset":[0,0],"scale":[1,1],"rotation":0}},"texCoord":0},"metallicFactor":0,"roughnessFactor":0.9},"name":"Fabric Editable 3","emissiveFactor":[0,0,0],"alphaMode":"OPAQUE","doubleSided":false}],"textures":[{"sampler":0,"source":0},{"sampler":0,"source":1},{"sampler":0,"source":2},{"sampler":0,"source":3},{"sampler":0,"source":4},{"sampler":0,"source":5},{"sampler":0,"source":6},{"sampler":0,"source":7},{"sampler":0,"source":8},{"sampler":0,"source":9}],"images":[{"uri":"dent.jpg","mimeType":"image/jpeg"},{"uri":"spine_10.jpg","mimeType":"image/jpeg"},{"uri":"edge_highlighted_1.jpg","mimeType":"image/jpeg"},{"uri":"tadse_2.jpg","mimeType":"image/jpeg"},{"uri":"metallicTexture&cover_reflect_4.jpg","mimeType":"image/jpeg"},{"uri":"tadse_1.jpg","mimeType":"image/jpeg"},{"uri":"back_1.jpg","mimeType":"image/jpeg"},{"uri":"pages.jpg","mimeType":"image/jpeg"},{"uri":"highlight.jpg","mimeType":"image/jpeg"},{"uri":"spine_3.jpg","mimeType":"image/jpeg"}],"samplers":[{"wrapS":10497,"wrapT":10497}],"meshes":[{"primitives":[{"mode":4,"attributes":{"POSITION":1,"NORMAL":2,"TEXCOORD_0":3},"material":0,"indices":0}]},{"primitives":[{"mode":4,"attributes":{"POSITION":1,"NORMAL":2,"TEXCOORD_0":3},"material":0,"indices":0}]},{"primitives":[{"mode":4,"attributes":{"POSITION":5,"NORMAL":6,"TEXCOORD_0":7},"material":1,"indices":4}]},{"primitives":[{"mode":4,"attributes":{"POSITION":9,"NORMAL":10,"TEXCOORD_0":11},"material":2,"indices":8}]},{"primitives":[{"mode":4,"attributes":{"POSITION":13,"NORMAL":14,"TEXCOORD_0":15},"material":3,"indices":12}]},{"primitives":[{"mode":4,"attributes":{"POSITION":13,"NORMAL":14,"TEXCOORD_0":15},"material":3,"indices":12}]},{"primitives":[{"mode":4,"attributes":{"POSITION":17,"NORMAL":18,"TEXCOORD_0":19,"TEXCOORD_1":20},"material":4,"indices":16}]},{"primitives":[{"mode":4,"attributes":{"POSITION":22,"NORMAL":23,"TEXCOORD_0":24},"material":5,"indices":21}]},{"primitives":[{"mode":4,"attributes":{"POSITION":26,"NORMAL":27,"TEXCOORD_0":28},"material":6,"indices":25}]},{"primitives":[{"mode":4,"attributes":{"POSITION":30,"NORMAL":31,"TEXCOORD_0":32},"material":7,"indices":29}]},{"primitives":[{"mode":4,"attributes":{"POSITION":34,"NORMAL":35,"TEXCOORD_0":36},"material":8,"indices":33}]}],"accessors":[{"bufferView":0,"byteOffset":0,"componentType":5125,"count":3600,"type":"SCALAR"},{"bufferView":1,"byteOffset":0,"componentType":5126,"count":2400,"max":[1.1243789196014404,100,6.9112548828125],"min":[-1.1243789196014404,-100,0],"type":"VEC3"},{"bufferView":2,"byteOffset":0,"componentType":5126,"count":2400,"type":"VEC3"},{"bufferView":3,"byteOffset":0,"componentType":5126,"count":2400,"type":"VEC2"},{"bufferView":4,"byteOffset":0,"componentType":5125,"count":600,"type":"SCALAR"},{"bufferView":5,"byteOffset":0,"componentType":5126,"count":145,"max":[50,47.552825927734375,4995.8779296875],"min":[-50,-47.552825927734375,-5101.4521484375],"type":"VEC3"},{"bufferView":6,"byteOffset":0,"componentType":5126,"count":145,"type":"VEC3"},{"bufferView":7,"byteOffset":0,"componentType":5126,"count":145,"type":"VEC2"},{"bufferView":8,"byteOffset":0,"componentType":5125,"count":600,"type":"SCALAR"},{"bufferView":9,"byteOffset":0,"componentType":5126,"count":145,"max":[50,47.552825927734375,10097.330078125],"min":[-50,-47.552825927734375,0],"type":"VEC3"},{"bufferView":10,"byteOffset":0,"componentType":5126,"count":145,"type":"VEC3"},{"bufferView":11,"byteOffset":0,"componentType":5126,"count":145,"type":"VEC2"},{"bufferView":12,"byteOffset":0,"componentType":5125,"count":600,"type":"SCALAR"},{"bufferView":13,"byteOffset":0,"componentType":5126,"count":145,"max":[50,47.552825927734375,9.094947017729282e-13],"min":[-50,-47.552825927734375,-10097.330078125],"type":"VEC3"},{"bufferView":14,"byteOffset":0,"componentType":5126,"count":145,"type":"VEC3"},{"bufferView":15,"byteOffset":0,"componentType":5126,"count":145,"type":"VEC2"},{"bufferView":16,"byteOffset":0,"componentType":5125,"count":900,"type":"SCALAR"},{"bufferView":17,"byteOffset":0,"componentType":5126,"count":216,"max":[50,50,50],"min":[-50,-50,-50],"type":"VEC3"},{"bufferView":18,"byteOffset":0,"componentType":5126,"count":216,"type":"VEC3"},{"bufferView":19,"byteOffset":0,"componentType":5126,"count":216,"type":"VEC2"},{"bufferView":20,"byteOffset":0,"componentType":5126,"count":216,"type":"VEC2"},{"bufferView":21,"byteOffset":0,"componentType":5125,"count":900,"type":"SCALAR"},{"bufferView":22,"byteOffset":0,"componentType":5126,"count":216,"max":[50,50,100],"min":[-50,-50,0],"type":"VEC3"},{"bufferView":23,"byteOffset":0,"componentType":5126,"count":216,"type":"VEC3"},{"bufferView":24,"byteOffset":0,"componentType":5126,"count":216,"type":"VEC2"},{"bufferView":25,"byteOffset":0,"componentType":5125,"count":144,"type":"SCALAR"},{"bufferView":26,"byteOffset":0,"componentType":5126,"count":54,"max":[50,50,100],"min":[-50,-50,0],"type":"VEC3"},{"bufferView":27,"byteOffset":0,"componentType":5126,"count":54,"type":"VEC3"},{"bufferView":28,"byteOffset":0,"componentType":5126,"count":54,"type":"VEC2"},{"bufferView":29,"byteOffset":0,"componentType":5125,"count":384,"type":"SCALAR"},{"bufferView":30,"byteOffset":0,"componentType":5126,"count":227,"max":[11.588749885559082,148.79481506347656,1.8708559274673462],"min":[-11.588749885559082,-148.79481506347656,0],"type":"VEC3"},{"bufferView":31,"byteOffset":0,"componentType":5126,"count":227,"type":"VEC3"},{"bufferView":32,"byteOffset":0,"componentType":5126,"count":227,"type":"VEC2"},{"bufferView":33,"byteOffset":0,"componentType":5125,"count":144,"type":"SCALAR"},{"bufferView":34,"byteOffset":0,"componentType":5126,"count":54,"max":[50,50,100],"min":[-50,-50,0],"type":"VEC3"},{"bufferView":35,"byteOffset":0,"componentType":5126,"count":54,"type":"VEC3"},{"bufferView":36,"byteOffset":0,"componentType":5126,"count":54,"type":"VEC2"}],"bufferViews":[{"buffer":0,"byteOffset":0,"byteLength":14400,"target":34963},{"buffer":0,"byteOffset":14400,"byteLength":28800,"target":34962},{"buffer":0,"byteOffset":43200,"byteLength":28800,"target":34962},{"buffer":0,"byteOffset":72000,"byteLength":19200,"target":34962},{"buffer":0,"byteOffset":91200,"byteLength":2400,"target":34963},{"buffer":0,"byteOffset":93600,"byteLength":1740,"target":34962},{"buffer":0,"byteOffset":95340,"byteLength":1740,"target":34962},{"buffer":0,"byteOffset":97080,"byteLength":1160,"target":34962},{"buffer":0,"byteOffset":98240,"byteLength":2400,"target":34963},{"buffer":0,"byteOffset":100640,"byteLength":1740,"target":34962},{"buffer":0,"byteOffset":102380,"byteLength":1740,"target":34962},{"buffer":0,"byteOffset":104120,"byteLength":1160,"target":34962},{"buffer":0,"byteOffset":105280,"byteLength":2400,"target":34963},{"buffer":0,"byteOffset":107680,"byteLength":1740,"target":34962},{"buffer":0,"byteOffset":109420,"byteLength":1740,"target":34962},{"buffer":0,"byteOffset":111160,"byteLength":1160,"target":34962},{"buffer":0,"byteOffset":112320,"byteLength":3600,"target":34963},{"buffer":0,"byteOffset":115920,"byteLength":2592,"target":34962},{"buffer":0,"byteOffset":118512,"byteLength":2592,"target":34962},{"buffer":0,"byteOffset":121104,"byteLength":1728,"target":34962},{"buffer":0,"byteOffset":122832,"byteLength":1728,"target":34962},{"buffer":0,"byteOffset":124560,"byteLength":3600,"target":34963},{"buffer":0,"byteOffset":128160,"byteLength":2592,"target":34962},{"buffer":0,"byteOffset":130752,"byteLength":2592,"target":34962},{"buffer":0,"byteOffset":133344,"byteLength":1728,"target":34962},{"buffer":0,"byteOffset":135072,"byteLength":576,"target":34963},{"buffer":0,"byteOffset":135648,"byteLength":648,"target":34962},{"buffer":0,"byteOffset":136296,"byteLength":648,"target":34962},{"buffer":0,"byteOffset":136944,"byteLength":432,"target":34962},{"buffer":0,"byteOffset":137376,"byteLength":1536,"target":34963},{"buffer":0,"byteOffset":138912,"byteLength":2724,"target":34962},{"buffer":0,"byteOffset":141636,"byteLength":2724,"target":34962},{"buffer":0,"byteOffset":144360,"byteLength":1816,"target":34962},{"buffer":0,"byteOffset":146176,"byteLength":576,"target":34963},{"buffer":0,"byteOffset":146752,"byteLength":648,"target":34962},{"buffer":0,"byteOffset":147400,"byteLength":648,"target":34962},{"buffer":0,"byteOffset":148048,"byteLength":432,"target":34962}],"cameras":[{"name":"Camera","type":"perspective","extras":{"targetDistance":0.6827606431125879},"perspective":{"aspectRatio":1.386266094420601,"yfov":0.6108652381980153,"zfar":45.909495387817124,"znear":0.003659132421381231}}],"scene":0,"scenes":[{"nodes":[0,12],"name":"Book"}],"extensionsUsed":["KHR_texture_transform"],"buffers":[{"byteLength":148480,"uri":"Book.bin"}]}