<?xml version="1.0" encoding="utf-8"?>
<!-- Generator: Adobe Illustrator 18.1.1, SVG Export Plug-In . SVG Version: 6.00 Build 0)  -->
<svg version="1.1" id="Layer_1" xmlns="http://www.w3.org/2000/svg" xmlns:xlink="http://www.w3.org/1999/xlink" x="0px" y="0px"
	 viewBox="0 0 11.8 7.8" enable-background="new 0 0 11.8 7.8" xml:space="preserve">
<path d="M11.6,2.6H9.4c-0.1,0-0.2-0.1-0.2-0.2V0.2C9.2,0.1,9.3,0,9.4,0h2.2c0.1,0,0.2,0.1,0.2,0.2v2.2C11.8,2.6,11.7,2.6,11.6,2.6z"
	/>
<path d="M11.6,7.8H9.4c-0.1,0-0.2-0.1-0.2-0.2V5.3c0-0.1,0.1-0.2,0.2-0.2h2.2c0.1,0,0.2,0.1,0.2,0.2v2.2C11.8,7.7,11.7,7.8,11.6,7.8
	z"/>
<path d="M7,2.6H4.8c-0.1,0-0.2-0.1-0.2-0.2V0.2C4.6,0.1,4.7,0,4.8,0H7c0.1,0,0.2,0.1,0.2,0.2v2.2C7.2,2.6,7.1,2.6,7,2.6z"/>
<path d="M7,7.8H4.8c-0.1,0-0.2-0.1-0.2-0.2V5.3c0-0.1,0.1-0.2,0.2-0.2H7c0.1,0,0.2,0.1,0.2,0.2v2.2C7.2,7.7,7.1,7.8,7,7.8z"/>
<path d="M2.4,2.6H0.2C0.1,2.6,0,2.6,0,2.4V0.2C0,0.1,0.1,0,0.2,0h2.2c0.1,0,0.2,0.1,0.2,0.2v2.2C2.6,2.6,2.6,2.6,2.4,2.6z"/>
<path d="M2.4,7.8H0.2C0.1,7.8,0,7.7,0,7.6V5.3c0-0.1,0.1-0.2,0.2-0.2h2.2c0.1,0,0.2,0.1,0.2,0.2v2.2C2.6,7.7,2.6,7.8,2.4,7.8z"/>
</svg>
