<?xml version="1.0" encoding="utf-8"?>
<!-- Generator: Adobe Illustrator 18.1.1, SVG Export Plug-In . SVG Version: 6.00 Build 0)  -->
<svg version="1.1" id="Layer_1" xmlns="http://www.w3.org/2000/svg" xmlns:xlink="http://www.w3.org/1999/xlink" x="0px" y="0px"
	 viewBox="0 0 792 612" enable-background="new 0 0 792 612" xml:space="preserve">
<path d="M548,175.5c-11.4-2.7-22.1-5.8-33.1-7.7c-21.4-3.6-42-1.6-60.5,11c-15.9,10.9-24.4,26.6-27.6,45.2c-3,17.2-2,34.3,4.5,50.7
	c9.6,24.1,28.2,37,53.6,38.7c12.1,0.9,24.5-1.4,36.7-2.3c4.3-0.3,5.6-2.7,5.6-7c-0.2-19.9,0-39.8-0.2-59.7c-0.1-5,1.4-7.1,6.5-6.8
	c5.2,0.3,10.4,0.1,15.6,0.1c3.5,0,5.2,1,5.2,5c-0.2,26.7,0,53.3-0.3,80c0,1.9-1.8,5-3.4,5.5c-29.8,9.7-60.2,14-91.1,5.9
	c-37-9.7-59.2-38.5-62.5-78c-2.1-25,1.5-49,15.7-70.4c17.6-26.6,43.3-39.5,74.3-42.2c19.9-1.7,39.7,0.1,59,5.7
	c4.9,1.4,6.5,3.4,5.1,8.6C549.5,163.7,548.9,169.8,548,175.5z"/>
<path d="M238,387.7c-7.3,3.5-14.3,6.7-21.1,10.2c-3.2,1.6-4.9,1.4-7-1.8c-6.2-9.7-6.4-9.8,3.1-16.5c10.5-7.5,21.3-14.6,32.3-22.2
	c39.6,57.6,92.8,89.7,162.7,89.8c70,0.1,123.3-31.8,163.1-89.4c6.3,3.9,12.6,7.9,18.9,11.8C523.8,486.8,338.4,515.8,238,387.7z"/>
<path d="M262.8,308.6c11.1,2,21.3,4,31.5,5.6c10.1,1.6,20,0.3,29.6-3.2c12.1-4.5,18.5-13.6,19.3-26.4c0.7-11.4-4.9-19.8-14.7-25
	c-8.2-4.3-16.8-7.7-25.2-11.5c-6.7-3-13.5-5.9-19.9-9.3c-36.3-19-31.8-68.1-0.3-85.8c10.8-6.1,22.4-9.8,34.7-9.7
	c12.9,0.2,25.8,1.3,38.6,2.3c1.5,0.1,4,1.8,4,2.8c0,7.1-0.4,14.2-0.8,21.1c-11.3-1.4-21.8-3.3-32.2-3.7c-7.4-0.3-15.1,0.7-22.2,2.7
	c-10.6,3-17.5,10.4-18.9,21.8c-1.4,11.2,3.4,19.8,12.9,25.2c8.4,4.7,17.4,8.3,26.1,12.3c6.6,3.1,13.4,5.9,19.9,9.3
	c36.7,18.9,30,60.9,12,79.8c-12.1,12.7-27.3,19.4-44.2,20.2c-15.1,0.7-30.3-1.3-45.5-2.1c-5.1-0.3-6.8-2.9-6-8
	C262.3,321,262.4,314.8,262.8,308.6z"/>
</svg>
