<?xml version="1.0" encoding="utf-8"?>
<!-- Generator: Adobe Illustrator 18.1.1, SVG Export Plug-In . SVG Version: 6.00 Build 0)  -->
<svg version="1.1" id="Layer_1" xmlns="http://www.w3.org/2000/svg" xmlns:xlink="http://www.w3.org/1999/xlink" x="0px" y="0px"
	 viewBox="0 0 792 612" enable-background="new 0 0 792 612" xml:space="preserve">
<path d="M355,184.8c-27.8,0-54.2,0-81.8,0c-0.3,5.3-0.7,9.6-0.7,14c0,53.9,0.1,107.7,0.1,161.6c0,4.1,0,8.2,0.4,12.2
	c3.7,35.8,19.7,52.5,55.7,53.6c44.4,1.3,88.9,1.3,133.4-0.1c36.6-1.1,54.8-18.6,55.7-54.8c1.4-60.8,0.4-121.6,0.4-182.4
	c0-0.8-0.5-1.5-1.5-4.2c-16.2,0-33.1,0-50.1,0c-21.9-0.1-29-7.2-29.2-29.4c-0.1-6.9,0-13.7,0-22.2c14.9,0,28.6,0,42.4,0
	c21.2,0,42.4-0.2,63.7,0c18.2,0.1,27,8.9,27,27.2c0.1,68.6,0.4,137.1-0.2,205.7c-0.1,14.1-2,28.6-5.5,42.3
	c-9.9,39.1-37.5,59.8-75.8,64.5c-30.6,3.8-61.8,4.7-92.7,4.3c-34.1-0.4-68.8-0.5-102.2-6.5c-44.8-8.1-68.7-38.3-71.2-84
	c-1.9-34.2-1.4-68.5-1.5-102.8c-0.2-40.4,0-80.8,0-121.2c0-21.7,7.7-29.3,29.6-29.3c24.9-0.1,49.8-0.1,74.7,0
	c20.7,0.1,29.2,8.4,29.4,28.7C355.1,169.1,355,176,355,184.8z"/>
</svg>
