<svg width="1047" height="223" viewBox="0 0 1047 223" fill="none" xmlns="http://www.w3.org/2000/svg">
<g filter="url(#filter0_df_1075_9353)">
<path d="M11.296 5.716H5.464C5.356 5.716 5.284 5.644 5.284 5.536V2.836C5.284 2.728 5.356 2.656 5.464 2.656H21.196C21.304 2.656 21.376 2.728 21.376 2.836V5.536C21.376 5.644 21.304 5.716 21.196 5.716H15.076C14.968 5.716 14.896 5.788 14.896 5.896V24.76C14.896 24.868 14.968 24.94 15.076 24.94H21.196C21.304 24.94 21.376 25.012 21.376 25.12V27.82C21.376 27.928 21.304 28 21.196 28H5.464C5.356 28 5.284 27.928 5.284 27.82V25.12C5.284 25.012 5.356 24.94 5.464 24.94H11.296C11.404 24.94 11.476 24.868 11.476 24.76V5.896C11.476 5.788 11.404 5.716 11.296 5.716ZM29.8993 9.784H32.5993C32.7073 9.784 32.7433 9.856 32.7793 9.964L33.1393 11.584C33.2113 11.8 33.4633 11.728 33.5353 11.62C34.2913 10.576 35.8393 9.424 38.2513 9.424C43.4713 9.424 46.0993 13.24 46.0993 17.92V27.82C46.0993 27.928 46.0273 28 45.9193 28H42.8593C42.7513 28 42.6793 27.928 42.6793 27.82V17.92C42.6793 15.184 41.4553 12.484 37.8913 12.484C34.8673 12.484 33.1393 15.112 33.1393 17.92V27.82C33.1393 27.928 33.0673 28 32.9593 28H29.8993C29.7913 28 29.7193 27.928 29.7193 27.82V9.964C29.7193 9.856 29.7913 9.784 29.8993 9.784ZM92.5938 25.12V27.82C92.5938 27.928 92.5218 28 92.4138 28H86.7618C83.7738 28.072 82.0458 26.704 82.0458 23.752V12.664C82.0458 12.556 81.9738 12.484 81.8658 12.484H76.8618C76.7538 12.484 76.6818 12.412 76.6818 12.304V9.964C76.6818 9.856 76.7538 9.784 76.8618 9.784H81.8658C81.9738 9.784 82.0458 9.712 82.0458 9.604V4.744C82.0458 4.636 82.1178 4.564 82.2258 4.564H85.2858C85.3938 4.564 85.4658 4.636 85.4658 4.744V9.604C85.4658 9.712 85.5378 9.784 85.6458 9.784H92.4138C92.5218 9.784 92.5938 9.856 92.5938 9.964V12.304C92.5938 12.412 92.5218 12.484 92.4138 12.484H85.6458C85.5378 12.484 85.4658 12.556 85.4658 12.664V23.14C85.4658 24.256 85.9698 24.94 87.4098 24.94H92.4138C92.5218 24.94 92.5938 25.012 92.5938 25.12ZM102.989 2.656H106.049C106.157 2.656 106.229 2.728 106.229 2.836V11.548C106.229 11.728 106.481 11.8 106.625 11.62C107.705 10.252 109.469 9.424 111.341 9.424C116.921 9.424 119.189 13.24 119.189 17.92V27.82C119.189 27.928 119.117 28 119.009 28H115.949C115.841 28 115.769 27.928 115.769 27.82V17.92C115.769 15.184 114.545 12.484 110.981 12.484C107.957 12.484 106.229 15.112 106.229 17.92V27.82C106.229 27.928 106.157 28 106.049 28H102.989C102.881 28 102.809 27.928 102.809 27.82V2.836C102.809 2.728 102.881 2.656 102.989 2.656ZM130.052 20.116C129.944 20.116 129.872 20.188 129.872 20.296C129.872 22.924 131.78 25.3 134.984 25.3C137.54 25.3 138.8 24.22 139.556 22.78C139.628 22.636 139.736 22.6 139.844 22.6H143.012C143.12 22.6 143.228 22.636 143.192 22.78C142.256 26.308 139.052 28.36 134.984 28.36C129.584 28.36 126.236 24.508 126.236 18.892C126.236 13.24 129.404 9.424 134.984 9.424C140.6 9.424 143.768 13.276 143.768 18.892C143.768 19.252 143.732 19.648 143.66 19.936C143.624 20.044 143.588 20.116 143.48 20.116H130.052ZM140.024 17.236C140.024 15.184 138.548 12.484 134.984 12.484C131.492 12.484 129.872 15.544 129.872 17.236C129.872 17.344 129.98 17.416 130.052 17.416H139.844C139.952 17.416 140.024 17.344 140.024 17.236ZM175.179 32.248C175.179 32.14 175.251 32.068 175.359 32.068H179.427C181.551 32.068 182.199 30.7 181.551 28.792L181.227 27.82L175.143 9.964C175.107 9.82 175.251 9.784 175.359 9.784H178.635C178.743 9.784 178.779 9.856 178.815 9.964L183.531 24.436C183.603 24.616 183.819 24.616 183.891 24.436L188.643 9.964C188.679 9.856 188.715 9.784 188.823 9.784H192.099C192.207 9.784 192.315 9.856 192.279 9.964L186.123 28L185.079 31.132C184.035 34.048 182.955 35.128 180.039 35.128H175.359C175.251 35.128 175.179 35.056 175.179 34.948V32.248ZM203.142 20.116C203.034 20.116 202.962 20.188 202.962 20.296C202.962 22.924 204.87 25.3 208.074 25.3C210.63 25.3 211.89 24.22 212.646 22.78C212.718 22.636 212.826 22.6 212.934 22.6H216.102C216.21 22.6 216.318 22.636 216.282 22.78C215.346 26.308 212.142 28.36 208.074 28.36C202.674 28.36 199.326 24.508 199.326 18.892C199.326 13.24 202.494 9.424 208.074 9.424C213.69 9.424 216.858 13.276 216.858 18.892C216.858 19.252 216.822 19.648 216.75 19.936C216.714 20.044 216.678 20.116 216.57 20.116H203.142ZM213.114 17.236C213.114 15.184 211.638 12.484 208.074 12.484C204.582 12.484 202.962 15.544 202.962 17.236C202.962 17.344 203.07 17.416 203.142 17.416H212.934C213.042 17.416 213.114 17.344 213.114 17.236ZM241.582 25.12V27.82C241.582 27.928 241.51 28 241.402 28H240.718C238.666 28 237.37 27.316 236.902 26.164C236.83 25.984 236.65 26.02 236.578 26.092C235.714 26.956 233.662 28.36 230.35 28.36C225.85 28.36 223.33 26.02 223.33 22.6C223.33 19.468 226.102 17.128 231.07 17.128H234.922C235.714 17.128 236.11 16.444 236.11 15.94C236.11 14.464 235.93 12.484 231.646 12.484C228.55 12.484 227.326 13.924 227.326 15.76C227.326 15.868 227.254 15.94 227.146 15.94H224.086C223.978 15.94 223.906 15.868 223.906 15.76C223.906 11.512 227.578 9.424 231.646 9.424C236.614 9.424 239.53 11.548 239.53 15.94V23.752C239.53 24.292 239.962 24.94 240.718 24.94H241.402C241.51 24.94 241.582 25.012 241.582 25.12ZM236.11 20.512V20.008C236.11 19.9 236.038 19.828 235.93 19.828H231.07C227.794 19.828 226.75 21.34 226.75 22.6C226.75 23.896 228.01 25.3 230.35 25.3C234.706 25.3 236.11 22.708 236.11 20.512ZM250.357 9.784H253.057C253.165 9.784 253.201 9.856 253.237 9.964L253.597 11.584C253.669 11.8 253.921 11.728 253.993 11.62C254.749 10.576 256.297 9.424 258.709 9.424C263.929 9.424 266.557 13.24 266.557 17.92V18.1C266.557 18.208 266.485 18.28 266.377 18.28H263.317C263.209 18.28 263.137 18.208 263.137 18.1V17.92C263.137 15.184 261.913 12.484 258.349 12.484C255.325 12.484 253.597 15.112 253.597 17.92V27.82C253.597 27.928 253.525 28 253.417 28H250.357C250.249 28 250.177 27.928 250.177 27.82V9.964C250.177 9.856 250.249 9.784 250.357 9.784ZM297.211 27.82V25.3C297.211 25.192 297.247 24.94 297.355 24.832L307.363 15.076C308.155 14.32 310.459 12.16 310.423 9.928C310.387 8.056 309.019 5.356 305.635 5.356C302.899 5.356 301.063 7.408 301.063 9.604C301.063 9.712 300.991 9.784 300.883 9.784H297.823C297.715 9.784 297.643 9.712 297.643 9.604C297.643 5.284 301.027 2.296 305.635 2.296C310.819 2.296 313.843 5.752 313.843 9.928C313.843 13.6 311.107 16.084 309.847 17.344L301.927 24.652C301.855 24.724 301.855 24.94 302.071 24.94H313.663C313.771 24.94 313.843 25.012 313.843 25.12V27.82C313.843 27.928 313.771 28 313.663 28H297.391C297.283 28 297.211 27.928 297.211 27.82ZM338.675 15.328C338.675 22.744 336.335 28.396 329.063 28.396C321.791 28.396 319.415 22.744 319.415 15.328C319.415 7.912 321.791 2.296 329.063 2.296C336.335 2.296 338.675 7.912 338.675 15.328ZM335.075 15.328C335.075 13.204 334.895 11.404 334.463 9.928C334.391 9.748 334.211 9.748 334.103 9.892L325.247 23.608C325.175 23.716 325.211 23.86 325.283 23.932C326.183 24.868 327.407 25.336 329.063 25.336C333.455 25.336 335.075 21.664 335.075 15.328ZM323.051 15.328C323.051 17.452 323.231 19.18 323.591 20.656C323.627 20.836 323.843 20.872 323.951 20.692L332.807 7.048C332.879 6.94 332.879 6.832 332.771 6.724C331.835 5.86 330.611 5.356 329.063 5.356C324.635 5.356 323.051 8.956 323.051 15.328ZM345.938 27.82V25.3C345.938 25.192 345.974 24.94 346.082 24.832L356.09 15.076C356.882 14.32 359.186 12.16 359.15 9.928C359.114 8.056 357.746 5.356 354.362 5.356C351.626 5.356 349.79 7.408 349.79 9.604C349.79 9.712 349.718 9.784 349.61 9.784H346.55C346.442 9.784 346.37 9.712 346.37 9.604C346.37 5.284 349.754 2.296 354.362 2.296C359.546 2.296 362.57 5.752 362.57 9.928C362.57 13.6 359.834 16.084 358.574 17.344L350.654 24.652C350.582 24.724 350.582 24.94 350.798 24.94H362.39C362.498 24.94 362.57 25.012 362.57 25.12V27.82C362.57 27.928 362.498 28 362.39 28H346.118C346.01 28 345.938 27.928 345.938 27.82ZM376.925 13.6C376.925 13.492 376.997 13.42 377.105 13.42H378.365C381.101 13.42 382.973 11.728 382.973 9.424C382.973 7.3 381.173 5.356 378.365 5.356C375.737 5.392 373.829 7.516 373.865 9.604C373.865 9.712 373.793 9.784 373.685 9.784H370.625C370.517 9.784 370.445 9.712 370.445 9.604C370.409 5.392 373.757 2.332 378.365 2.296C383.153 2.296 386.393 5.356 386.393 9.424C386.393 12.808 383.657 14.428 382.829 14.68C382.613 14.716 382.613 15.004 382.829 15.04C384.053 15.436 386.969 17.416 386.969 21.16C386.969 25.372 383.729 28.36 378.365 28.36C373.037 28.36 370.265 25.012 370.265 21.16C370.265 21.052 370.337 20.98 370.445 20.98H373.505C373.613 20.98 373.685 21.052 373.685 21.16C373.685 23.104 375.197 25.3 378.365 25.3C381.317 25.3 383.549 23.5 383.549 21.16C383.549 18.316 381.281 16.48 378.365 16.48H377.105C376.997 16.48 376.925 16.408 376.925 16.3V13.6ZM402.405 28H400.821C400.713 28 400.641 27.928 400.641 27.82V23.428C400.641 23.32 400.713 23.248 400.821 23.248H405.141C405.249 23.248 405.321 23.32 405.321 23.428V27.784C405.321 30.52 403.485 32.752 400.821 32.752C400.713 32.752 400.641 32.68 400.641 32.572V30.592C400.641 30.484 400.713 30.412 400.821 30.412C401.541 30.412 402.585 29.44 402.585 28.18C402.585 28.072 402.513 28 402.405 28ZM458.043 25.12V27.82C458.043 27.928 457.971 28 457.863 28H452.211C449.223 28.072 447.495 26.704 447.495 23.752V12.664C447.495 12.556 447.423 12.484 447.315 12.484H442.311C442.203 12.484 442.131 12.412 442.131 12.304V9.964C442.131 9.856 442.203 9.784 442.311 9.784H447.315C447.423 9.784 447.495 9.712 447.495 9.604V4.744C447.495 4.636 447.567 4.564 447.675 4.564H450.735C450.843 4.564 450.915 4.636 450.915 4.744V9.604C450.915 9.712 450.987 9.784 451.095 9.784H457.863C457.971 9.784 458.043 9.856 458.043 9.964V12.304C458.043 12.412 457.971 12.484 457.863 12.484H451.095C450.987 12.484 450.915 12.556 450.915 12.664V23.14C450.915 24.256 451.419 24.94 452.859 24.94H457.863C457.971 24.94 458.043 25.012 458.043 25.12ZM468.438 2.656H471.498C471.606 2.656 471.678 2.728 471.678 2.836V11.548C471.678 11.728 471.93 11.8 472.074 11.62C473.154 10.252 474.918 9.424 476.79 9.424C482.37 9.424 484.638 13.24 484.638 17.92V27.82C484.638 27.928 484.566 28 484.458 28H481.398C481.29 28 481.218 27.928 481.218 27.82V17.92C481.218 15.184 479.994 12.484 476.43 12.484C473.406 12.484 471.678 15.112 471.678 17.92V27.82C471.678 27.928 471.606 28 471.498 28H468.438C468.33 28 468.258 27.928 468.258 27.82V2.836C468.258 2.728 468.33 2.656 468.438 2.656ZM495.502 20.116C495.394 20.116 495.322 20.188 495.322 20.296C495.322 22.924 497.23 25.3 500.434 25.3C502.99 25.3 504.25 24.22 505.006 22.78C505.078 22.636 505.186 22.6 505.294 22.6H508.462C508.57 22.6 508.678 22.636 508.642 22.78C507.706 26.308 504.502 28.36 500.434 28.36C495.034 28.36 491.686 24.508 491.686 18.892C491.686 13.24 494.854 9.424 500.434 9.424C506.05 9.424 509.218 13.276 509.218 18.892C509.218 19.252 509.182 19.648 509.11 19.936C509.074 20.044 509.038 20.116 508.93 20.116H495.502ZM505.474 17.236C505.474 15.184 503.998 12.484 500.434 12.484C496.942 12.484 495.322 15.544 495.322 17.236C495.322 17.344 495.43 17.416 495.502 17.416H505.294C505.402 17.416 505.474 17.344 505.474 17.236ZM543.292 28H540.592C540.484 28 540.412 27.928 540.412 27.82V2.836C540.412 2.728 540.484 2.656 540.592 2.656H543.652C543.76 2.656 543.832 2.728 543.832 2.836V11.404C543.832 11.548 544.012 11.692 544.192 11.476C544.624 10.972 546.82 9.424 549.34 9.424C554.596 9.424 557.908 13.276 557.908 18.892C557.908 24.508 554.596 28.36 549.34 28.36C547.54 28.36 545.164 27.28 544.192 26.308C544.084 26.2 543.904 26.164 543.832 26.38L543.472 27.82C543.436 27.928 543.4 28 543.292 28ZM554.488 18.892C554.488 15.148 552.436 12.484 548.98 12.484C545.704 12.484 543.832 15.148 543.832 18.892C543.832 22.636 545.704 25.3 548.98 25.3C552.436 25.3 554.488 22.636 554.488 18.892ZM565.459 2.656H575.071C575.179 2.656 575.251 2.728 575.251 2.836V24.76C575.251 24.868 575.323 24.94 575.431 24.94H582.631C582.739 24.94 582.811 25.012 582.811 25.12V27.82C582.811 27.928 582.739 28 582.631 28H564.739C564.631 28 564.559 27.928 564.559 27.82V25.12C564.559 25.012 564.631 24.94 564.739 24.94H571.651C571.759 24.94 571.831 24.868 571.831 24.76V5.896C571.831 5.788 571.759 5.716 571.651 5.716H565.459C565.351 5.716 565.279 5.644 565.279 5.536V2.836C565.279 2.728 565.351 2.656 565.459 2.656ZM606.815 18.892C606.815 24.508 603.503 28.36 597.887 28.36C592.235 28.36 588.959 24.508 588.959 18.892C588.959 13.24 592.235 9.424 597.887 9.424C603.503 9.424 606.815 13.276 606.815 18.892ZM603.395 18.892C603.395 15.148 601.343 12.484 597.887 12.484C594.467 12.484 592.379 15.148 592.379 18.892C592.379 22.636 594.467 25.3 597.887 25.3C601.343 25.3 603.395 22.636 603.395 18.892ZM630.782 15.94H627.578C627.47 15.94 627.398 15.868 627.362 15.76C626.57 13.636 624.842 12.484 622.394 12.484C618.974 12.484 616.922 15.148 616.922 18.892C616.922 22.636 618.974 25.3 622.394 25.3C624.842 25.3 626.57 24.148 627.362 22.024C627.398 21.916 627.47 21.844 627.578 21.844H630.782C630.89 21.844 630.998 21.88 630.962 22.024C629.954 26.02 626.966 28.36 622.394 28.36C616.742 28.36 613.502 24.508 613.502 18.892C613.502 13.24 616.742 9.424 622.394 9.424C626.966 9.424 629.99 11.8 630.962 15.76C630.998 15.904 630.89 15.94 630.782 15.94ZM656.549 28H653.309C653.201 28 653.057 27.928 652.985 27.82L647.261 17.992C647.189 17.884 647.117 17.884 647.009 17.992L642.905 21.52C642.833 21.592 642.833 21.628 642.833 21.736V27.82C642.833 27.928 642.761 28 642.653 28H639.593C639.485 28 639.413 27.928 639.413 27.82V2.836C639.413 2.728 639.485 2.656 639.593 2.656H642.653C642.761 2.656 642.833 2.728 642.833 2.836V16.948C642.833 17.056 642.977 17.128 643.085 17.02L651.365 9.964C651.581 9.784 651.797 9.784 651.905 9.784H656.333C656.441 9.784 656.513 9.892 656.441 9.964L649.745 15.652C649.673 15.724 649.673 15.832 649.745 15.94L656.693 27.82C656.729 27.892 656.657 28 656.549 28ZM679.509 15.94H676.305C676.197 15.94 676.125 15.868 676.089 15.76C675.297 13.636 673.569 12.484 671.121 12.484C667.701 12.484 665.649 15.148 665.649 18.892C665.649 22.636 667.701 25.3 671.121 25.3C673.569 25.3 675.297 24.148 676.089 22.024C676.125 21.916 676.197 21.844 676.305 21.844H679.509C679.617 21.844 679.725 21.88 679.689 22.024C678.681 26.02 675.693 28.36 671.121 28.36C665.469 28.36 662.229 24.508 662.229 18.892C662.229 13.24 665.469 9.424 671.121 9.424C675.693 9.424 678.717 11.8 679.689 15.76C679.725 15.904 679.617 15.94 679.509 15.94ZM687.708 2.656H690.768C690.876 2.656 690.948 2.728 690.948 2.836V11.548C690.948 11.728 691.2 11.8 691.344 11.62C692.424 10.252 694.188 9.424 696.06 9.424C701.64 9.424 703.908 13.24 703.908 17.92V27.82C703.908 27.928 703.836 28 703.728 28H700.668C700.56 28 700.488 27.928 700.488 27.82V17.92C700.488 15.184 699.264 12.484 695.7 12.484C692.676 12.484 690.948 15.112 690.948 17.92V27.82C690.948 27.928 690.876 28 690.768 28H687.708C687.6 28 687.528 27.928 687.528 27.82V2.836C687.528 2.728 687.6 2.656 687.708 2.656ZM728.847 25.12V27.82C728.847 27.928 728.775 28 728.667 28H727.983C725.931 28 724.635 27.316 724.167 26.164C724.095 25.984 723.915 26.02 723.843 26.092C722.979 26.956 720.927 28.36 717.615 28.36C713.115 28.36 710.595 26.02 710.595 22.6C710.595 19.468 713.367 17.128 718.335 17.128H722.187C722.979 17.128 723.375 16.444 723.375 15.94C723.375 14.464 723.195 12.484 718.911 12.484C715.815 12.484 714.591 13.924 714.591 15.76C714.591 15.868 714.519 15.94 714.411 15.94H711.351C711.243 15.94 711.171 15.868 711.171 15.76C711.171 11.512 714.843 9.424 718.911 9.424C723.879 9.424 726.795 11.548 726.795 15.94V23.752C726.795 24.292 727.227 24.94 727.983 24.94H728.667C728.775 24.94 728.847 25.012 728.847 25.12ZM723.375 20.512V20.008C723.375 19.9 723.303 19.828 723.195 19.828H718.335C715.059 19.828 714.015 21.34 714.015 22.6C714.015 23.896 715.275 25.3 717.615 25.3C721.971 25.3 723.375 22.708 723.375 20.512ZM746.874 2.836V6.58C746.874 6.688 746.802 6.76 746.694 6.76H742.914C742.806 6.76 742.734 6.688 742.734 6.58V2.836C742.734 2.728 742.806 2.656 742.914 2.656H746.694C746.802 2.656 746.874 2.728 746.874 2.836ZM736.722 9.784H746.334C746.442 9.784 746.514 9.856 746.514 9.964V24.76C746.514 24.868 746.586 24.94 746.694 24.94H753.894C754.002 24.94 754.074 25.012 754.074 25.12V27.82C754.074 27.928 754.002 28 753.894 28H736.002C735.894 28 735.822 27.928 735.822 27.82V25.12C735.822 25.012 735.894 24.94 736.002 24.94H742.914C743.022 24.94 743.094 24.868 743.094 24.76V13.024C743.094 12.916 743.022 12.844 742.914 12.844H736.722C736.614 12.844 736.542 12.772 736.542 12.664V9.964C736.542 9.856 736.614 9.784 736.722 9.784ZM760.798 9.784H763.498C763.606 9.784 763.642 9.856 763.678 9.964L764.038 11.584C764.11 11.8 764.362 11.728 764.434 11.62C765.19 10.576 766.738 9.424 769.15 9.424C774.37 9.424 776.998 13.24 776.998 17.92V27.82C776.998 27.928 776.926 28 776.818 28H773.758C773.65 28 773.578 27.928 773.578 27.82V17.92C773.578 15.184 772.354 12.484 768.79 12.484C765.766 12.484 764.038 15.112 764.038 17.92V27.82C764.038 27.928 763.966 28 763.858 28H760.798C760.69 28 760.618 27.928 760.618 27.82V9.964C760.618 9.856 760.69 9.784 760.798 9.784ZM819.964 2.836V6.58C819.964 6.688 819.892 6.76 819.784 6.76H816.004C815.896 6.76 815.824 6.688 815.824 6.58V2.836C815.824 2.728 815.896 2.656 816.004 2.656H819.784C819.892 2.656 819.964 2.728 819.964 2.836ZM809.812 9.784H819.424C819.532 9.784 819.604 9.856 819.604 9.964V24.76C819.604 24.868 819.676 24.94 819.784 24.94H826.984C827.092 24.94 827.164 25.012 827.164 25.12V27.82C827.164 27.928 827.092 28 826.984 28H809.092C808.984 28 808.912 27.928 808.912 27.82V25.12C808.912 25.012 808.984 24.94 809.092 24.94H816.004C816.112 24.94 816.184 24.868 816.184 24.76V13.024C816.184 12.916 816.112 12.844 816.004 12.844H809.812C809.704 12.844 809.632 12.772 809.632 12.664V9.964C809.632 9.856 809.704 9.784 809.812 9.784ZM848.9 15.94H845.804C845.696 15.94 845.624 15.868 845.624 15.76C845.624 13.78 844.04 12.484 841.124 12.484C838.424 12.484 837.236 13.672 837.236 14.788C837.236 16.84 839.828 16.876 841.628 17.128C845.228 17.596 849.548 17.956 849.548 22.564C849.548 26.668 846.128 28.36 841.628 28.36C836.156 28.36 833.492 25.48 833.492 22.024C833.492 21.916 833.564 21.844 833.672 21.844H836.696C836.804 21.844 836.912 21.916 836.912 22.024C836.912 23.824 838.748 25.3 841.628 25.3C843.464 25.3 846.128 24.904 846.128 22.564C846.128 20.512 843.14 20.368 841.628 20.188C838.172 19.792 833.816 19.252 833.816 14.788C833.816 11.836 836.66 9.424 841.124 9.424C845.552 9.424 849.044 11.512 849.044 15.76C849.044 15.868 849.008 15.94 848.9 15.94ZM898.742 2.836V5.536C898.742 5.644 898.67 5.716 898.562 5.716H893.306C892.226 5.716 891.614 6.4 891.614 7.516V9.604C891.614 9.712 891.686 9.784 891.794 9.784H898.562C898.67 9.784 898.742 9.856 898.742 9.964V12.304C898.742 12.412 898.67 12.484 898.562 12.484H891.794C891.686 12.484 891.614 12.556 891.614 12.664V27.82C891.614 27.928 891.542 28 891.434 28H888.374C888.266 28 888.194 27.928 888.194 27.82V12.664C888.194 12.556 888.122 12.484 888.014 12.484H883.01C882.902 12.484 882.83 12.412 882.83 12.304V9.964C882.83 9.856 882.902 9.784 883.01 9.784H888.014C888.122 9.784 888.194 9.712 888.194 9.604V6.904C888.194 3.952 889.922 2.584 893.27 2.656H898.562C898.67 2.656 898.742 2.728 898.742 2.836ZM921.917 28H919.217C919.109 28 919.073 27.928 919.037 27.82L918.677 26.2C918.605 25.984 918.353 26.056 918.281 26.164C917.633 27.1 915.869 28.36 913.565 28.36C907.625 28.36 905.717 24.544 905.717 19.864V9.964C905.717 9.856 905.789 9.784 905.897 9.784H908.957C909.065 9.784 909.137 9.856 909.137 9.964V19.864C909.137 22.6 910.361 25.3 913.925 25.3C916.949 25.3 918.677 22.672 918.677 19.864V9.964C918.677 9.856 918.749 9.784 918.857 9.784H921.917C922.025 9.784 922.097 9.856 922.097 9.964V27.82C922.097 27.928 922.025 28 921.917 28ZM930.909 2.656H940.521C940.629 2.656 940.701 2.728 940.701 2.836V24.76C940.701 24.868 940.773 24.94 940.881 24.94H948.081C948.189 24.94 948.261 25.012 948.261 25.12V27.82C948.261 27.928 948.189 28 948.081 28H930.189C930.081 28 930.009 27.928 930.009 27.82V25.12C930.009 25.012 930.081 24.94 930.189 24.94H937.101C937.209 24.94 937.281 24.868 937.281 24.76V5.896C937.281 5.788 937.209 5.716 937.101 5.716H930.909C930.801 5.716 930.729 5.644 930.729 5.536V2.836C930.729 2.728 930.801 2.656 930.909 2.656ZM955.272 2.656H964.884C964.992 2.656 965.064 2.728 965.064 2.836V24.76C965.064 24.868 965.136 24.94 965.244 24.94H972.444C972.552 24.94 972.624 25.012 972.624 25.12V27.82C972.624 27.928 972.552 28 972.444 28H954.552C954.444 28 954.372 27.928 954.372 27.82V25.12C954.372 25.012 954.444 24.94 954.552 24.94H961.464C961.572 24.94 961.644 24.868 961.644 24.76V5.896C961.644 5.788 961.572 5.716 961.464 5.716H955.272C955.164 5.716 955.092 5.644 955.092 5.536V2.836C955.092 2.728 955.164 2.656 955.272 2.656ZM1020.99 18.892C1020.99 24.508 1017.68 28.36 1012.06 28.36C1006.41 28.36 1003.13 24.508 1003.13 18.892C1003.13 13.24 1006.41 9.424 1012.06 9.424C1017.68 9.424 1020.99 13.276 1020.99 18.892ZM1017.57 18.892C1017.57 15.148 1015.52 12.484 1012.06 12.484C1008.64 12.484 1006.55 15.148 1006.55 18.892C1006.55 22.636 1008.64 25.3 1012.06 25.3C1015.52 25.3 1017.57 22.636 1017.57 18.892ZM1044.92 2.836V5.536C1044.92 5.644 1044.85 5.716 1044.74 5.716H1039.49C1038.41 5.716 1037.79 6.4 1037.79 7.516V9.604C1037.79 9.712 1037.87 9.784 1037.97 9.784H1044.74C1044.85 9.784 1044.92 9.856 1044.92 9.964V12.304C1044.92 12.412 1044.85 12.484 1044.74 12.484H1037.97C1037.87 12.484 1037.79 12.556 1037.79 12.664V27.82C1037.79 27.928 1037.72 28 1037.61 28H1034.55C1034.45 28 1034.37 27.928 1034.37 27.82V12.664C1034.37 12.556 1034.3 12.484 1034.19 12.484H1029.19C1029.08 12.484 1029.01 12.412 1029.01 12.304V9.964C1029.01 9.856 1029.08 9.784 1029.19 9.784H1034.19C1034.3 9.784 1034.37 9.712 1034.37 9.604V6.904C1034.37 3.952 1036.1 2.584 1039.45 2.656H1044.74C1044.85 2.656 1044.92 2.728 1044.92 2.836ZM8.236 68.116C8.128 68.116 8.056 68.188 8.056 68.296C8.056 70.924 9.964 73.3 13.168 73.3C15.724 73.3 16.984 72.22 17.74 70.78C17.812 70.636 17.92 70.6 18.028 70.6H21.196C21.304 70.6 21.412 70.636 21.376 70.78C20.44 74.308 17.236 76.36 13.168 76.36C7.768 76.36 4.42 72.508 4.42 66.892C4.42 61.24 7.588 57.424 13.168 57.424C18.784 57.424 21.952 61.276 21.952 66.892C21.952 67.252 21.916 67.648 21.844 67.936C21.808 68.044 21.772 68.116 21.664 68.116H8.236ZM18.208 65.236C18.208 63.184 16.732 60.484 13.168 60.484C9.676 60.484 8.056 63.544 8.056 65.236C8.056 65.344 8.164 65.416 8.236 65.416H18.028C18.136 65.416 18.208 65.344 18.208 65.236ZM27.0913 57.784H29.7913C29.8993 57.784 29.9353 57.856 29.9713 57.964L30.3313 59.584C30.4033 59.8 30.6913 59.728 30.7633 59.584C31.4113 58.288 32.5633 57.424 34.3273 57.424C36.4873 57.424 37.2433 58.036 38.1073 59.584C38.2153 59.764 38.3953 59.8 38.5393 59.584C39.5473 58 40.5553 57.424 42.5353 57.424C47.2153 57.424 48.1873 60.52 48.1873 65.92V75.82C48.1873 75.928 48.1153 76 48.0073 76H44.9473C44.8393 76 44.7673 75.928 44.7673 75.82V65.92C44.7673 63.184 44.6593 60.484 41.8153 60.484C39.3313 60.484 39.2593 64.084 39.2593 65.92V75.82C39.2593 75.892 39.2233 75.928 39.1873 75.964C39.1513 76 39.1153 76 39.0793 76H36.0193H35.9833C35.9113 76 35.8753 75.964 35.8753 75.928C35.8393 75.892 35.8393 75.856 35.8393 75.82V65.92C35.8393 64.084 35.8393 60.484 33.2473 60.484C30.2233 60.484 30.3313 63.112 30.3313 65.92V75.82C30.3313 75.928 30.2593 76 30.1513 76H27.0913C26.9833 76 26.9113 75.928 26.9113 75.82V57.964C26.9113 57.856 26.9833 57.784 27.0913 57.784ZM54.0466 57.784H56.7466C56.8546 57.784 56.8906 57.856 56.9266 57.964L57.2866 59.44C57.3586 59.656 57.5746 59.584 57.6466 59.476C58.5826 58.432 60.9946 57.424 62.7946 57.424C68.0506 57.424 71.3626 61.276 71.3626 66.892C71.3626 72.508 68.0506 76.36 62.7946 76.36C60.2746 76.36 58.0786 74.812 57.6466 74.308C57.4666 74.092 57.2866 74.236 57.2866 74.38V82.948C57.2866 83.056 57.2146 83.128 57.1066 83.128H54.0466C53.9386 83.128 53.8666 83.056 53.8666 82.948V57.964C53.8666 57.856 53.9386 57.784 54.0466 57.784ZM67.9426 66.892C67.9426 63.148 65.8906 60.484 62.4346 60.484C59.1586 60.484 57.2866 63.148 57.2866 66.892C57.2866 70.636 59.1586 73.3 62.4346 73.3C65.8906 73.3 67.9426 70.636 67.9426 66.892ZM92.5938 73.12V75.82C92.5938 75.928 92.5218 76 92.4138 76H86.7618C83.7738 76.072 82.0458 74.704 82.0458 71.752V60.664C82.0458 60.556 81.9738 60.484 81.8658 60.484H76.8618C76.7538 60.484 76.6818 60.412 76.6818 60.304V57.964C76.6818 57.856 76.7538 57.784 76.8618 57.784H81.8658C81.9738 57.784 82.0458 57.712 82.0458 57.604V52.744C82.0458 52.636 82.1178 52.564 82.2258 52.564H85.2858C85.3938 52.564 85.4658 52.636 85.4658 52.744V57.604C85.4658 57.712 85.5378 57.784 85.6458 57.784H92.4138C92.5218 57.784 92.5938 57.856 92.5938 57.964V60.304C92.5938 60.412 92.5218 60.484 92.4138 60.484H85.6458C85.5378 60.484 85.4658 60.556 85.4658 60.664V71.14C85.4658 72.256 85.9698 72.94 87.4098 72.94H92.4138C92.5218 72.94 92.5938 73.012 92.5938 73.12ZM102.089 80.248C102.089 80.14 102.161 80.068 102.269 80.068H106.337C108.461 80.068 109.109 78.7 108.461 76.792L108.137 75.82L102.053 57.964C102.017 57.82 102.161 57.784 102.269 57.784H105.545C105.653 57.784 105.689 57.856 105.725 57.964L110.441 72.436C110.513 72.616 110.729 72.616 110.801 72.436L115.553 57.964C115.589 57.856 115.625 57.784 115.733 57.784H119.009C119.117 57.784 119.225 57.856 119.189 57.964L113.033 76L111.989 79.132C110.945 82.048 109.865 83.128 106.949 83.128H102.269C102.161 83.128 102.089 83.056 102.089 82.948V80.248ZM151.5 57.784H154.2C154.308 57.784 154.344 57.856 154.38 57.964L154.74 59.44C154.812 59.656 155.028 59.584 155.1 59.476C156.036 58.432 158.448 57.424 160.248 57.424C165.504 57.424 168.816 61.276 168.816 66.892C168.816 72.508 165.504 76.36 160.248 76.36C157.728 76.36 155.532 74.812 155.1 74.308C154.92 74.092 154.74 74.236 154.74 74.38V82.948C154.74 83.056 154.668 83.128 154.56 83.128H151.5C151.392 83.128 151.32 83.056 151.32 82.948V57.964C151.32 57.856 151.392 57.784 151.5 57.784ZM165.396 66.892C165.396 63.148 163.344 60.484 159.888 60.484C156.612 60.484 154.74 63.148 154.74 66.892C154.74 70.636 156.612 73.3 159.888 73.3C163.344 73.3 165.396 70.636 165.396 66.892ZM177.267 57.784H179.967C180.075 57.784 180.111 57.856 180.147 57.964L180.507 59.584C180.579 59.8 180.831 59.728 180.903 59.62C181.659 58.576 183.207 57.424 185.619 57.424C190.839 57.424 193.467 61.24 193.467 65.92V66.1C193.467 66.208 193.395 66.28 193.287 66.28H190.227C190.119 66.28 190.047 66.208 190.047 66.1V65.92C190.047 63.184 188.823 60.484 185.259 60.484C182.235 60.484 180.507 63.112 180.507 65.92V75.82C180.507 75.928 180.435 76 180.327 76H177.267C177.159 76 177.087 75.928 177.087 75.82V57.964C177.087 57.856 177.159 57.784 177.267 57.784ZM217.002 66.892C217.002 72.508 213.69 76.36 208.074 76.36C202.422 76.36 199.146 72.508 199.146 66.892C199.146 61.24 202.422 57.424 208.074 57.424C213.69 57.424 217.002 61.276 217.002 66.892ZM213.582 66.892C213.582 63.148 211.53 60.484 208.074 60.484C204.654 60.484 202.566 63.148 202.566 66.892C202.566 70.636 204.654 73.3 208.074 73.3C211.53 73.3 213.582 70.636 213.582 66.892ZM221.998 57.784H224.698C224.806 57.784 224.842 57.856 224.878 57.964L225.238 59.584C225.31 59.8 225.598 59.728 225.67 59.584C226.318 58.288 227.47 57.424 229.234 57.424C231.394 57.424 232.15 58.036 233.014 59.584C233.122 59.764 233.302 59.8 233.446 59.584C234.454 58 235.462 57.424 237.442 57.424C242.122 57.424 243.094 60.52 243.094 65.92V75.82C243.094 75.928 243.022 76 242.914 76H239.854C239.746 76 239.674 75.928 239.674 75.82V65.92C239.674 63.184 239.566 60.484 236.722 60.484C234.238 60.484 234.166 64.084 234.166 65.92V75.82C234.166 75.892 234.13 75.928 234.094 75.964C234.058 76 234.022 76 233.986 76H230.926H230.89C230.818 76 230.782 75.964 230.782 75.928C230.746 75.892 230.746 75.856 230.746 75.82V65.92C230.746 64.084 230.746 60.484 228.154 60.484C225.13 60.484 225.238 63.112 225.238 65.92V75.82C225.238 75.928 225.166 76 225.058 76H221.998C221.89 76 221.818 75.928 221.818 75.82V57.964C221.818 57.856 221.89 57.784 221.998 57.784ZM259.609 50.836V54.58C259.609 54.688 259.537 54.76 259.429 54.76H255.649C255.541 54.76 255.469 54.688 255.469 54.58V50.836C255.469 50.728 255.541 50.656 255.649 50.656H259.429C259.537 50.656 259.609 50.728 259.609 50.836ZM249.457 57.784H259.069C259.177 57.784 259.249 57.856 259.249 57.964V72.76C259.249 72.868 259.321 72.94 259.429 72.94H266.629C266.737 72.94 266.809 73.012 266.809 73.12V75.82C266.809 75.928 266.737 76 266.629 76H248.737C248.629 76 248.557 75.928 248.557 75.82V73.12C248.557 73.012 248.629 72.94 248.737 72.94H255.649C255.757 72.94 255.829 72.868 255.829 72.76V61.024C255.829 60.916 255.757 60.844 255.649 60.844H249.457C249.349 60.844 249.277 60.772 249.277 60.664V57.964C249.277 57.856 249.349 57.784 249.457 57.784ZM288.544 63.94H285.448C285.34 63.94 285.268 63.868 285.268 63.76C285.268 61.78 283.684 60.484 280.768 60.484C278.068 60.484 276.88 61.672 276.88 62.788C276.88 64.84 279.472 64.876 281.272 65.128C284.872 65.596 289.192 65.956 289.192 70.564C289.192 74.668 285.772 76.36 281.272 76.36C275.8 76.36 273.136 73.48 273.136 70.024C273.136 69.916 273.208 69.844 273.316 69.844H276.34C276.448 69.844 276.556 69.916 276.556 70.024C276.556 71.824 278.392 73.3 281.272 73.3C283.108 73.3 285.772 72.904 285.772 70.564C285.772 68.512 282.784 68.368 281.272 68.188C277.816 67.792 273.46 67.252 273.46 62.788C273.46 59.836 276.304 57.424 280.768 57.424C285.196 57.424 288.688 59.512 288.688 63.76C288.688 63.868 288.652 63.94 288.544 63.94ZM300.595 68.116C300.487 68.116 300.415 68.188 300.415 68.296C300.415 70.924 302.323 73.3 305.527 73.3C308.083 73.3 309.343 72.22 310.099 70.78C310.171 70.636 310.279 70.6 310.387 70.6H313.555C313.663 70.6 313.771 70.636 313.735 70.78C312.799 74.308 309.595 76.36 305.527 76.36C300.127 76.36 296.779 72.508 296.779 66.892C296.779 61.24 299.947 57.424 305.527 57.424C311.143 57.424 314.311 61.276 314.311 66.892C314.311 67.252 314.275 67.648 314.203 67.936C314.167 68.044 314.131 68.116 314.023 68.116H300.595ZM310.567 65.236C310.567 63.184 309.091 60.484 305.527 60.484C302.035 60.484 300.415 63.544 300.415 65.236C300.415 65.344 300.523 65.416 300.595 65.416H310.387C310.495 65.416 310.567 65.344 310.567 65.236ZM337.271 63.94H334.175C334.067 63.94 333.995 63.868 333.995 63.76C333.995 61.78 332.411 60.484 329.495 60.484C326.795 60.484 325.607 61.672 325.607 62.788C325.607 64.84 328.199 64.876 329.999 65.128C333.599 65.596 337.919 65.956 337.919 70.564C337.919 74.668 334.499 76.36 329.999 76.36C324.527 76.36 321.863 73.48 321.863 70.024C321.863 69.916 321.935 69.844 322.043 69.844H325.067C325.175 69.844 325.283 69.916 325.283 70.024C325.283 71.824 327.119 73.3 329.999 73.3C331.835 73.3 334.499 72.904 334.499 70.564C334.499 68.512 331.511 68.368 329.999 68.188C326.543 67.792 322.187 67.252 322.187 62.788C322.187 59.836 325.031 57.424 329.495 57.424C333.923 57.424 337.415 59.512 337.415 63.76C337.415 63.868 337.379 63.94 337.271 63.94ZM387.761 73.12V75.82C387.761 75.928 387.689 76 387.581 76H386.897C384.845 76 383.549 75.316 383.081 74.164C383.009 73.984 382.829 74.02 382.757 74.092C381.893 74.956 379.841 76.36 376.529 76.36C372.029 76.36 369.509 74.02 369.509 70.6C369.509 67.468 372.281 65.128 377.249 65.128H381.101C381.893 65.128 382.289 64.444 382.289 63.94C382.289 62.464 382.109 60.484 377.825 60.484C374.729 60.484 373.505 61.924 373.505 63.76C373.505 63.868 373.433 63.94 373.325 63.94H370.265C370.157 63.94 370.085 63.868 370.085 63.76C370.085 59.512 373.757 57.424 377.825 57.424C382.793 57.424 385.709 59.548 385.709 63.94V71.752C385.709 72.292 386.141 72.94 386.897 72.94H387.581C387.689 72.94 387.761 73.012 387.761 73.12ZM382.289 68.512V68.008C382.289 67.9 382.217 67.828 382.109 67.828H377.249C373.973 67.828 372.929 69.34 372.929 70.6C372.929 71.896 374.189 73.3 376.529 73.3C380.885 73.3 382.289 70.708 382.289 68.512ZM395.349 57.784H398.049C398.157 57.784 398.193 57.856 398.229 57.964L398.589 59.584C398.661 59.8 398.913 59.728 398.985 59.62C399.741 58.576 401.289 57.424 403.701 57.424C408.921 57.424 411.549 61.24 411.549 65.92V75.82C411.549 75.928 411.477 76 411.369 76H408.309C408.201 76 408.129 75.928 408.129 75.82V65.92C408.129 63.184 406.905 60.484 403.341 60.484C400.316 60.484 398.589 63.112 398.589 65.92V75.82C398.589 75.928 398.517 76 398.409 76H395.349C395.241 76 395.169 75.928 395.169 75.82V57.964C395.169 57.856 395.241 57.784 395.349 57.784ZM434.472 76H431.772C431.664 76 431.628 75.928 431.592 75.82L431.232 74.38C431.16 74.164 430.98 74.2 430.872 74.308C429.9 75.28 427.524 76.36 425.724 76.36C420.468 76.36 417.156 72.508 417.156 66.892C417.156 61.276 420.468 57.424 425.724 57.424C428.244 57.424 430.44 58.972 430.872 59.476C431.052 59.692 431.232 59.548 431.232 59.404V50.836C431.232 50.728 431.304 50.656 431.412 50.656H434.472C434.58 50.656 434.652 50.728 434.652 50.836V75.82C434.652 75.928 434.58 76 434.472 76ZM420.576 66.892C420.576 70.636 422.628 73.3 426.084 73.3C429.36 73.3 431.232 70.636 431.232 66.892C431.232 63.148 429.36 60.484 426.084 60.484C422.628 60.484 420.576 63.148 420.576 66.892ZM483.378 76H480.678C480.57 76 480.534 75.928 480.498 75.82L480.138 74.2C480.066 73.984 479.814 74.056 479.742 74.164C479.094 75.1 477.33 76.36 475.026 76.36C469.086 76.36 467.178 72.544 467.178 67.864V57.964C467.178 57.856 467.25 57.784 467.358 57.784H470.418C470.526 57.784 470.598 57.856 470.598 57.964V67.864C470.598 70.6 471.822 73.3 475.386 73.3C478.41 73.3 480.138 70.672 480.138 67.864V57.964C480.138 57.856 480.21 57.784 480.318 57.784H483.378C483.486 57.784 483.558 57.856 483.558 57.964V75.82C483.558 75.928 483.486 76 483.378 76ZM492.802 57.784H495.502C495.61 57.784 495.646 57.856 495.682 57.964L496.042 59.584C496.114 59.8 496.366 59.728 496.438 59.62C497.194 58.576 498.742 57.424 501.154 57.424C506.374 57.424 509.002 61.24 509.002 65.92V75.82C509.002 75.928 508.93 76 508.822 76H505.762C505.654 76 505.582 75.928 505.582 75.82V65.92C505.582 63.184 504.358 60.484 500.794 60.484C497.77 60.484 496.042 63.112 496.042 65.92V75.82C496.042 75.928 495.97 76 495.862 76H492.802C492.694 76 492.622 75.928 492.622 75.82V57.964C492.622 57.856 492.694 57.784 492.802 57.784ZM527.605 50.836V54.58C527.605 54.688 527.533 54.76 527.425 54.76H523.645C523.537 54.76 523.465 54.688 523.465 54.58V50.836C523.465 50.728 523.537 50.656 523.645 50.656H527.425C527.533 50.656 527.605 50.728 527.605 50.836ZM517.453 57.784H527.065C527.173 57.784 527.245 57.856 527.245 57.964V72.76C527.245 72.868 527.317 72.94 527.425 72.94H534.625C534.733 72.94 534.805 73.012 534.805 73.12V75.82C534.805 75.928 534.733 76 534.625 76H516.733C516.625 76 516.553 75.928 516.553 75.82V73.12C516.553 73.012 516.625 72.94 516.733 72.94H523.645C523.753 72.94 523.825 72.868 523.825 72.76V61.024C523.825 60.916 523.753 60.844 523.645 60.844H517.453C517.345 60.844 517.273 60.772 517.273 60.664V57.964C517.273 57.856 517.345 57.784 517.453 57.784ZM541.528 57.784H544.228C544.336 57.784 544.372 57.856 544.408 57.964L544.768 59.584C544.84 59.8 545.092 59.728 545.164 59.62C545.92 58.576 547.468 57.424 549.88 57.424C555.1 57.424 557.728 61.24 557.728 65.92V75.82C557.728 75.928 557.656 76 557.548 76H554.488C554.38 76 554.308 75.928 554.308 75.82V65.92C554.308 63.184 553.084 60.484 549.52 60.484C546.496 60.484 544.768 63.112 544.768 65.92V75.82C544.768 75.928 544.696 76 544.588 76H541.528C541.42 76 541.348 75.928 541.348 75.82V57.964C541.348 57.856 541.42 57.784 541.528 57.784ZM580.903 63.94H577.807C577.699 63.94 577.627 63.868 577.627 63.76C577.627 61.78 576.043 60.484 573.127 60.484C570.427 60.484 569.239 61.672 569.239 62.788C569.239 64.84 571.831 64.876 573.631 65.128C577.231 65.596 581.551 65.956 581.551 70.564C581.551 74.668 578.131 76.36 573.631 76.36C568.159 76.36 565.495 73.48 565.495 70.024C565.495 69.916 565.567 69.844 565.675 69.844H568.699C568.807 69.844 568.915 69.916 568.915 70.024C568.915 71.824 570.751 73.3 573.631 73.3C575.467 73.3 578.131 72.904 578.131 70.564C578.131 68.512 575.143 68.368 573.631 68.188C570.175 67.792 565.819 67.252 565.819 62.788C565.819 59.836 568.663 57.424 573.127 57.424C577.555 57.424 581.047 59.512 581.047 63.76C581.047 63.868 581.011 63.94 580.903 63.94ZM590.039 57.784H592.739C592.847 57.784 592.883 57.856 592.919 57.964L593.279 59.44C593.351 59.656 593.567 59.584 593.639 59.476C594.575 58.432 596.987 57.424 598.787 57.424C604.043 57.424 607.355 61.276 607.355 66.892C607.355 72.508 604.043 76.36 598.787 76.36C596.267 76.36 594.071 74.812 593.639 74.308C593.459 74.092 593.279 74.236 593.279 74.38V82.948C593.279 83.056 593.207 83.128 593.099 83.128H590.039C589.931 83.128 589.859 83.056 589.859 82.948V57.964C589.859 57.856 589.931 57.784 590.039 57.784ZM603.935 66.892C603.935 63.148 601.883 60.484 598.427 60.484C595.151 60.484 593.279 63.148 593.279 66.892C593.279 70.636 595.151 73.3 598.427 73.3C601.883 73.3 603.935 70.636 603.935 66.892ZM625.058 50.836V54.58C625.058 54.688 624.986 54.76 624.878 54.76H621.098C620.99 54.76 620.918 54.688 620.918 54.58V50.836C620.918 50.728 620.99 50.656 621.098 50.656H624.878C624.986 50.656 625.058 50.728 625.058 50.836ZM614.906 57.784H624.518C624.626 57.784 624.698 57.856 624.698 57.964V72.76C624.698 72.868 624.77 72.94 624.878 72.94H632.078C632.186 72.94 632.258 73.012 632.258 73.12V75.82C632.258 75.928 632.186 76 632.078 76H614.186C614.078 76 614.006 75.928 614.006 75.82V73.12C614.006 73.012 614.078 72.94 614.186 72.94H621.098C621.206 72.94 621.278 72.868 621.278 72.76V61.024C621.278 60.916 621.206 60.844 621.098 60.844H614.906C614.798 60.844 614.726 60.772 614.726 60.664V57.964C614.726 57.856 614.798 57.784 614.906 57.784ZM640.169 57.784H642.869C642.977 57.784 643.013 57.856 643.049 57.964L643.409 59.584C643.481 59.8 643.733 59.728 643.805 59.62C644.561 58.576 646.109 57.424 648.521 57.424C653.741 57.424 656.369 61.24 656.369 65.92V66.1C656.369 66.208 656.297 66.28 656.189 66.28H653.129C653.021 66.28 652.949 66.208 652.949 66.1V65.92C652.949 63.184 651.725 60.484 648.161 60.484C645.137 60.484 643.409 63.112 643.409 65.92V75.82C643.409 75.928 643.337 76 643.229 76H640.169C640.061 76 639.989 75.928 639.989 75.82V57.964C639.989 57.856 640.061 57.784 640.169 57.784ZM666.045 68.116C665.937 68.116 665.865 68.188 665.865 68.296C665.865 70.924 667.773 73.3 670.977 73.3C673.533 73.3 674.793 72.22 675.549 70.78C675.621 70.636 675.729 70.6 675.837 70.6H679.005C679.113 70.6 679.221 70.636 679.185 70.78C678.249 74.308 675.045 76.36 670.977 76.36C665.577 76.36 662.229 72.508 662.229 66.892C662.229 61.24 665.397 57.424 670.977 57.424C676.593 57.424 679.761 61.276 679.761 66.892C679.761 67.252 679.725 67.648 679.653 67.936C679.617 68.044 679.581 68.116 679.473 68.116H666.045ZM676.017 65.236C676.017 63.184 674.541 60.484 670.977 60.484C667.485 60.484 665.865 63.544 665.865 65.236C665.865 65.344 665.973 65.416 666.045 65.416H675.837C675.945 65.416 676.017 65.344 676.017 65.236ZM702.468 76H699.768C699.66 76 699.624 75.928 699.588 75.82L699.228 74.38C699.156 74.164 698.976 74.2 698.868 74.308C697.896 75.28 695.52 76.36 693.72 76.36C688.464 76.36 685.152 72.508 685.152 66.892C685.152 61.276 688.464 57.424 693.72 57.424C696.24 57.424 698.436 58.972 698.868 59.476C699.048 59.692 699.228 59.548 699.228 59.404V50.836C699.228 50.728 699.3 50.656 699.408 50.656H702.468C702.576 50.656 702.648 50.728 702.648 50.836V75.82C702.648 75.928 702.576 76 702.468 76ZM688.572 66.892C688.572 70.636 690.624 73.3 694.08 73.3C697.356 73.3 699.228 70.636 699.228 66.892C699.228 63.148 697.356 60.484 694.08 60.484C690.624 60.484 688.572 63.148 688.572 66.892ZM752.598 63.94H749.394C749.286 63.94 749.214 63.868 749.178 63.76C748.386 61.636 746.658 60.484 744.21 60.484C740.79 60.484 738.738 63.148 738.738 66.892C738.738 70.636 740.79 73.3 744.21 73.3C746.658 73.3 748.386 72.148 749.178 70.024C749.214 69.916 749.286 69.844 749.394 69.844H752.598C752.706 69.844 752.814 69.88 752.778 70.024C751.77 74.02 748.782 76.36 744.21 76.36C738.558 76.36 735.318 72.508 735.318 66.892C735.318 61.24 738.558 57.424 744.21 57.424C748.782 57.424 751.806 59.8 752.778 63.76C752.814 63.904 752.706 63.94 752.598 63.94ZM777.358 66.892C777.358 72.508 774.046 76.36 768.43 76.36C762.778 76.36 759.502 72.508 759.502 66.892C759.502 61.24 762.778 57.424 768.43 57.424C774.046 57.424 777.358 61.276 777.358 66.892ZM773.938 66.892C773.938 63.148 771.886 60.484 768.43 60.484C765.01 60.484 762.922 63.148 762.922 66.892C762.922 70.636 765.01 73.3 768.43 73.3C771.886 73.3 773.938 70.636 773.938 66.892ZM785.161 57.784H787.861C787.969 57.784 788.005 57.856 788.041 57.964L788.401 59.584C788.473 59.8 788.725 59.728 788.797 59.62C789.553 58.576 791.101 57.424 793.513 57.424C798.733 57.424 801.361 61.24 801.361 65.92V75.82C801.361 75.928 801.289 76 801.181 76H798.121C798.013 76 797.941 75.928 797.941 75.82V65.92C797.941 63.184 796.717 60.484 793.153 60.484C790.129 60.484 788.401 63.112 788.401 65.92V75.82C788.401 75.928 788.329 76 788.221 76H785.161C785.053 76 784.981 75.928 784.981 75.82V57.964C784.981 57.856 785.053 57.784 785.161 57.784ZM823.492 73.12V75.82C823.492 75.928 823.42 76 823.312 76H817.66C814.672 76.072 812.944 74.704 812.944 71.752V60.664C812.944 60.556 812.872 60.484 812.764 60.484H807.76C807.652 60.484 807.58 60.412 807.58 60.304V57.964C807.58 57.856 807.652 57.784 807.76 57.784H812.764C812.872 57.784 812.944 57.712 812.944 57.604V52.744C812.944 52.636 813.016 52.564 813.124 52.564H816.184C816.292 52.564 816.364 52.636 816.364 52.744V57.604C816.364 57.712 816.436 57.784 816.544 57.784H823.312C823.42 57.784 823.492 57.856 823.492 57.964V60.304C823.492 60.412 823.42 60.484 823.312 60.484H816.544C816.436 60.484 816.364 60.556 816.364 60.664V71.14C816.364 72.256 816.868 72.94 818.308 72.94H823.312C823.42 72.94 823.492 73.012 823.492 73.12ZM836.588 68.116C836.48 68.116 836.408 68.188 836.408 68.296C836.408 70.924 838.316 73.3 841.52 73.3C844.076 73.3 845.336 72.22 846.092 70.78C846.164 70.636 846.272 70.6 846.38 70.6H849.548C849.656 70.6 849.764 70.636 849.728 70.78C848.792 74.308 845.588 76.36 841.52 76.36C836.12 76.36 832.772 72.508 832.772 66.892C832.772 61.24 835.94 57.424 841.52 57.424C847.136 57.424 850.304 61.276 850.304 66.892C850.304 67.252 850.268 67.648 850.196 67.936C850.16 68.044 850.124 68.116 850.016 68.116H836.588ZM846.56 65.236C846.56 63.184 845.084 60.484 841.52 60.484C838.028 60.484 836.408 63.544 836.408 65.236C836.408 65.344 836.516 65.416 836.588 65.416H846.38C846.488 65.416 846.56 65.344 846.56 65.236ZM858.251 57.784H860.951C861.059 57.784 861.095 57.856 861.131 57.964L861.491 59.584C861.563 59.8 861.815 59.728 861.887 59.62C862.643 58.576 864.191 57.424 866.603 57.424C871.823 57.424 874.451 61.24 874.451 65.92V75.82C874.451 75.928 874.379 76 874.271 76H871.211C871.103 76 871.031 75.928 871.031 75.82V65.92C871.031 63.184 869.807 60.484 866.243 60.484C863.219 60.484 861.491 63.112 861.491 65.92V75.82C861.491 75.928 861.419 76 861.311 76H858.251C858.143 76 858.071 75.928 858.071 75.82V57.964C858.071 57.856 858.143 57.784 858.251 57.784ZM896.582 73.12V75.82C896.582 75.928 896.51 76 896.402 76H890.75C887.762 76.072 886.034 74.704 886.034 71.752V60.664C886.034 60.556 885.962 60.484 885.854 60.484H880.85C880.742 60.484 880.67 60.412 880.67 60.304V57.964C880.67 57.856 880.742 57.784 880.85 57.784H885.854C885.962 57.784 886.034 57.712 886.034 57.604V52.744C886.034 52.636 886.106 52.564 886.214 52.564H889.274C889.382 52.564 889.454 52.636 889.454 52.744V57.604C889.454 57.712 889.526 57.784 889.634 57.784H896.402C896.51 57.784 896.582 57.856 896.582 57.964V60.304C896.582 60.412 896.51 60.484 896.402 60.484H889.634C889.526 60.484 889.454 60.556 889.454 60.664V71.14C889.454 72.256 889.958 72.94 891.398 72.94H896.402C896.51 72.94 896.582 73.012 896.582 73.12ZM916.769 76H912.449C912.341 76 912.269 75.928 912.269 75.82V71.428C912.269 71.32 912.341 71.248 912.449 71.248H916.769C916.877 71.248 916.949 71.32 916.949 71.428V75.82C916.949 75.928 916.877 76 916.769 76ZM15.868 146.836L18.352 168.4C18.388 168.616 18.676 168.616 18.712 168.4L20.872 146.836C20.908 146.728 20.944 146.656 21.052 146.656H24.148C24.256 146.656 24.4 146.692 24.364 146.836L21.376 171.82C21.34 171.928 21.268 172 21.16 172H16.048C15.94 172 15.904 171.928 15.868 171.82L13.384 150.292C13.348 150.112 13.06 150.112 13.024 150.292L10.54 171.82C10.504 171.928 10.468 172 10.36 172H5.248C5.14 172 5.068 171.928 5.032 171.82L2.044 146.836C2.008 146.692 2.152 146.656 2.26 146.656H5.356C5.464 146.656 5.5 146.728 5.536 146.836L7.696 168.4C7.732 168.616 8.02 168.616 8.056 168.4L10.54 146.836C10.576 146.728 10.612 146.656 10.72 146.656H15.688C15.796 146.656 15.832 146.728 15.868 146.836ZM29.8993 146.656H32.9593C33.0673 146.656 33.1393 146.728 33.1393 146.836V155.548C33.1393 155.728 33.3913 155.8 33.5353 155.62C34.6153 154.252 36.3793 153.424 38.2513 153.424C43.8313 153.424 46.0993 157.24 46.0993 161.92V171.82C46.0993 171.928 46.0273 172 45.9193 172H42.8593C42.7513 172 42.6793 171.928 42.6793 171.82V161.92C42.6793 159.184 41.4553 156.484 37.8913 156.484C34.8673 156.484 33.1393 159.112 33.1393 161.92V171.82C33.1393 171.928 33.0673 172 32.9593 172H29.8993C29.7913 172 29.7193 171.928 29.7193 171.82V146.836C29.7193 146.728 29.7913 146.656 29.8993 146.656ZM64.7026 146.836V150.58C64.7026 150.688 64.6306 150.76 64.5226 150.76H60.7426C60.6346 150.76 60.5626 150.688 60.5626 150.58V146.836C60.5626 146.728 60.6346 146.656 60.7426 146.656H64.5226C64.6306 146.656 64.7026 146.728 64.7026 146.836ZM54.5506 153.784H64.1626C64.2706 153.784 64.3426 153.856 64.3426 153.964V168.76C64.3426 168.868 64.4146 168.94 64.5226 168.94H71.7226C71.8306 168.94 71.9026 169.012 71.9026 169.12V171.82C71.9026 171.928 71.8306 172 71.7226 172H53.8306C53.7226 172 53.6506 171.928 53.6506 171.82V169.12C53.6506 169.012 53.7226 168.94 53.8306 168.94H60.7426C60.8506 168.94 60.9226 168.868 60.9226 168.76V157.024C60.9226 156.916 60.8506 156.844 60.7426 156.844H54.5506C54.4426 156.844 54.3706 156.772 54.3706 156.664V153.964C54.3706 153.856 54.4426 153.784 54.5506 153.784ZM78.1938 146.656H87.8058C87.9138 146.656 87.9858 146.728 87.9858 146.836V168.76C87.9858 168.868 88.0578 168.94 88.1658 168.94H95.3658C95.4738 168.94 95.5458 169.012 95.5458 169.12V171.82C95.5458 171.928 95.4738 172 95.3658 172H77.4738C77.3658 172 77.2938 171.928 77.2938 171.82V169.12C77.2938 169.012 77.3658 168.94 77.4738 168.94H84.3858C84.4938 168.94 84.5658 168.868 84.5658 168.76V149.896C84.5658 149.788 84.4938 149.716 84.3858 149.716H78.1938C78.0858 149.716 78.0138 149.644 78.0138 149.536V146.836C78.0138 146.728 78.0858 146.656 78.1938 146.656ZM105.689 164.116C105.581 164.116 105.509 164.188 105.509 164.296C105.509 166.924 107.417 169.3 110.621 169.3C113.177 169.3 114.437 168.22 115.193 166.78C115.265 166.636 115.373 166.6 115.481 166.6H118.649C118.757 166.6 118.865 166.636 118.829 166.78C117.893 170.308 114.689 172.36 110.621 172.36C105.221 172.36 101.873 168.508 101.873 162.892C101.873 157.24 105.041 153.424 110.621 153.424C116.237 153.424 119.405 157.276 119.405 162.892C119.405 163.252 119.369 163.648 119.297 163.936C119.261 164.044 119.225 164.116 119.117 164.116H105.689ZM115.661 161.236C115.661 159.184 114.185 156.484 110.621 156.484C107.129 156.484 105.509 159.544 105.509 161.236C105.509 161.344 105.617 161.416 105.689 161.416H115.481C115.589 161.416 115.661 161.344 115.661 161.236ZM154.416 164.116C154.308 164.116 154.236 164.188 154.236 164.296C154.236 166.924 156.144 169.3 159.348 169.3C161.904 169.3 163.164 168.22 163.92 166.78C163.992 166.636 164.1 166.6 164.208 166.6H167.376C167.484 166.6 167.592 166.636 167.556 166.78C166.62 170.308 163.416 172.36 159.348 172.36C153.948 172.36 150.6 168.508 150.6 162.892C150.6 157.24 153.768 153.424 159.348 153.424C164.964 153.424 168.132 157.276 168.132 162.892C168.132 163.252 168.096 163.648 168.024 163.936C167.988 164.044 167.952 164.116 167.844 164.116H154.416ZM164.388 161.236C164.388 159.184 162.912 156.484 159.348 156.484C155.856 156.484 154.236 159.544 154.236 161.236C154.236 161.344 154.344 161.416 154.416 161.416H164.208C164.316 161.416 164.388 161.344 164.388 161.236ZM186.015 172H181.443C181.335 172 181.263 171.928 181.227 171.82L175.143 153.964C175.107 153.82 175.251 153.784 175.359 153.784H178.635C178.743 153.784 178.779 153.856 178.815 153.964L183.531 168.436C183.603 168.616 183.819 168.616 183.891 168.436L188.643 153.964C188.679 153.856 188.715 153.784 188.823 153.784H192.099C192.207 153.784 192.315 153.856 192.279 153.964L186.195 171.82C186.159 171.928 186.123 172 186.015 172ZM203.142 164.116C203.034 164.116 202.962 164.188 202.962 164.296C202.962 166.924 204.87 169.3 208.074 169.3C210.63 169.3 211.89 168.22 212.646 166.78C212.718 166.636 212.826 166.6 212.934 166.6H216.102C216.21 166.6 216.318 166.636 216.282 166.78C215.346 170.308 212.142 172.36 208.074 172.36C202.674 172.36 199.326 168.508 199.326 162.892C199.326 157.24 202.494 153.424 208.074 153.424C213.69 153.424 216.858 157.276 216.858 162.892C216.858 163.252 216.822 163.648 216.75 163.936C216.714 164.044 216.678 164.116 216.57 164.116H203.142ZM213.114 161.236C213.114 159.184 211.638 156.484 208.074 156.484C204.582 156.484 202.962 159.544 202.962 161.236C202.962 161.344 203.07 161.416 203.142 161.416H212.934C213.042 161.416 213.114 161.344 213.114 161.236ZM225.994 153.784H228.694C228.802 153.784 228.838 153.856 228.874 153.964L229.234 155.584C229.306 155.8 229.558 155.728 229.63 155.62C230.386 154.576 231.934 153.424 234.346 153.424C239.566 153.424 242.194 157.24 242.194 161.92V162.1C242.194 162.208 242.122 162.28 242.014 162.28H238.954C238.846 162.28 238.774 162.208 238.774 162.1V161.92C238.774 159.184 237.55 156.484 233.986 156.484C230.962 156.484 229.234 159.112 229.234 161.92V171.82C229.234 171.928 229.162 172 229.054 172H225.994C225.886 172 225.814 171.928 225.814 171.82V153.964C225.814 153.856 225.886 153.784 225.994 153.784ZM248.269 176.248C248.269 176.14 248.341 176.068 248.449 176.068H252.517C254.641 176.068 255.289 174.7 254.641 172.792L254.317 171.82L248.233 153.964C248.197 153.82 248.341 153.784 248.449 153.784H251.725C251.833 153.784 251.869 153.856 251.905 153.964L256.621 168.436C256.693 168.616 256.909 168.616 256.981 168.436L261.733 153.964C261.769 153.856 261.805 153.784 261.913 153.784H265.189C265.297 153.784 265.405 153.856 265.369 153.964L259.213 172L258.169 175.132C257.125 178.048 256.045 179.128 253.129 179.128H248.449C248.341 179.128 248.269 179.056 248.269 178.948V176.248ZM290.092 162.892C290.092 168.508 286.78 172.36 281.164 172.36C275.512 172.36 272.236 168.508 272.236 162.892C272.236 157.24 275.512 153.424 281.164 153.424C286.78 153.424 290.092 157.276 290.092 162.892ZM286.672 162.892C286.672 159.148 284.62 156.484 281.164 156.484C277.744 156.484 275.656 159.148 275.656 162.892C275.656 166.636 277.744 169.3 281.164 169.3C284.62 169.3 286.672 166.636 286.672 162.892ZM297.895 153.784H300.595C300.703 153.784 300.739 153.856 300.775 153.964L301.135 155.584C301.207 155.8 301.459 155.728 301.531 155.62C302.287 154.576 303.835 153.424 306.247 153.424C311.467 153.424 314.095 157.24 314.095 161.92V171.82C314.095 171.928 314.023 172 313.915 172H310.855C310.747 172 310.675 171.928 310.675 171.82V161.92C310.675 159.184 309.451 156.484 305.887 156.484C302.863 156.484 301.135 159.112 301.135 161.92V171.82C301.135 171.928 301.063 172 300.955 172H297.895C297.787 172 297.715 171.928 297.715 171.82V153.964C297.715 153.856 297.787 153.784 297.895 153.784ZM324.959 164.116C324.851 164.116 324.779 164.188 324.779 164.296C324.779 166.924 326.687 169.3 329.891 169.3C332.447 169.3 333.707 168.22 334.463 166.78C334.535 166.636 334.643 166.6 334.751 166.6H337.919C338.027 166.6 338.135 166.636 338.099 166.78C337.163 170.308 333.959 172.36 329.891 172.36C324.491 172.36 321.143 168.508 321.143 162.892C321.143 157.24 324.311 153.424 329.891 153.424C335.507 153.424 338.675 157.276 338.675 162.892C338.675 163.252 338.639 163.648 338.567 163.936C338.531 164.044 338.495 164.116 338.387 164.116H324.959ZM334.931 161.236C334.931 159.184 333.455 156.484 329.891 156.484C326.399 156.484 324.779 159.544 324.779 161.236C324.779 161.344 324.887 161.416 324.959 161.416H334.751C334.859 161.416 334.931 161.344 334.931 161.236ZM370.769 153.784H373.469C373.577 153.784 373.613 153.856 373.649 153.964L374.009 155.44C374.081 155.656 374.297 155.584 374.369 155.476C375.305 154.432 377.717 153.424 379.517 153.424C384.773 153.424 388.085 157.276 388.085 162.892C388.085 168.508 384.773 172.36 379.517 172.36C376.997 172.36 374.801 170.812 374.369 170.308C374.189 170.092 374.009 170.236 374.009 170.38V178.948C374.009 179.056 373.937 179.128 373.829 179.128H370.769C370.661 179.128 370.589 179.056 370.589 178.948V153.964C370.589 153.856 370.661 153.784 370.769 153.784ZM384.665 162.892C384.665 159.148 382.613 156.484 379.157 156.484C375.881 156.484 374.009 159.148 374.009 162.892C374.009 166.636 375.881 169.3 379.157 169.3C382.613 169.3 384.665 166.636 384.665 162.892ZM405.789 146.836V150.58C405.789 150.688 405.717 150.76 405.609 150.76H401.829C401.721 150.76 401.649 150.688 401.649 150.58V146.836C401.649 146.728 401.721 146.656 401.829 146.656H405.609C405.717 146.656 405.789 146.728 405.789 146.836ZM395.637 153.784H405.249C405.357 153.784 405.429 153.856 405.429 153.964V168.76C405.429 168.868 405.501 168.94 405.609 168.94H412.809C412.917 168.94 412.989 169.012 412.989 169.12V171.82C412.989 171.928 412.917 172 412.809 172H394.917C394.809 172 394.737 171.928 394.737 171.82V169.12C394.737 169.012 394.809 168.94 394.917 168.94H401.829C401.937 168.94 402.009 168.868 402.009 168.76V157.024C402.009 156.916 401.937 156.844 401.829 156.844H395.637C395.529 156.844 395.457 156.772 395.457 156.664V153.964C395.457 153.856 395.529 153.784 395.637 153.784ZM429.648 172H425.076C424.968 172 424.896 171.928 424.86 171.82L418.776 153.964C418.74 153.82 418.884 153.784 418.992 153.784H422.268C422.376 153.784 422.412 153.856 422.448 153.964L427.164 168.436C427.236 168.616 427.452 168.616 427.524 168.436L432.276 153.964C432.312 153.856 432.348 153.784 432.456 153.784H435.732C435.84 153.784 435.948 153.856 435.912 153.964L429.828 171.82C429.792 171.928 429.756 172 429.648 172ZM460.635 162.892C460.635 168.508 457.323 172.36 451.707 172.36C446.055 172.36 442.779 168.508 442.779 162.892C442.779 157.24 446.055 153.424 451.707 153.424C457.323 153.424 460.635 157.276 460.635 162.892ZM457.215 162.892C457.215 159.148 455.163 156.484 451.707 156.484C448.287 156.484 446.199 159.148 446.199 162.892C446.199 166.636 448.287 169.3 451.707 169.3C455.163 169.3 457.215 166.636 457.215 162.892ZM482.406 169.12V171.82C482.406 171.928 482.334 172 482.226 172H476.574C473.586 172.072 471.858 170.704 471.858 167.752V156.664C471.858 156.556 471.786 156.484 471.678 156.484H466.674C466.566 156.484 466.494 156.412 466.494 156.304V153.964C466.494 153.856 466.566 153.784 466.674 153.784H471.678C471.786 153.784 471.858 153.712 471.858 153.604V148.744C471.858 148.636 471.93 148.564 472.038 148.564H475.098C475.206 148.564 475.278 148.636 475.278 148.744V153.604C475.278 153.712 475.35 153.784 475.458 153.784H482.226C482.334 153.784 482.406 153.856 482.406 153.964V156.304C482.406 156.412 482.334 156.484 482.226 156.484H475.458C475.35 156.484 475.278 156.556 475.278 156.664V167.14C475.278 168.256 475.782 168.94 477.222 168.94H482.226C482.334 168.94 482.406 169.012 482.406 169.12ZM507.814 159.94H504.718C504.61 159.94 504.538 159.868 504.538 159.76C504.538 157.78 502.954 156.484 500.038 156.484C497.338 156.484 496.15 157.672 496.15 158.788C496.15 160.84 498.742 160.876 500.542 161.128C504.142 161.596 508.462 161.956 508.462 166.564C508.462 170.668 505.042 172.36 500.542 172.36C495.07 172.36 492.406 169.48 492.406 166.024C492.406 165.916 492.478 165.844 492.586 165.844H495.61C495.718 165.844 495.826 165.916 495.826 166.024C495.826 167.824 497.662 169.3 500.542 169.3C502.378 169.3 505.042 168.904 505.042 166.564C505.042 164.512 502.054 164.368 500.542 164.188C497.086 163.792 492.73 163.252 492.73 158.788C492.73 155.836 495.574 153.424 500.038 153.424C504.466 153.424 507.958 155.512 507.958 159.76C507.958 159.868 507.922 159.94 507.814 159.94ZM555.496 169.12V171.82C555.496 171.928 555.424 172 555.316 172H549.664C546.676 172.072 544.948 170.704 544.948 167.752V156.664C544.948 156.556 544.876 156.484 544.768 156.484H539.764C539.656 156.484 539.584 156.412 539.584 156.304V153.964C539.584 153.856 539.656 153.784 539.764 153.784H544.768C544.876 153.784 544.948 153.712 544.948 153.604V148.744C544.948 148.636 545.02 148.564 545.128 148.564H548.188C548.296 148.564 548.368 148.636 548.368 148.744V153.604C548.368 153.712 548.44 153.784 548.548 153.784H555.316C555.424 153.784 555.496 153.856 555.496 153.964V156.304C555.496 156.412 555.424 156.484 555.316 156.484H548.548C548.44 156.484 548.368 156.556 548.368 156.664V167.14C548.368 168.256 548.872 168.94 550.312 168.94H555.316C555.424 168.94 555.496 169.012 555.496 169.12ZM582.451 162.892C582.451 168.508 579.139 172.36 573.523 172.36C567.871 172.36 564.595 168.508 564.595 162.892C564.595 157.24 567.871 153.424 573.523 153.424C579.139 153.424 582.451 157.276 582.451 162.892ZM579.031 162.892C579.031 159.148 576.979 156.484 573.523 156.484C570.103 156.484 568.015 159.148 568.015 162.892C568.015 166.636 570.103 169.3 573.523 169.3C576.979 169.3 579.031 166.636 579.031 162.892ZM620.09 146.656H624.518C624.626 146.656 624.698 146.728 624.734 146.836L633.122 171.784C633.158 171.892 633.05 172 632.942 172H629.558C629.45 172 629.414 171.928 629.378 171.82L627.722 166.672C627.686 166.528 627.578 166.492 627.47 166.492H617.03C616.922 166.492 616.85 166.564 616.814 166.672L615.122 171.82C615.086 171.928 615.05 172 614.942 172H611.558C611.45 172 611.342 171.892 611.378 171.784L619.874 146.836C619.91 146.728 619.982 146.656 620.09 146.656ZM618.038 163.612H626.498C626.606 163.612 626.714 163.504 626.678 163.396L622.466 150.256C622.394 150.04 622.178 150.04 622.106 150.256L617.858 163.396C617.822 163.504 617.93 163.612 618.038 163.612ZM644.741 149.716H638.909C638.801 149.716 638.729 149.644 638.729 149.536V146.836C638.729 146.728 638.801 146.656 638.909 146.656H654.641C654.749 146.656 654.821 146.728 654.821 146.836V149.536C654.821 149.644 654.749 149.716 654.641 149.716H648.521C648.413 149.716 648.341 149.788 648.341 149.896V168.76C648.341 168.868 648.413 168.94 648.521 168.94H654.641C654.749 168.94 654.821 169.012 654.821 169.12V171.82C654.821 171.928 654.749 172 654.641 172H638.909C638.801 172 638.729 171.928 638.729 171.82V169.12C638.729 169.012 638.801 168.94 638.909 168.94H644.741C644.849 168.94 644.921 168.868 644.921 168.76V149.896C644.921 149.788 644.849 149.716 644.741 149.716ZM670.401 172H668.817C668.709 172 668.637 171.928 668.637 171.82V167.428C668.637 167.32 668.709 167.248 668.817 167.248H673.137C673.245 167.248 673.317 167.32 673.317 167.428V171.784C673.317 174.52 671.481 176.752 668.817 176.752C668.709 176.752 668.637 176.68 668.637 176.572V174.592C668.637 174.484 668.709 174.412 668.817 174.412C669.537 174.412 670.581 173.44 670.581 172.18C670.581 172.072 670.509 172 670.401 172ZM728.631 162.892C728.631 168.508 725.319 172.36 719.703 172.36C714.051 172.36 710.775 168.508 710.775 162.892C710.775 157.24 714.051 153.424 719.703 153.424C725.319 153.424 728.631 157.276 728.631 162.892ZM725.211 162.892C725.211 159.148 723.159 156.484 719.703 156.484C716.283 156.484 714.195 159.148 714.195 162.892C714.195 166.636 716.283 169.3 719.703 169.3C723.159 169.3 725.211 166.636 725.211 162.892ZM736.434 153.784H739.134C739.242 153.784 739.278 153.856 739.314 153.964L739.674 155.584C739.746 155.8 739.998 155.728 740.07 155.62C740.826 154.576 742.374 153.424 744.786 153.424C750.006 153.424 752.634 157.24 752.634 161.92V171.82C752.634 171.928 752.562 172 752.454 172H749.394C749.286 172 749.214 171.928 749.214 171.82V161.92C749.214 159.184 747.99 156.484 744.426 156.484C741.402 156.484 739.674 159.112 739.674 161.92V171.82C739.674 171.928 739.602 172 739.494 172H736.434C736.326 172 736.254 171.928 736.254 171.82V153.964C736.254 153.856 736.326 153.784 736.434 153.784ZM763.498 164.116C763.39 164.116 763.318 164.188 763.318 164.296C763.318 166.924 765.226 169.3 768.43 169.3C770.986 169.3 772.246 168.22 773.002 166.78C773.074 166.636 773.182 166.6 773.29 166.6H776.458C776.566 166.6 776.674 166.636 776.638 166.78C775.702 170.308 772.498 172.36 768.43 172.36C763.03 172.36 759.682 168.508 759.682 162.892C759.682 157.24 762.85 153.424 768.43 153.424C774.046 153.424 777.214 157.276 777.214 162.892C777.214 163.252 777.178 163.648 777.106 163.936C777.07 164.044 777.034 164.116 776.926 164.116H763.498ZM773.47 161.236C773.47 159.184 771.994 156.484 768.43 156.484C764.938 156.484 763.318 159.544 763.318 161.236C763.318 161.344 763.426 161.416 763.498 161.416H773.29C773.398 161.416 773.47 161.344 773.47 161.236ZM812.8 174.124C813.088 174.952 814.384 176.428 817.372 176.428C821.152 176.428 822.484 173.836 822.484 171.316V170.344C822.484 170.2 822.268 170.056 822.124 170.272C821.728 170.776 819.496 172.36 816.976 172.36C812.08 172.36 808.408 168.508 808.408 162.892C808.408 157.276 811.72 153.424 816.976 153.424C818.776 153.424 821.116 154.432 822.124 155.44C822.232 155.548 822.412 155.62 822.484 155.404L822.844 153.964C822.88 153.856 822.916 153.784 823.024 153.784H825.724C825.832 153.784 825.904 153.856 825.904 153.964V171.316C825.904 176.176 822.448 179.488 817.372 179.488C812.944 179.488 809.596 177.004 809.308 174.124C809.308 174.016 809.38 173.944 809.488 173.944H812.62C812.728 173.944 812.764 174.016 812.8 174.124ZM811.828 162.892C811.828 166.636 813.88 169.3 817.336 169.3C820.612 169.3 822.484 166.636 822.484 162.892C822.484 159.148 820.612 156.484 817.336 156.484C813.88 156.484 811.828 159.148 811.828 162.892ZM835.076 153.784H837.776C837.884 153.784 837.92 153.856 837.956 153.964L838.316 155.584C838.388 155.8 838.64 155.728 838.712 155.62C839.468 154.576 841.016 153.424 843.428 153.424C848.648 153.424 851.276 157.24 851.276 161.92V162.1C851.276 162.208 851.204 162.28 851.096 162.28H848.036C847.928 162.28 847.856 162.208 847.856 162.1V161.92C847.856 159.184 846.632 156.484 843.068 156.484C840.044 156.484 838.316 159.112 838.316 161.92V171.82C838.316 171.928 838.244 172 838.136 172H835.076C834.968 172 834.896 171.928 834.896 171.82V153.964C834.896 153.856 834.968 153.784 835.076 153.784ZM874.811 162.892C874.811 168.508 871.499 172.36 865.883 172.36C860.231 172.36 856.955 168.508 856.955 162.892C856.955 157.24 860.231 153.424 865.883 153.424C871.499 153.424 874.811 157.276 874.811 162.892ZM871.391 162.892C871.391 159.148 869.339 156.484 865.883 156.484C862.463 156.484 860.375 159.148 860.375 162.892C860.375 166.636 862.463 169.3 865.883 169.3C869.339 169.3 871.391 166.636 871.391 162.892ZM897.554 172H894.854C894.746 172 894.71 171.928 894.674 171.82L894.314 170.2C894.242 169.984 893.99 170.056 893.918 170.164C893.27 171.1 891.506 172.36 889.202 172.36C883.262 172.36 881.354 168.544 881.354 163.864V153.964C881.354 153.856 881.426 153.784 881.534 153.784H884.594C884.702 153.784 884.774 153.856 884.774 153.964V163.864C884.774 166.6 885.998 169.3 889.562 169.3C892.586 169.3 894.314 166.672 894.314 163.864V153.964C894.314 153.856 894.386 153.784 894.494 153.784H897.554C897.662 153.784 897.734 153.856 897.734 153.964V171.82C897.734 171.928 897.662 172 897.554 172ZM906.761 153.784H909.461C909.569 153.784 909.605 153.856 909.641 153.964L910.001 155.44C910.073 155.656 910.289 155.584 910.361 155.476C911.297 154.432 913.709 153.424 915.509 153.424C920.765 153.424 924.077 157.276 924.077 162.892C924.077 168.508 920.765 172.36 915.509 172.36C912.989 172.36 910.793 170.812 910.361 170.308C910.181 170.092 910.001 170.236 910.001 170.38V178.948C910.001 179.056 909.929 179.128 909.821 179.128H906.761C906.653 179.128 906.581 179.056 906.581 178.948V153.964C906.581 153.856 906.653 153.784 906.761 153.784ZM920.657 162.892C920.657 159.148 918.605 156.484 915.149 156.484C911.873 156.484 910.001 159.148 910.001 162.892C910.001 166.636 911.873 169.3 915.149 169.3C918.605 169.3 920.657 166.636 920.657 162.892ZM970.716 159.94H967.62C967.512 159.94 967.44 159.868 967.44 159.76C967.44 157.78 965.856 156.484 962.94 156.484C960.24 156.484 959.052 157.672 959.052 158.788C959.052 160.84 961.644 160.876 963.444 161.128C967.044 161.596 971.364 161.956 971.364 166.564C971.364 170.668 967.944 172.36 963.444 172.36C957.972 172.36 955.308 169.48 955.308 166.024C955.308 165.916 955.38 165.844 955.488 165.844H958.512C958.62 165.844 958.728 165.916 958.728 166.024C958.728 167.824 960.564 169.3 963.444 169.3C965.28 169.3 967.944 168.904 967.944 166.564C967.944 164.512 964.956 164.368 963.444 164.188C959.988 163.792 955.632 163.252 955.632 158.788C955.632 155.836 958.476 153.424 962.94 153.424C967.368 153.424 970.86 155.512 970.86 159.76C970.86 159.868 970.824 159.94 970.716 159.94ZM982.767 164.116C982.659 164.116 982.587 164.188 982.587 164.296C982.587 166.924 984.495 169.3 987.699 169.3C990.255 169.3 991.515 168.22 992.271 166.78C992.343 166.636 992.451 166.6 992.559 166.6H995.727C995.835 166.6 995.943 166.636 995.907 166.78C994.971 170.308 991.767 172.36 987.699 172.36C982.299 172.36 978.951 168.508 978.951 162.892C978.951 157.24 982.119 153.424 987.699 153.424C993.315 153.424 996.483 157.276 996.483 162.892C996.483 163.252 996.447 163.648 996.375 163.936C996.339 164.044 996.303 164.116 996.195 164.116H982.767ZM992.739 161.236C992.739 159.184 991.263 156.484 987.699 156.484C984.207 156.484 982.587 159.544 982.587 161.236C982.587 161.344 982.695 161.416 982.767 161.416H992.559C992.667 161.416 992.739 161.344 992.739 161.236ZM1007.13 164.116C1007.02 164.116 1006.95 164.188 1006.95 164.296C1006.95 166.924 1008.86 169.3 1012.06 169.3C1014.62 169.3 1015.88 168.22 1016.63 166.78C1016.71 166.636 1016.81 166.6 1016.92 166.6H1020.09C1020.2 166.6 1020.31 166.636 1020.27 166.78C1019.33 170.308 1016.13 172.36 1012.06 172.36C1006.66 172.36 1003.31 168.508 1003.31 162.892C1003.31 157.24 1006.48 153.424 1012.06 153.424C1017.68 153.424 1020.85 157.276 1020.85 162.892C1020.85 163.252 1020.81 163.648 1020.74 163.936C1020.7 164.044 1020.67 164.116 1020.56 164.116H1007.13ZM1017.1 161.236C1017.1 159.184 1015.63 156.484 1012.06 156.484C1008.57 156.484 1006.95 159.544 1006.95 161.236C1006.95 161.344 1007.06 161.416 1007.13 161.416H1016.92C1017.03 161.416 1017.1 161.344 1017.1 161.236ZM19.504 217.12V219.82C19.504 219.928 19.432 220 19.324 220H13.672C10.684 220.072 8.956 218.704 8.956 215.752V204.664C8.956 204.556 8.884 204.484 8.776 204.484H3.772C3.664 204.484 3.592 204.412 3.592 204.304V201.964C3.592 201.856 3.664 201.784 3.772 201.784H8.776C8.884 201.784 8.956 201.712 8.956 201.604V196.744C8.956 196.636 9.028 196.564 9.136 196.564H12.196C12.304 196.564 12.376 196.636 12.376 196.744V201.604C12.376 201.712 12.448 201.784 12.556 201.784H19.324C19.432 201.784 19.504 201.856 19.504 201.964V204.304C19.504 204.412 19.432 204.484 19.324 204.484H12.556C12.448 204.484 12.376 204.556 12.376 204.664V215.14C12.376 216.256 12.88 216.94 14.32 216.94H19.324C19.432 216.94 19.504 217.012 19.504 217.12ZM29.8993 194.656H32.9593C33.0673 194.656 33.1393 194.728 33.1393 194.836V203.548C33.1393 203.728 33.3913 203.8 33.5353 203.62C34.6153 202.252 36.3793 201.424 38.2513 201.424C43.8313 201.424 46.0993 205.24 46.0993 209.92V219.82C46.0993 219.928 46.0273 220 45.9193 220H42.8593C42.7513 220 42.6793 219.928 42.6793 219.82V209.92C42.6793 207.184 41.4553 204.484 37.8913 204.484C34.8673 204.484 33.1393 207.112 33.1393 209.92V219.82C33.1393 219.928 33.0673 220 32.9593 220H29.8993C29.7913 220 29.7193 219.928 29.7193 219.82V194.836C29.7193 194.728 29.7913 194.656 29.8993 194.656ZM56.9626 212.116C56.8546 212.116 56.7826 212.188 56.7826 212.296C56.7826 214.924 58.6906 217.3 61.8946 217.3C64.4506 217.3 65.7106 216.22 66.4666 214.78C66.5386 214.636 66.6466 214.6 66.7546 214.6H69.9226C70.0306 214.6 70.1386 214.636 70.1026 214.78C69.1666 218.308 65.9626 220.36 61.8946 220.36C56.4946 220.36 53.1466 216.508 53.1466 210.892C53.1466 205.24 56.3146 201.424 61.8946 201.424C67.5106 201.424 70.6786 205.276 70.6786 210.892C70.6786 211.252 70.6426 211.648 70.5706 211.936C70.5346 212.044 70.4986 212.116 70.3906 212.116H56.9626ZM66.9346 209.236C66.9346 207.184 65.4586 204.484 61.8946 204.484C58.4026 204.484 56.7826 207.544 56.7826 209.236C56.7826 209.344 56.8906 209.416 56.9626 209.416H66.7546C66.8626 209.416 66.9346 209.344 66.9346 209.236ZM119.117 194.836V197.536C119.117 197.644 119.045 197.716 118.937 197.716H113.681C112.601 197.716 111.989 198.4 111.989 199.516V201.604C111.989 201.712 112.061 201.784 112.169 201.784H118.937C119.045 201.784 119.117 201.856 119.117 201.964V204.304C119.117 204.412 119.045 204.484 118.937 204.484H112.169C112.061 204.484 111.989 204.556 111.989 204.664V219.82C111.989 219.928 111.917 220 111.809 220H108.749C108.641 220 108.569 219.928 108.569 219.82V204.664C108.569 204.556 108.497 204.484 108.389 204.484H103.385C103.277 204.484 103.205 204.412 103.205 204.304V201.964C103.205 201.856 103.277 201.784 103.385 201.784H108.389C108.497 201.784 108.569 201.712 108.569 201.604V198.904C108.569 195.952 110.297 194.584 113.645 194.656H118.937C119.045 194.656 119.117 194.728 119.117 194.836ZM142.292 220H139.592C139.484 220 139.448 219.928 139.412 219.82L139.052 218.2C138.98 217.984 138.728 218.056 138.656 218.164C138.008 219.1 136.244 220.36 133.94 220.36C128 220.36 126.092 216.544 126.092 211.864V201.964C126.092 201.856 126.164 201.784 126.272 201.784H129.332C129.44 201.784 129.512 201.856 129.512 201.964V211.864C129.512 214.6 130.736 217.3 134.3 217.3C137.324 217.3 139.052 214.672 139.052 211.864V201.964C139.052 201.856 139.124 201.784 139.232 201.784H142.292C142.4 201.784 142.472 201.856 142.472 201.964V219.82C142.472 219.928 142.4 220 142.292 220ZM165.684 217.12V219.82C165.684 219.928 165.612 220 165.504 220H159.852C156.864 220.072 155.136 218.704 155.136 215.752V204.664C155.136 204.556 155.064 204.484 154.956 204.484H149.952C149.844 204.484 149.772 204.412 149.772 204.304V201.964C149.772 201.856 149.844 201.784 149.952 201.784H154.956C155.064 201.784 155.136 201.712 155.136 201.604V196.744C155.136 196.636 155.208 196.564 155.316 196.564H158.376C158.484 196.564 158.556 196.636 158.556 196.744V201.604C158.556 201.712 158.628 201.784 158.736 201.784H165.504C165.612 201.784 165.684 201.856 165.684 201.964V204.304C165.684 204.412 165.612 204.484 165.504 204.484H158.736C158.628 204.484 158.556 204.556 158.556 204.664V215.14C158.556 216.256 159.06 216.94 160.5 216.94H165.504C165.612 216.94 165.684 217.012 165.684 217.12ZM191.019 220H188.319C188.211 220 188.175 219.928 188.139 219.82L187.779 218.2C187.707 217.984 187.455 218.056 187.383 218.164C186.735 219.1 184.971 220.36 182.667 220.36C176.727 220.36 174.819 216.544 174.819 211.864V201.964C174.819 201.856 174.891 201.784 174.999 201.784H178.059C178.167 201.784 178.239 201.856 178.239 201.964V211.864C178.239 214.6 179.463 217.3 183.027 217.3C186.051 217.3 187.779 214.672 187.779 211.864V201.964C187.779 201.856 187.851 201.784 187.959 201.784H191.019C191.127 201.784 191.199 201.856 191.199 201.964V219.82C191.199 219.928 191.127 220 191.019 220ZM201.63 201.784H204.33C204.438 201.784 204.474 201.856 204.51 201.964L204.87 203.584C204.942 203.8 205.194 203.728 205.266 203.62C206.022 202.576 207.57 201.424 209.982 201.424C215.202 201.424 217.83 205.24 217.83 209.92V210.1C217.83 210.208 217.758 210.28 217.65 210.28H214.59C214.482 210.28 214.41 210.208 214.41 210.1V209.92C214.41 207.184 213.186 204.484 209.622 204.484C206.598 204.484 204.87 207.112 204.87 209.92V219.82C204.87 219.928 204.798 220 204.69 220H201.63C201.522 220 201.45 219.928 201.45 219.82V201.964C201.45 201.856 201.522 201.784 201.63 201.784ZM227.506 212.116C227.398 212.116 227.326 212.188 227.326 212.296C227.326 214.924 229.234 217.3 232.438 217.3C234.994 217.3 236.254 216.22 237.01 214.78C237.082 214.636 237.19 214.6 237.298 214.6H240.466C240.574 214.6 240.682 214.636 240.646 214.78C239.71 218.308 236.506 220.36 232.438 220.36C227.038 220.36 223.69 216.508 223.69 210.892C223.69 205.24 226.858 201.424 232.438 201.424C238.054 201.424 241.222 205.276 241.222 210.892C241.222 211.252 241.186 211.648 241.114 211.936C241.078 212.044 241.042 212.116 240.934 212.116H227.506ZM237.478 209.236C237.478 207.184 236.002 204.484 232.438 204.484C228.946 204.484 227.326 207.544 227.326 209.236C227.326 209.344 227.434 209.416 227.506 209.416H237.298C237.406 209.416 237.478 209.344 237.478 209.236ZM290.308 217.12V219.82C290.308 219.928 290.236 220 290.128 220H289.444C287.392 220 286.096 219.316 285.628 218.164C285.556 217.984 285.376 218.02 285.304 218.092C284.44 218.956 282.388 220.36 279.076 220.36C274.576 220.36 272.056 218.02 272.056 214.6C272.056 211.468 274.828 209.128 279.796 209.128H283.648C284.44 209.128 284.836 208.444 284.836 207.94C284.836 206.464 284.656 204.484 280.372 204.484C277.276 204.484 276.052 205.924 276.052 207.76C276.052 207.868 275.98 207.94 275.872 207.94H272.812C272.704 207.94 272.632 207.868 272.632 207.76C272.632 203.512 276.304 201.424 280.372 201.424C285.34 201.424 288.256 203.548 288.256 207.94V215.752C288.256 216.292 288.688 216.94 289.444 216.94H290.128C290.236 216.94 290.308 217.012 290.308 217.12ZM284.836 212.512V212.008C284.836 211.9 284.764 211.828 284.656 211.828H279.796C276.52 211.828 275.476 213.34 275.476 214.6C275.476 215.896 276.736 217.3 279.076 217.3C283.432 217.3 284.836 214.708 284.836 212.512ZM297.895 201.784H300.595C300.703 201.784 300.739 201.856 300.775 201.964L301.135 203.584C301.207 203.8 301.459 203.728 301.531 203.62C302.287 202.576 303.835 201.424 306.247 201.424C311.467 201.424 314.095 205.24 314.095 209.92V219.82C314.095 219.928 314.023 220 313.915 220H310.855C310.747 220 310.675 219.928 310.675 219.82V209.92C310.675 207.184 309.451 204.484 305.887 204.484C302.863 204.484 301.135 207.112 301.135 209.92V219.82C301.135 219.928 301.063 220 300.955 220H297.895C297.787 220 297.715 219.928 297.715 219.82V201.964C297.715 201.856 297.787 201.784 297.895 201.784ZM337.019 220H334.319C334.211 220 334.175 219.928 334.139 219.82L333.779 218.38C333.707 218.164 333.527 218.2 333.419 218.308C332.447 219.28 330.071 220.36 328.271 220.36C323.015 220.36 319.703 216.508 319.703 210.892C319.703 205.276 323.015 201.424 328.271 201.424C330.791 201.424 332.987 202.972 333.419 203.476C333.599 203.692 333.779 203.548 333.779 203.404V194.836C333.779 194.728 333.851 194.656 333.959 194.656H337.019C337.127 194.656 337.199 194.728 337.199 194.836V219.82C337.199 219.928 337.127 220 337.019 220ZM323.123 210.892C323.123 214.636 325.175 217.3 328.631 217.3C331.907 217.3 333.779 214.636 333.779 210.892C333.779 207.148 331.907 204.484 328.631 204.484C325.175 204.484 323.123 207.148 323.123 210.892ZM372.173 201.784H374.873C374.981 201.784 375.017 201.856 375.053 201.964L375.413 203.584C375.485 203.8 375.737 203.728 375.809 203.62C376.565 202.576 378.113 201.424 380.525 201.424C385.745 201.424 388.373 205.24 388.373 209.92V210.1C388.373 210.208 388.301 210.28 388.193 210.28H385.133C385.025 210.28 384.953 210.208 384.953 210.1V209.92C384.953 207.184 383.729 204.484 380.165 204.484C377.141 204.484 375.413 207.112 375.413 209.92V219.82C375.413 219.928 375.341 220 375.233 220H372.173C372.065 220 371.993 219.928 371.993 219.82V201.964C371.993 201.856 372.065 201.784 372.173 201.784ZM410.289 220H407.589C407.481 220 407.445 219.928 407.409 219.82L407.049 218.2C406.977 217.984 406.725 218.056 406.653 218.164C406.005 219.1 404.241 220.36 401.937 220.36C395.997 220.36 394.089 216.544 394.089 211.864V201.964C394.089 201.856 394.161 201.784 394.269 201.784H397.329C397.437 201.784 397.509 201.856 397.509 201.964V211.864C397.509 214.6 398.733 217.3 402.297 217.3C405.321 217.3 407.049 214.672 407.049 211.864V201.964C407.049 201.856 407.121 201.784 407.229 201.784H410.289C410.397 201.784 410.469 201.856 410.469 201.964V219.82C410.469 219.928 410.397 220 410.289 220ZM419.712 201.784H422.412C422.52 201.784 422.556 201.856 422.592 201.964L422.952 203.584C423.024 203.8 423.276 203.728 423.348 203.62C424.104 202.576 425.652 201.424 428.064 201.424C433.284 201.424 435.912 205.24 435.912 209.92V219.82C435.912 219.928 435.84 220 435.732 220H432.672C432.564 220 432.492 219.928 432.492 219.82V209.92C432.492 207.184 431.268 204.484 427.704 204.484C424.68 204.484 422.952 207.112 422.952 209.92V219.82C422.952 219.928 422.88 220 422.772 220H419.712C419.604 220 419.532 219.928 419.532 219.82V201.964C419.532 201.856 419.604 201.784 419.712 201.784ZM482.406 217.12V219.82C482.406 219.928 482.334 220 482.226 220H476.574C473.586 220.072 471.858 218.704 471.858 215.752V204.664C471.858 204.556 471.786 204.484 471.678 204.484H466.674C466.566 204.484 466.494 204.412 466.494 204.304V201.964C466.494 201.856 466.566 201.784 466.674 201.784H471.678C471.786 201.784 471.858 201.712 471.858 201.604V196.744C471.858 196.636 471.93 196.564 472.038 196.564H475.098C475.206 196.564 475.278 196.636 475.278 196.744V201.604C475.278 201.712 475.35 201.784 475.458 201.784H482.226C482.334 201.784 482.406 201.856 482.406 201.964V204.304C482.406 204.412 482.334 204.484 482.226 204.484H475.458C475.35 204.484 475.278 204.556 475.278 204.664V215.14C475.278 216.256 475.782 216.94 477.222 216.94H482.226C482.334 216.94 482.406 217.012 482.406 217.12ZM509.362 210.892C509.362 216.508 506.05 220.36 500.434 220.36C494.782 220.36 491.506 216.508 491.506 210.892C491.506 205.24 494.782 201.424 500.434 201.424C506.05 201.424 509.362 205.276 509.362 210.892ZM505.942 210.892C505.942 207.148 503.89 204.484 500.434 204.484C497.014 204.484 494.926 207.148 494.926 210.892C494.926 214.636 497.014 217.3 500.434 217.3C503.89 217.3 505.942 214.636 505.942 210.892ZM532.681 220H527.749C527.641 220 527.605 219.928 527.569 219.82L524.977 205.456C524.941 205.276 524.653 205.276 524.617 205.456L522.061 219.82C522.025 219.928 521.989 220 521.881 220H516.949C516.841 220 516.769 219.928 516.733 219.82L513.349 201.964C513.313 201.82 513.457 201.784 513.565 201.784H516.625C516.733 201.784 516.769 201.856 516.805 201.964L519.217 216.436C519.253 216.616 519.541 216.616 519.577 216.436L522.241 201.964C522.277 201.856 522.313 201.784 522.421 201.784H527.209C527.317 201.784 527.353 201.856 527.389 201.964L530.053 216.436C530.089 216.616 530.377 216.616 530.413 216.436L532.825 201.964C532.861 201.856 532.897 201.784 533.005 201.784H536.065C536.173 201.784 536.317 201.82 536.281 201.964L532.897 219.82C532.861 219.928 532.789 220 532.681 220ZM558.304 217.12V219.82C558.304 219.928 558.232 220 558.124 220H557.44C555.388 220 554.092 219.316 553.624 218.164C553.552 217.984 553.372 218.02 553.3 218.092C552.436 218.956 550.384 220.36 547.072 220.36C542.572 220.36 540.052 218.02 540.052 214.6C540.052 211.468 542.824 209.128 547.792 209.128H551.644C552.436 209.128 552.832 208.444 552.832 207.94C552.832 206.464 552.652 204.484 548.368 204.484C545.272 204.484 544.048 205.924 544.048 207.76C544.048 207.868 543.976 207.94 543.868 207.94H540.808C540.7 207.94 540.628 207.868 540.628 207.76C540.628 203.512 544.3 201.424 548.368 201.424C553.336 201.424 556.252 203.548 556.252 207.94V215.752C556.252 216.292 556.684 216.94 557.44 216.94H558.124C558.232 216.94 558.304 217.012 558.304 217.12ZM552.832 212.512V212.008C552.832 211.9 552.76 211.828 552.652 211.828H547.792C544.516 211.828 543.472 213.34 543.472 214.6C543.472 215.896 544.732 217.3 547.072 217.3C551.428 217.3 552.832 214.708 552.832 212.512ZM567.079 201.784H569.779C569.887 201.784 569.923 201.856 569.959 201.964L570.319 203.584C570.391 203.8 570.643 203.728 570.715 203.62C571.471 202.576 573.019 201.424 575.431 201.424C580.651 201.424 583.279 205.24 583.279 209.92V210.1C583.279 210.208 583.207 210.28 583.099 210.28H580.039C579.931 210.28 579.859 210.208 579.859 210.1V209.92C579.859 207.184 578.635 204.484 575.071 204.484C572.047 204.484 570.319 207.112 570.319 209.92V219.82C570.319 219.928 570.247 220 570.139 220H567.079C566.971 220 566.899 219.928 566.899 219.82V201.964C566.899 201.856 566.971 201.784 567.079 201.784ZM605.015 220H602.315C602.207 220 602.171 219.928 602.135 219.82L601.775 218.38C601.703 218.164 601.523 218.2 601.415 218.308C600.443 219.28 598.067 220.36 596.267 220.36C591.011 220.36 587.699 216.508 587.699 210.892C587.699 205.276 591.011 201.424 596.267 201.424C598.787 201.424 600.983 202.972 601.415 203.476C601.595 203.692 601.775 203.548 601.775 203.404V194.836C601.775 194.728 601.847 194.656 601.955 194.656H605.015C605.123 194.656 605.195 194.728 605.195 194.836V219.82C605.195 219.928 605.123 220 605.015 220ZM591.119 210.892C591.119 214.636 593.171 217.3 596.627 217.3C599.903 217.3 601.775 214.636 601.775 210.892C601.775 207.148 599.903 204.484 596.627 204.484C593.171 204.484 591.119 207.148 591.119 210.892ZM629.63 207.94H626.534C626.426 207.94 626.354 207.868 626.354 207.76C626.354 205.78 624.77 204.484 621.854 204.484C619.154 204.484 617.966 205.672 617.966 206.788C617.966 208.84 620.558 208.876 622.358 209.128C625.958 209.596 630.278 209.956 630.278 214.564C630.278 218.668 626.858 220.36 622.358 220.36C616.886 220.36 614.222 217.48 614.222 214.024C614.222 213.916 614.294 213.844 614.402 213.844H617.426C617.534 213.844 617.642 213.916 617.642 214.024C617.642 215.824 619.478 217.3 622.358 217.3C624.194 217.3 626.858 216.904 626.858 214.564C626.858 212.512 623.87 212.368 622.358 212.188C618.902 211.792 614.546 211.252 614.546 206.788C614.546 203.836 617.39 201.424 621.854 201.424C626.282 201.424 629.774 203.512 629.774 207.76C629.774 207.868 629.738 207.94 629.63 207.94ZM673.785 194.836V198.58C673.785 198.688 673.713 198.76 673.605 198.76H669.825C669.717 198.76 669.645 198.688 669.645 198.58V194.836C669.645 194.728 669.717 194.656 669.825 194.656H673.605C673.713 194.656 673.785 194.728 673.785 194.836ZM663.633 201.784H673.245C673.353 201.784 673.425 201.856 673.425 201.964V216.76C673.425 216.868 673.497 216.94 673.605 216.94H680.805C680.913 216.94 680.985 217.012 680.985 217.12V219.82C680.985 219.928 680.913 220 680.805 220H662.913C662.805 220 662.733 219.928 662.733 219.82V217.12C662.733 217.012 662.805 216.94 662.913 216.94H669.825C669.933 216.94 670.005 216.868 670.005 216.76V205.024C670.005 204.916 669.933 204.844 669.825 204.844H663.633C663.525 204.844 663.453 204.772 663.453 204.664V201.964C663.453 201.856 663.525 201.784 663.633 201.784ZM701.676 217.12V219.82C701.676 219.928 701.604 220 701.496 220H695.844C692.856 220.072 691.128 218.704 691.128 215.752V204.664C691.128 204.556 691.056 204.484 690.948 204.484H685.944C685.836 204.484 685.764 204.412 685.764 204.304V201.964C685.764 201.856 685.836 201.784 685.944 201.784H690.948C691.056 201.784 691.128 201.712 691.128 201.604V196.744C691.128 196.636 691.2 196.564 691.308 196.564H694.368C694.476 196.564 694.548 196.636 694.548 196.744V201.604C694.548 201.712 694.62 201.784 694.728 201.784H701.496C701.604 201.784 701.676 201.856 701.676 201.964V204.304C701.676 204.412 701.604 204.484 701.496 204.484H694.728C694.62 204.484 694.548 204.556 694.548 204.664V215.14C694.548 216.256 695.052 216.94 696.492 216.94H701.496C701.604 216.94 701.676 217.012 701.676 217.12ZM721.863 220H717.543C717.435 220 717.363 219.928 717.363 219.82V215.428C717.363 215.32 717.435 215.248 717.543 215.248H721.863C721.971 215.248 722.043 215.32 722.043 215.428V219.82C722.043 219.928 721.971 220 721.863 220Z" fill="white"/>
</g>
<defs>
<filter id="filter0_df_1075_9353" x="0.00805664" y="0.296005" width="1046.91" height="222.064" filterUnits="userSpaceOnUse" color-interpolation-filters="sRGB">
<feFlood flood-opacity="0" result="BackgroundImageFix"/>
<feColorMatrix in="SourceAlpha" type="matrix" values="0 0 0 0 0 0 0 0 0 0 0 0 0 0 0 0 0 0 127 0" result="hardAlpha"/>
<feOffset dy="1"/>
<feGaussianBlur stdDeviation="0.5"/>
<feComposite in2="hardAlpha" operator="out"/>
<feColorMatrix type="matrix" values="0 0 0 0 0.597667 0 0 0 0 0.408333 0 0 0 0 1 0 0 0 1 0"/>
<feBlend mode="normal" in2="BackgroundImageFix" result="effect1_dropShadow_1075_9353"/>
<feBlend mode="normal" in="SourceGraphic" in2="effect1_dropShadow_1075_9353" result="shape"/>
<feGaussianBlur stdDeviation="1" result="effect2_foregroundBlur_1075_9353"/>
</filter>
</defs>
</svg>
