<svg width="1132" height="44" viewBox="0 0 1132 44" fill="none" xmlns="http://www.w3.org/2000/svg">
<g filter="url(#filter0_df_1075_9484)">
<path d="M2.62348 5.476V3.568L8.38348 2.2H11.2275V14.296C12.7155 13.072 14.4435 12.46 16.4115 12.46C18.6435 12.46 20.4435 13.204 21.8115 14.692C23.2035 16.156 23.8995 18.364 23.8995 21.316C23.8995 23.5 23.3355 25.384 22.2075 26.968C21.1035 28.552 19.7235 29.716 18.0675 30.46C16.4355 31.18 14.6715 31.54 12.7755 31.54C10.0395 31.54 7.67548 30.928 5.68348 29.704V5.476H2.62348ZM11.2275 29.092C11.5155 29.14 11.9235 29.164 12.4515 29.164C14.0835 29.164 15.4395 28.504 16.5195 27.184C17.6235 25.864 18.1755 23.956 18.1755 21.46C18.1755 17.5 16.9635 15.52 14.5395 15.52C13.6035 15.52 12.4995 15.88 11.2275 16.6V29.092ZM42.7829 14.908V13H53.9069V14.908L51.5309 15.34L56.1749 24.592L59.5589 15.592L56.8229 14.908V13H65.1749V14.908L62.1869 15.736L52.1429 41.764H51.4949C50.7749 41.764 50.0909 41.608 49.4429 41.296C48.8189 40.984 48.3749 40.6 48.1109 40.144L53.3309 31.828L45.4829 15.664L42.7829 14.908ZM109.633 31V28.984L113.053 28.156L114.169 8.572L111.001 7.816L111.073 5.8H120.001L127.417 22.972L135.121 5.8H143.833V7.816L140.629 8.572L141.889 28.192L145.345 28.984V31H132.709V28.984L135.877 28.228L134.905 13.108L126.841 31.18H124.501L116.689 13L115.861 28.228L119.065 28.984V31H109.633ZM163.47 31V28.984L166.998 28.156L175.602 5.62H178.734L186.798 28.156L190.254 28.984V31H178.05V28.984L180.606 28.372L179.058 24.052H171.498L169.878 28.264L172.902 28.984V31H163.47ZM172.47 21.568H178.158L175.35 13.9L172.47 21.568ZM208.655 18.4C208.655 14.2 209.771 10.96 212.003 8.68C214.259 6.4 217.547 5.26 221.867 5.26C223.019 5.26 224.267 5.404 225.611 5.692C226.955 5.956 228.047 6.28 228.887 6.664V13.324H226.871L225.287 8.248C224.471 8.104 223.787 8.032 223.235 8.032C220.235 8.032 218.051 8.872 216.683 10.552C215.315 12.208 214.631 14.824 214.631 18.4C214.631 21.952 215.279 24.568 216.575 26.248C217.871 27.928 219.887 28.768 222.623 28.768C223.199 28.768 223.871 28.708 224.639 28.588L227.303 23.152H229.319L228.383 29.776C227.543 30.232 226.463 30.64 225.143 31C223.847 31.36 222.551 31.54 221.255 31.54C217.223 31.54 214.115 30.4 211.931 28.12C209.747 25.816 208.655 22.576 208.655 18.4ZM249.92 31V28.984L253.232 28.192V8.608L249.92 7.816V5.8H262.412V7.816L259.1 8.608V28.192L262.412 28.984V31H249.92ZM282.792 31V28.984L286.104 28.192V8.608L282.792 7.816V5.8H301.908V13.18H299.784L298.344 8.572H291.972V16.924L298.668 16.312V19.876L291.972 19.336V28.228H298.416L300.864 23.224H302.988L301.908 31H282.792ZM322.423 34.708C325.135 32.788 326.491 29.752 326.491 25.6V8.608L323.179 7.816V5.8H335.671V7.816L332.359 8.608V25.6C332.359 28.12 331.519 30.424 329.839 32.512C328.183 34.6 326.419 36.052 324.547 36.868L322.423 34.708ZM381.616 31V28.984L384.928 28.192V8.608L381.616 7.816V5.8H394.108V7.816L390.796 8.608V28.192L394.108 28.984V31H381.616ZM391.588 18.436L399.364 8.536L397.168 7.816V5.8H406.528V7.816L403.108 8.608L397.06 16.132L404.764 27.472L408.148 28.984V31H399.796L391.588 18.436ZM425.994 7.816V5.8H438.486V7.816L435.174 8.608V21.568C435.174 26.176 437.082 28.48 440.898 28.48C442.77 28.48 444.27 27.904 445.398 26.752C446.55 25.576 447.126 23.848 447.126 21.568V8.608L443.814 7.816V5.8H453.39V7.816L450.078 8.608V21.568C450.078 24.784 449.106 27.256 447.162 28.984C445.242 30.688 442.806 31.54 439.854 31.54C436.782 31.54 434.25 30.688 432.258 28.984C430.29 27.256 429.306 24.784 429.306 21.568V8.608L425.994 7.816ZM472.855 18.4C472.855 14.2 473.971 10.96 476.203 8.68C478.459 6.4 481.747 5.26 486.067 5.26C487.219 5.26 488.467 5.404 489.811 5.692C491.155 5.956 492.247 6.28 493.087 6.664V13.324H491.071L489.487 8.248C488.671 8.104 487.987 8.032 487.435 8.032C484.435 8.032 482.251 8.872 480.883 10.552C479.515 12.208 478.831 14.824 478.831 18.4C478.831 21.952 479.479 24.568 480.775 26.248C482.071 27.928 484.087 28.768 486.823 28.768C487.399 28.768 488.071 28.708 488.839 28.588L491.503 23.152H493.519L492.583 29.776C491.743 30.232 490.663 30.64 489.343 31C488.047 31.36 486.751 31.54 485.455 31.54C481.423 31.54 478.315 30.4 476.131 28.12C473.947 25.816 472.855 22.576 472.855 18.4ZM514.12 31V28.984L517.432 28.192V8.608L514.12 7.816V5.8H526.612V7.816L523.3 8.608V28.192L526.612 28.984V31H514.12ZM545.443 31V28.984L548.971 28.156L557.575 5.62H560.707L568.771 28.156L572.227 28.984V31H560.023V28.984L562.579 28.372L561.031 24.052H553.471L551.851 28.264L554.875 28.984V31H545.443ZM554.443 21.568H560.131L557.323 13.9L554.443 21.568ZM591.358 31V28.984L594.67 28.192V8.608L591.358 7.816V5.8H602.626C605.962 5.8 608.458 6.412 610.114 7.636C611.794 8.836 612.634 10.552 612.634 12.784C612.634 14.296 612.202 15.616 611.338 16.744C610.474 17.872 609.286 18.664 607.774 19.12L612.814 28.228L616.27 29.092V31H607.522L601.798 20.092H600.538V28.192L603.67 28.984V31H591.358ZM600.538 17.572H601.582C603.262 17.572 604.546 17.14 605.434 16.276C606.322 15.412 606.766 14.248 606.766 12.784C606.766 11.464 606.31 10.408 605.398 9.616C604.486 8.824 603.202 8.428 601.546 8.428H600.538V17.572ZM633.509 31V28.984L637.037 28.156L645.641 5.62H648.773L656.837 28.156L660.293 28.984V31H648.089V28.984L650.645 28.372L649.097 24.052H641.537L639.917 28.264L642.941 28.984V31H633.509ZM642.509 21.568H648.197L645.389 13.9L642.509 21.568ZM705.548 25.024C705.548 22 707.372 19.612 711.02 17.86C709.868 16.564 709.04 15.412 708.536 14.404C708.032 13.372 707.78 12.256 707.78 11.056C707.78 9.256 708.428 7.84 709.724 6.808C711.044 5.776 712.868 5.26 715.196 5.26C717.476 5.26 719.264 5.812 720.56 6.916C721.88 7.996 722.54 9.328 722.54 10.912C722.54 13.504 720.788 15.736 717.284 17.608L722.612 22.864C723.044 21.832 723.356 20.668 723.548 19.372L721.388 18.58V16.6H729.128V18.58L726.068 19.372C725.78 21.316 725.252 23.08 724.484 24.664L728.084 28.084L732.08 29.02V31H724.592L721.928 28.444C719.912 30.508 717.368 31.54 714.296 31.54C711.536 31.54 709.388 30.976 707.852 29.848C706.316 28.72 705.548 27.112 705.548 25.024ZM710.48 24.772C710.48 26.02 710.876 27.016 711.668 27.76C712.46 28.48 713.516 28.84 714.836 28.84C716.996 28.84 718.772 28.144 720.164 26.752L712.928 19.84C711.296 21.232 710.48 22.876 710.48 24.772ZM712.388 10.66C712.388 11.188 712.496 11.704 712.712 12.208C712.928 12.688 713.24 13.18 713.648 13.684L715.412 15.592C717.092 14.248 717.932 12.64 717.932 10.768C717.932 9.808 717.68 9.052 717.176 8.5C716.672 7.948 715.988 7.672 715.124 7.672C714.308 7.672 713.648 7.936 713.144 8.464C712.64 8.992 712.388 9.724 712.388 10.66ZM777.264 31V28.984L780.576 28.192V8.608L777.264 7.816V5.8H787.452C790.932 5.8 793.632 6.412 795.552 7.636C797.472 8.836 798.432 10.852 798.432 13.684C798.432 15.124 798.12 16.384 797.496 17.464C796.896 18.52 796.068 19.36 795.012 19.984C793.956 20.584 792.792 21.04 791.52 21.352C790.248 21.64 788.868 21.784 787.38 21.784H786.444V28.192L790.836 28.984V31H777.264ZM786.444 19.156H787.2C788.664 19.156 789.9 18.7 790.908 17.788C791.94 16.852 792.456 15.484 792.456 13.684C792.456 11.956 791.976 10.648 791.016 9.76C790.08 8.872 788.892 8.428 787.452 8.428H786.444V19.156ZM818.186 31V28.984L821.498 28.192V8.608L818.186 7.816V5.8H828.374C831.854 5.8 834.554 6.412 836.474 7.636C838.394 8.836 839.354 10.852 839.354 13.684C839.354 15.124 839.042 16.384 838.418 17.464C837.818 18.52 836.99 19.36 835.934 19.984C834.878 20.584 833.714 21.04 832.442 21.352C831.17 21.64 829.79 21.784 828.302 21.784H827.366V28.192L831.758 28.984V31H818.186ZM827.366 19.156H828.122C829.586 19.156 830.822 18.7 831.83 17.788C832.862 16.852 833.378 15.484 833.378 13.684C833.378 11.956 832.898 10.648 831.938 9.76C831.002 8.872 829.814 8.428 828.374 8.428H827.366V19.156ZM859.108 31V28.984L862.42 28.192V8.608L859.108 7.816V5.8H871.6V7.816L868.288 8.608V28.228H874.84L877.288 23.224H879.304L878.224 31H859.108ZM898.834 31V28.984L902.146 28.192V8.608L898.834 7.816V5.8H909.022C912.502 5.8 915.202 6.412 917.122 7.636C919.042 8.836 920.002 10.852 920.002 13.684C920.002 15.124 919.69 16.384 919.066 17.464C918.466 18.52 917.638 19.36 916.582 19.984C915.526 20.584 914.362 21.04 913.09 21.352C911.818 21.64 910.438 21.784 908.95 21.784H908.014V28.192L912.406 28.984V31H898.834ZM908.014 19.156H908.77C910.234 19.156 911.47 18.7 912.478 17.788C913.51 16.852 914.026 15.484 914.026 13.684C914.026 11.956 913.546 10.648 912.586 9.76C911.65 8.872 910.462 8.428 909.022 8.428H908.014V19.156ZM939.756 31V28.984L943.068 28.192V8.608L939.756 7.816V5.8H952.248V7.816L948.936 8.608V28.228H955.488L957.936 23.224H959.952L958.872 31H939.756ZM979.483 31V28.984L982.795 28.192V8.608L979.483 7.816V5.8H998.599V13.18H996.475L995.035 8.572H988.663V16.924L995.359 16.312V19.876L988.663 19.336V28.228H995.107L997.555 23.224H999.679L998.599 31H979.483ZM1018.61 31V28.984L1022.14 28.156L1030.74 5.62H1033.87L1041.94 28.156L1045.39 28.984V31H1033.19V28.984L1035.75 28.372L1034.2 24.052H1026.64L1025.02 28.264L1028.04 28.984V31H1018.61ZM1027.61 21.568H1033.3L1030.49 13.9L1027.61 21.568ZM1065.1 29.848V23.224H1067.12L1068.95 28.264C1069.96 28.624 1071.22 28.804 1072.73 28.804C1074.37 28.804 1075.77 28.516 1076.95 27.94C1078.15 27.364 1078.75 26.512 1078.75 25.384C1078.75 25.12 1078.71 24.868 1078.64 24.628C1078.59 24.388 1078.49 24.16 1078.35 23.944C1078.21 23.728 1078.06 23.536 1077.92 23.368C1077.77 23.176 1077.56 22.984 1077.27 22.792C1076.98 22.576 1076.73 22.408 1076.51 22.288C1076.3 22.144 1075.97 21.964 1075.54 21.748C1075.13 21.532 1074.4 21.172 1073.35 20.668L1072.05 20.056C1069.67 18.904 1067.97 17.704 1066.94 16.456C1065.91 15.184 1065.39 13.624 1065.39 11.776C1065.39 9.808 1066.21 8.236 1067.84 7.06C1069.47 5.86 1071.58 5.26 1074.17 5.26C1077.08 5.26 1079.69 5.632 1082.02 6.376V13H1080.01L1078.24 8.176C1077.26 7.96 1076.31 7.852 1075.4 7.852C1073.98 7.852 1072.77 8.104 1071.76 8.608C1070.75 9.088 1070.25 9.796 1070.25 10.732C1070.25 11.572 1070.65 12.28 1071.44 12.856C1072.25 13.408 1073.69 14.14 1075.76 15.052L1076.48 15.376C1078.93 16.48 1080.73 17.704 1081.88 19.048C1083.03 20.392 1083.61 22.024 1083.61 23.944C1083.61 25.744 1083.15 27.22 1082.24 28.372C1081.35 29.5 1080.17 30.316 1078.71 30.82C1077.25 31.3 1075.58 31.54 1073.71 31.54C1070.73 31.54 1067.86 30.976 1065.1 29.848ZM1104.22 31V28.984L1107.53 28.192V8.608L1104.22 7.816V5.8H1115.49C1118.82 5.8 1121.32 6.412 1122.97 7.636C1124.65 8.836 1125.49 10.552 1125.49 12.784C1125.49 14.296 1125.06 15.616 1124.2 16.744C1123.33 17.872 1122.15 18.664 1120.63 19.12L1125.67 28.228L1129.13 29.092V31H1120.38L1114.66 20.092H1113.4V28.192L1116.53 28.984V31H1104.22ZM1113.4 17.572H1114.44C1116.12 17.572 1117.41 17.14 1118.29 16.276C1119.18 15.412 1119.63 14.248 1119.63 12.784C1119.63 11.464 1119.17 10.408 1118.26 9.616C1117.35 8.824 1116.06 8.428 1114.41 8.428H1113.4V17.572Z" fill="white"/>
</g>
<defs>
<filter id="filter0_df_1075_9484" x="0.623535" y="0.199997" width="1130.51" height="43.564" filterUnits="userSpaceOnUse" color-interpolation-filters="sRGB">
<feFlood flood-opacity="0" result="BackgroundImageFix"/>
<feColorMatrix in="SourceAlpha" type="matrix" values="0 0 0 0 0 0 0 0 0 0 0 0 0 0 0 0 0 0 127 0" result="hardAlpha"/>
<feOffset dy="1"/>
<feGaussianBlur stdDeviation="0.5"/>
<feComposite in2="hardAlpha" operator="out"/>
<feColorMatrix type="matrix" values="0 0 0 0 0.597667 0 0 0 0 0.408333 0 0 0 0 1 0 0 0 1 0"/>
<feBlend mode="normal" in2="BackgroundImageFix" result="effect1_dropShadow_1075_9484"/>
<feBlend mode="normal" in="SourceGraphic" in2="effect1_dropShadow_1075_9484" result="shape"/>
<feGaussianBlur stdDeviation="1" result="effect2_foregroundBlur_1075_9484"/>
</filter>
</defs>
</svg>
