<svg width="638" height="31" viewBox="0 0 638 31" fill="none" xmlns="http://www.w3.org/2000/svg">
<g filter="url(#filter0_df_1075_9485)">
<path d="M2.82845 26.848V20.224H4.84445L6.68045 25.264C7.68845 25.624 8.94845 25.804 10.4605 25.804C12.0925 25.804 13.4965 25.516 14.6725 24.94C15.8725 24.364 16.4725 23.512 16.4725 22.384C16.4725 22.12 16.4365 21.868 16.3645 21.628C16.3165 21.388 16.2205 21.16 16.0765 20.944C15.9325 20.728 15.7885 20.536 15.6445 20.368C15.5005 20.176 15.2845 19.984 14.9965 19.792C14.7085 19.576 14.4565 19.408 14.2405 19.288C14.0245 19.144 13.7005 18.964 13.2685 18.748C12.8605 18.532 12.1285 18.172 11.0725 17.668L9.77645 17.056C7.40045 15.904 5.69645 14.704 4.66445 13.456C3.63245 12.184 3.11645 10.624 3.11645 8.776C3.11645 6.808 3.93245 5.236 5.56445 4.06C7.19645 2.86 9.30845 2.26 11.9005 2.26C14.8045 2.26 17.4205 2.632 19.7485 3.376V10H17.7325L15.9685 5.176C14.9845 4.96 14.0365 4.852 13.1245 4.852C11.7085 4.852 10.4965 5.104 9.48845 5.608C8.48045 6.088 7.97645 6.796 7.97645 7.732C7.97645 8.572 8.37245 9.28 9.16445 9.856C9.98045 10.408 11.4205 11.14 13.4845 12.052L14.2045 12.376C16.6525 13.48 18.4525 14.704 19.6045 16.048C20.7565 17.392 21.3325 19.024 21.3325 20.944C21.3325 22.744 20.8765 24.22 19.9645 25.372C19.0765 26.5 17.9005 27.316 16.4365 27.82C14.9725 28.3 13.3045 28.54 11.4325 28.54C8.45645 28.54 5.58845 27.976 2.82845 26.848ZM41.9439 28V25.984L45.2559 25.192V5.608L41.9439 4.816V2.8H54.4359V4.816L51.1239 5.608V13.888H60.0879V5.608L56.7759 4.816V2.8H69.2679V4.816L65.9559 5.608V25.192L69.2679 25.984V28H56.7759V25.984L60.0879 25.192V16.66H51.1239V25.192L54.4359 25.984V28H41.9439ZM89.6509 28V25.984L92.9629 25.192V5.608L89.6509 4.816V2.8H102.143V4.816L98.8309 5.608V25.192L102.143 25.984V28H89.6509ZM122.522 28V25.984L125.834 25.192V5.608L122.522 4.816V2.8H133.538C136.346 2.8 138.578 3.292 140.234 4.276C141.89 5.236 142.718 6.784 142.718 8.92C142.718 10.216 142.25 11.392 141.314 12.448C140.378 13.48 139.274 14.152 138.002 14.464V14.572C139.994 14.932 141.578 15.676 142.754 16.804C143.93 17.908 144.518 19.276 144.518 20.908C144.518 23.044 143.606 24.76 141.782 26.056C139.958 27.352 137.654 28 134.87 28H122.522ZM131.702 25.444H132.962C136.682 25.444 138.542 23.932 138.542 20.908C138.542 19.444 138.086 18.304 137.174 17.488C136.286 16.672 134.942 16.264 133.142 16.264H131.702V25.444ZM131.702 13.636H132.206C133.478 13.636 134.546 13.252 135.41 12.484C136.298 11.716 136.742 10.636 136.742 9.244C136.742 6.652 135.158 5.356 131.99 5.356H131.702V13.636ZM163.631 4.816V2.8H176.123V4.816L172.811 5.608V18.568C172.811 23.176 174.719 25.48 178.535 25.48C180.407 25.48 181.907 24.904 183.035 23.752C184.187 22.576 184.763 20.848 184.763 18.568V5.608L181.451 4.816V2.8H191.027V4.816L187.715 5.608V18.568C187.715 21.784 186.743 24.256 184.799 25.984C182.879 27.688 180.443 28.54 177.491 28.54C174.419 28.54 171.887 27.688 169.895 25.984C167.927 24.256 166.943 21.784 166.943 18.568V5.608L163.631 4.816ZM208.795 4.816V2.8H220.603V4.816L218.263 5.284L223.411 12.844L228.019 5.536L225.355 4.816V2.8H234.535V4.816L231.223 5.608L224.743 15.904V25.192L228.055 25.984V28H215.563V25.984L218.875 25.192V15.868L211.711 5.536L208.795 4.816ZM249.119 28V25.984L252.647 25.156L261.251 2.62H264.383L272.447 25.156L275.903 25.984V28H263.699V25.984L266.255 25.372L264.707 21.052H257.147L255.527 25.264L258.551 25.984V28H249.119ZM258.119 18.568H263.807L260.999 10.9L258.119 18.568ZM321.049 28V25.984L324.361 25.192V5.608L321.049 4.816V2.8H331.237C334.717 2.8 337.417 3.412 339.337 4.636C341.257 5.836 342.217 7.852 342.217 10.684C342.217 12.124 341.905 13.384 341.281 14.464C340.681 15.52 339.853 16.36 338.797 16.984C337.741 17.584 336.577 18.04 335.305 18.352C334.033 18.64 332.653 18.784 331.165 18.784H330.229V25.192L334.621 25.984V28H321.049ZM330.229 16.156H330.985C332.449 16.156 333.685 15.7 334.693 14.788C335.725 13.852 336.241 12.484 336.241 10.684C336.241 8.956 335.761 7.648 334.801 6.76C333.865 5.872 332.677 5.428 331.237 5.428H330.229V16.156ZM361.971 28V25.984L365.283 25.192V5.608L361.971 4.816V2.8H373.239C376.575 2.8 379.071 3.412 380.727 4.636C382.407 5.836 383.247 7.552 383.247 9.784C383.247 11.296 382.815 12.616 381.951 13.744C381.087 14.872 379.899 15.664 378.387 16.12L383.427 25.228L386.883 26.092V28H378.135L372.411 17.092H371.151V25.192L374.283 25.984V28H361.971ZM371.151 14.572H372.195C373.875 14.572 375.159 14.14 376.047 13.276C376.935 12.412 377.379 11.248 377.379 9.784C377.379 8.464 376.923 7.408 376.011 6.616C375.099 5.824 373.815 5.428 372.159 5.428H371.151V14.572ZM405.67 28V25.984L408.982 25.192V5.608L405.67 4.816V2.8H424.786V10.18H422.662L421.222 5.572H414.85V13.924L421.546 13.312V16.876L414.85 16.336V25.228H421.294L423.742 20.224H425.866L424.786 28H405.67ZM446.922 26.848V20.224H448.938L450.774 25.264C451.782 25.624 453.042 25.804 454.554 25.804C456.186 25.804 457.59 25.516 458.766 24.94C459.966 24.364 460.566 23.512 460.566 22.384C460.566 22.12 460.53 21.868 460.458 21.628C460.41 21.388 460.314 21.16 460.17 20.944C460.026 20.728 459.882 20.536 459.738 20.368C459.594 20.176 459.378 19.984 459.09 19.792C458.802 19.576 458.55 19.408 458.334 19.288C458.118 19.144 457.794 18.964 457.362 18.748C456.954 18.532 456.222 18.172 455.166 17.668L453.87 17.056C451.494 15.904 449.79 14.704 448.758 13.456C447.726 12.184 447.21 10.624 447.21 8.776C447.21 6.808 448.026 5.236 449.658 4.06C451.29 2.86 453.402 2.26 455.994 2.26C458.898 2.26 461.514 2.632 463.842 3.376V10H461.826L460.062 5.176C459.078 4.96 458.13 4.852 457.218 4.852C455.802 4.852 454.59 5.104 453.582 5.608C452.574 6.088 452.07 6.796 452.07 7.732C452.07 8.572 452.466 9.28 453.258 9.856C454.074 10.408 455.514 11.14 457.578 12.052L458.298 12.376C460.746 13.48 462.546 14.704 463.698 16.048C464.85 17.392 465.426 19.024 465.426 20.944C465.426 22.744 464.97 24.22 464.058 25.372C463.17 26.5 461.994 27.316 460.53 27.82C459.066 28.3 457.398 28.54 455.526 28.54C452.55 28.54 449.682 27.976 446.922 26.848ZM486.038 28V25.984L489.35 25.192V5.608L486.038 4.816V2.8H505.154V10.18H503.03L501.59 5.572H495.218V13.924L501.914 13.312V16.876L495.218 16.336V25.228H501.662L504.11 20.224H506.234L505.154 28H486.038ZM526.713 28V25.984L530.025 25.192V5.608L526.713 4.816V2.8H532.905L548.349 19.72V5.608L545.037 4.816V2.8H554.649V4.816L551.337 5.608V28H547.845L532.905 11.656V25.192L536.217 25.984V28H526.713ZM574.306 10.432V2.8H596.446V10.432H594.25L592.774 5.572H588.31V25.192L591.622 25.984V28H579.13V25.984L582.442 25.192V5.572H577.942L576.466 10.432H574.306ZM617.008 26.848V20.224H619.024L620.86 25.264C621.868 25.624 623.128 25.804 624.64 25.804C626.272 25.804 627.676 25.516 628.852 24.94C630.052 24.364 630.652 23.512 630.652 22.384C630.652 22.12 630.616 21.868 630.544 21.628C630.496 21.388 630.4 21.16 630.256 20.944C630.112 20.728 629.968 20.536 629.824 20.368C629.68 20.176 629.464 19.984 629.176 19.792C628.888 19.576 628.636 19.408 628.42 19.288C628.204 19.144 627.88 18.964 627.448 18.748C627.04 18.532 626.308 18.172 625.252 17.668L623.956 17.056C621.58 15.904 619.876 14.704 618.844 13.456C617.812 12.184 617.296 10.624 617.296 8.776C617.296 6.808 618.112 5.236 619.744 4.06C621.376 2.86 623.488 2.26 626.08 2.26C628.984 2.26 631.6 2.632 633.928 3.376V10H631.912L630.148 5.176C629.164 4.96 628.216 4.852 627.304 4.852C625.888 4.852 624.676 5.104 623.668 5.608C622.66 6.088 622.156 6.796 622.156 7.732C622.156 8.572 622.552 9.28 623.344 9.856C624.16 10.408 625.6 11.14 627.664 12.052L628.384 12.376C630.832 13.48 632.632 14.704 633.784 16.048C634.936 17.392 635.512 19.024 635.512 20.944C635.512 22.744 635.056 24.22 634.144 25.372C633.256 26.5 632.08 27.316 630.616 27.82C629.152 28.3 627.484 28.54 625.612 28.54C622.636 28.54 619.768 27.976 617.008 26.848Z" fill="white"/>
</g>
<defs>
<filter id="filter0_df_1075_9485" x="0.828613" y="0.260002" width="636.684" height="30.28" filterUnits="userSpaceOnUse" color-interpolation-filters="sRGB">
<feFlood flood-opacity="0" result="BackgroundImageFix"/>
<feColorMatrix in="SourceAlpha" type="matrix" values="0 0 0 0 0 0 0 0 0 0 0 0 0 0 0 0 0 0 127 0" result="hardAlpha"/>
<feOffset dy="1"/>
<feGaussianBlur stdDeviation="0.5"/>
<feComposite in2="hardAlpha" operator="out"/>
<feColorMatrix type="matrix" values="0 0 0 0 0.597667 0 0 0 0 0.408333 0 0 0 0 1 0 0 0 1 0"/>
<feBlend mode="normal" in2="BackgroundImageFix" result="effect1_dropShadow_1075_9485"/>
<feBlend mode="normal" in="SourceGraphic" in2="effect1_dropShadow_1075_9485" result="shape"/>
<feGaussianBlur stdDeviation="1" result="effect2_foregroundBlur_1075_9485"/>
</filter>
</defs>
</svg>
