<svg viewBox="0 0 20 34" fill="none" xmlns="http://www.w3.org/2000/svg">
  <path d="M2.75022 16.7846V26.523H1.08099V14.4269C1.52087 15.291 2.08594 16.0855 2.75792 16.7846H2.75022ZM5.53869 18.8307V26.523H3.8233V17.7538C4.27889 18.1109 4.76396 18.4287 5.2733 18.7038L5.53099 18.8307H5.53869ZM10.1656 20.2923H10.2387C11.7502 20.6346 12.6695 21.3192 13.0464 22.3884C13.2369 22.928 13.2597 23.5126 13.1118 24.0653C12.7271 25.5423 11.1887 26.4961 9.26561 26.4961H6.5733V19.2961C7.36561 19.5923 8.20407 19.8192 9.10022 20.0653C9.44638 20.1538 9.79638 20.2346 10.1348 20.3115L10.1656 20.2923ZM9.25022 27.6192C11.6733 27.6192 13.5848 26.3538 14.1156 24.4C14.3203 23.6397 14.2908 22.8355 14.031 22.0923C13.5233 20.6692 12.3195 19.7307 10.4464 19.3038H10.3695C10.0425 19.2307 9.70022 19.1538 9.3733 19.0653C8.11991 18.7855 6.90291 18.3622 5.74638 17.8038C4.32484 17.0415 3.13878 15.9051 2.31648 14.5174C1.49418 13.1298 1.06695 11.5437 1.08099 9.93073C1.07171 8.77176 1.2946 7.62267 1.73652 6.55123C2.17844 5.47979 2.83044 4.50769 3.65407 3.69227C4.57573 2.81728 5.66289 2.13521 6.85174 1.68609C8.04058 1.23697 9.30717 1.02985 10.5771 1.07688H12.0041C12.1469 1.07688 12.2838 1.02015 12.3848 0.919168C12.4858 0.818187 12.5425 0.681228 12.5425 0.538419C12.5425 0.39561 12.4858 0.258651 12.3848 0.15767C12.2838 0.0566885 12.1469 -4.17172e-05 12.0041 -4.17172e-05H10.581C9.16848 -0.0492366 7.76038 0.184341 6.4394 0.686972C5.11843 1.1896 3.91122 1.95115 2.88869 2.92688C1.96338 3.84206 1.23074 4.9333 0.733988 6.1362C0.237236 7.33911 -0.0135664 8.62932 -0.00362168 9.93073V27.0576C-0.00362531 27.1998 0.0525773 27.3362 0.152728 27.437C0.252879 27.5379 0.388852 27.5951 0.530993 27.5961L9.25022 27.6192Z" fill="white"></path>
  <path d="M6.60384 9.93071C6.60486 9.04969 6.95529 8.20504 7.57827 7.58206C8.20125 6.95909 9.04589 6.60865 9.92692 6.60763C10.8069 6.60967 11.6502 6.96068 12.2717 7.58366C12.8933 8.20663 13.2423 9.05071 13.2423 9.93071C13.2423 11.8538 11.7038 13.5422 9.91922 13.5422H9.86538C7.87691 13.0807 6.59615 11.673 6.59615 9.92302L6.60384 9.93071ZM15.0577 6.60379C15.7008 7.59132 16.0429 8.74454 16.0423 9.92302C16.0363 10.8301 15.8338 11.7252 15.4487 12.5465C15.0636 13.3679 14.5051 14.096 13.8115 14.6807C13.2174 14.4243 12.6071 14.2072 11.9846 14.0307C12.6916 13.6024 13.2775 13.0006 13.6867 12.2824C14.0959 11.5642 14.315 10.7534 14.3231 9.92686C14.3239 9.2972 14.1889 8.67476 13.9274 8.10197C13.6659 7.52918 13.284 7.01949 12.8077 6.60763L15.0577 6.60379ZM18.1346 6.60379C18.7802 8.19639 18.948 9.94257 18.6174 11.629C18.2868 13.3154 17.4722 14.869 16.2731 16.0999C15.8222 15.7608 15.3465 15.4561 14.85 15.1884C15.5575 14.5068 16.1214 13.6904 16.5085 12.7874C16.8956 11.8845 17.098 10.9131 17.1038 9.93071C17.1049 8.77627 16.8265 7.63873 16.2923 6.61533L18.1346 6.60379ZM17.0961 16.7922C18.4196 15.4136 19.3178 13.6829 19.6834 11.8072C20.049 9.93142 19.8665 7.99006 19.1577 6.21533C19.0767 6.01354 18.937 5.84074 18.7566 5.71935C18.5763 5.59795 18.3636 5.53357 18.1461 5.53456H9.92692C8.7613 5.53558 7.64371 5.99907 6.81949 6.82328C5.99527 7.6475 5.53178 8.76509 5.53076 9.93071C5.53076 12.2384 7.25384 14.1192 9.83461 14.6422C15.5192 15.6269 18.7731 18.7538 18.7731 23.1999C18.7731 28.2461 14.6885 32.0461 9.27307 32.0461H7.0923C7.01802 32.0398 6.94325 32.049 6.87271 32.0731C6.80217 32.0972 6.7374 32.1357 6.68251 32.1861C6.62762 32.2366 6.5838 32.2978 6.55383 32.3661C6.52385 32.4344 6.50837 32.5081 6.50837 32.5826C6.50837 32.6572 6.52385 32.7309 6.55383 32.7992C6.5838 32.8674 6.62762 32.9287 6.68251 32.9791C6.7374 33.0296 6.80217 33.0681 6.87271 33.0922C6.94325 33.1163 7.01802 33.1255 7.0923 33.1192H9.28076C15.3077 33.1192 19.8538 28.8499 19.8538 23.1922C19.8703 21.9915 19.6332 20.8008 19.158 19.698C18.6828 18.5951 17.9802 17.605 17.0961 16.7922Z" fill="white"></path>
  <path d="M17.1037 23.1999C17.1037 19.6576 14.646 17.2884 9.98834 16.3422C6.14219 15.6038 3.8345 13.2038 3.8345 9.93069C3.83564 9.14955 3.9931 8.37655 4.29761 7.65721C4.60212 6.93788 5.04753 6.28676 5.60757 5.74222C6.26593 5.1045 7.04577 4.60564 7.90074 4.27527C8.75572 3.94491 9.66838 3.7898 10.5845 3.81915H15.8768C15.9475 3.81915 16.0175 3.80522 16.0829 3.77816C16.1482 3.7511 16.2076 3.71144 16.2576 3.66144C16.3076 3.61144 16.3472 3.55208 16.3743 3.48675C16.4013 3.42142 16.4153 3.3514 16.4153 3.28069C16.4153 3.20997 16.4013 3.13995 16.3743 3.07463C16.3472 3.0093 16.3076 2.94994 16.2576 2.89994C16.2076 2.84994 16.1482 2.81027 16.0829 2.78321C16.0175 2.75615 15.9475 2.74222 15.8768 2.74222H10.5806C9.52421 2.71398 8.47272 2.89634 7.4875 3.27868C6.50227 3.66101 5.60302 4.23567 4.84219 4.96915C4.18064 5.61357 3.65472 6.38385 3.29539 7.23462C2.93606 8.08539 2.75058 8.99945 2.74988 9.92299C2.74988 13.7691 5.38065 16.5461 9.78065 17.3884C13.9268 18.2307 16.0307 20.1845 16.0307 23.1922C16.0307 26.6538 13.1268 29.2922 9.28065 29.2922H3.28065C3.13784 29.2922 3.00088 29.349 2.8999 29.4499C2.79892 29.5509 2.74219 29.6879 2.74219 29.8307C2.74219 29.9735 2.79892 30.1105 2.8999 30.2114C3.00088 30.3124 3.13784 30.3691 3.28065 30.3691H9.28065C13.7422 30.3691 17.1037 27.2922 17.1037 23.1922" fill="white"></path>
</svg>