<?xml version="1.0" encoding="utf-8"?>
<!-- Generator: Adobe Illustrator 18.1.1, SVG Export Plug-In . SVG Version: 6.00 Build 0)  -->
<svg version="1.1" id="Layer_1" xmlns="http://www.w3.org/2000/svg" xmlns:xlink="http://www.w3.org/1999/xlink" x="0px" y="0px"
	 viewBox="0 0 792 612" enable-background="new 0 0 792 612" xml:space="preserve">
<path d="M149.3,306.8c0-56.8-0.2-113.6,0.1-170.5c0.1-17.3,6.5-32.6,17-46.2c13.8-17.8,32.2-28,54.2-30.5c11.3-1.3,23,0.5,34.6,1.1
	c6.3,0.4,12.6,1.4,18.9,1.8c17.8,1.3,35.7,2.2,53.5,3.6c22,1.7,44,3.9,65.9,5.6c12.8,1,25.7,1.5,38.5,2.5c16.8,1.3,33.6,3,50.5,4.4
	c12.2,1,24.6,1.3,36.8,2.6c23.2,2.5,47.1,0.6,69.5,8.2c31.4,10.7,50.3,32.6,55.9,65.6c0.3,1.7,0.1,3.5,0.1,5.2
	c0,97.4,0.2,194.8,0,292.2c0,21.3-9.1,39-24.3,53.5c-15.1,14.4-33.3,22-54.2,23.4c-20.1,1.3-40.2,3-60.3,4.6
	c-19.9,1.5-39.8,3.1-59.7,4.6c-20.1,1.6-40.2,3-60.3,4.7c-22,1.8-44,3.9-66,5.7c-12.8,1-25.7,1.4-38.5,2.5c-17,1.3-34,3.8-51,4.3
	c-14.5,0.4-28.5-3.5-41.1-11.1c-22.8-13.8-35.7-34.2-40-60.3c-0.3-1.9-0.1-3.9-0.1-5.8C149.2,421.2,149.2,364,149.3,306.8
	C149.2,306.8,149.2,306.8,149.3,306.8z M361.7,277.5c3.9-18,7.8-35.3,11.2-52.7c0.9-4.4,2.4-5.8,6.7-5.7c14.6,0.5,29.3,1,43.9,1.1
	c29.4,0.2,58.8,0.2,88.1,0c7.6-0.1,14.7-2.8,18-10.2c3.3-7.5,6.6-15.2,7.9-23.2c2-12.9-4.1-21.1-16.8-23c-11.4-1.7-23-2.1-34.5-2.4
	c-34-0.6-67.9-0.9-101.9-1.3c-13.1-0.1-26.1-0.4-39.2,0c-16.1,0.5-27.6,11.6-32,26.9c-2.2,7.9-3.6,16-5.3,24.1
	c-5.6,26.7-11.2,53.4-16.8,80.1c-6,28.7-12.1,57.4-18,86.2c-3.3,16.1-6.8,32.2-8.7,48.5c-1.7,14.4,3.2,25.5,20.1,30.2
	c4.4,1.2,9.1,1.8,13.6,1.7c22.9-0.6,45.9-1.7,68.8-2.1c30.5-0.6,61-0.6,91.5-1.4c6.5-0.2,13.5-1.6,19.2-4.6
	c9.3-4.8,11.4-14.8,13.7-24.1c5.3-21.4-6-30.3-25-29.9c-19.7,0.3-39.4,0-59.1,0.2c-21.2,0.2-42.5,0.7-63.7,1c-2,0-4.1,0-6.1,0
	c-0.1-1.6-0.3-2.4-0.2-3.2c3.8-18.3,7.7-36.6,11.5-54.9c0.7-3.5,2-5.1,6-5.1c28.4-0.2,56.8-0.7,85.2-1c5-0.1,10.1,0,15.1,0
	c12-0.1,20.4-5.3,24.3-16.6c2.3-6.8,3.3-14.1,3.9-21.3c0.6-7.1-3.7-12.2-10-14.6c-4.3-1.7-9.3-2.6-14-2.6
	c-30.1-0.2-60.3-0.1-90.4-0.1C366.6,277.5,364.5,277.5,361.7,277.5z"/>
</svg>
