<?xml version="1.0" encoding="utf-8"?>
<!-- Generator: Adobe Illustrator 18.1.1, SVG Export Plug-In . SVG Version: 6.00 Build 0)  -->
<svg version="1.1" id="Layer_1" xmlns="http://www.w3.org/2000/svg" xmlns:xlink="http://www.w3.org/1999/xlink" x="0px" y="0px"
	 viewBox="0 0 792 612" enable-background="new 0 0 792 612" xml:space="preserve">
<path d="M462.2,398.4c0,17.2,0.2,34.3-0.1,51.4c-0.1,6.2,2.4,10.7,6.2,15.3c2,2.5,2.5,6.3,3.6,9.5c-2.9,0.9-5.8,2.5-8.7,2.5
	c-21.6,0.2-43.3,0.1-64.9,0.1c-11.6,0-17.2-5.7-17.3-17.8c-0.1-25.9,0-51.9,0-77.8c0-7.4-0.3-14.7,0.1-22c0.4-7.6-3.4-12-9.5-15.6
	c-9.2-5.5-26.1-1.6-30.6,7.5c-1,2.1-1.4,4.7-1.4,7c-0.1,31,0.1,62.1-0.1,93.1c0,6,3,9.7,6.5,13.8c1.9,2.3,2.2,6,3.3,9
	c-2.7,0.9-5.4,2.6-8.1,2.6c-21,0.2-42.1,0.2-63.1,0.1c-10.2,0-15-4.5-15-14.8c-0.2-33.3,0-66.6-0.1-99.8c0-10.2-6-18.4-14.3-20.1
	c-13.3-2.8-23.5,1.4-27.8,11.6c-0.9,2.1-1.1,4.7-1.1,7.1c-0.1,29,0.1,58-0.1,87c-0.1,7.2,2.4,12.8,7.4,17.9c1.9,1.9,4.2,5.2,3.7,7.4
	c-0.8,4.1-5,3.8-8.5,3.8c-22.5-0.1-44.9,0-67.4,0c-9.4,0-12.8-2.7-14.2-12.1c-1-6.4-1.8-12.9-1.9-19.3c-0.2-23.3-0.3-46.6,0.1-69.8
	c0.2-14.6,0.1-29.4,2.3-43.8c4.2-28,18.8-53.9,52.3-64.2c17.8-5.5,35.8-5.8,53.7-3.9c17.2,1.8,32.7,9.9,47.3,19.2
	c4.4,2.8,7.8,2.9,12.2,0c25.3-17,53.4-23.3,83.5-19.3c19.1,2.5,37,8.9,50.5,23.8c11.4,12.5,18.1,27.4,19.3,44.3
	c1.6,22.1,2.4,44.3,3.6,66.4C462.9,398.4,462.6,398.4,462.2,398.4z"/>
<path d="M646,232c0.6,17.7-2.5,34.7-9.8,50.8c-1.4,3.1-1.3,5.6,1.7,7.9c2.9,2.2,5.3,5,8.1,7.3c9.3,7.3,12.1,18.6,6.2,28.6
	c-4.3,7.3-10.6,13-18.9,15.3c-7.2,2-13.7-0.3-19.1-5.3c-3.1-2.9-6.5-5.7-8.8-9.2c-4.8-7-10.4-6.7-17.7-4.4
	c-7.8,2.5-16.1,3.5-24.3,4.7c-7.6,1-15.4,2.4-23,1.8c-17.9-1.4-35.7-3.2-52.5-10.9c-19-8.7-31.9-22.6-38.3-42.3
	c-2.6-8-4-16.4-5.2-24.8c-1.2-9-2.8-18.3-1.9-27.2c1.8-19.4,4.1-38.9,16.1-55.7c9.7-13.5,22.3-22.5,37.9-27.6c18.5-6,37.6-8.4,57-7
	c19.4,1.4,38.8,4,55.7,14.8c16.7,10.7,28,25.6,31.8,45.4c2.4,12.5,4.3,25,6.4,37.5C647.1,231.8,646.5,231.9,646,232z M567.6,231.2
	c-0.5-4.4,0.2-9.4-1.7-13.1c-4.4-8.2-12.3-13.1-21.5-12.4c-9.3,0.7-18.8,3.7-22.1,14.2c-1.4,4.5-0.8,9.6-1.3,14.4
	c-2,19.9,20,25.6,33.7,20.6C565.7,250.9,568.5,242,567.6,231.2z"/>
</svg>
