<?xml version="1.0" encoding="utf-8"?>
<!-- Generator: Adobe Illustrator 18.1.1, SVG Export Plug-In . SVG Version: 6.00 Build 0)  -->
<svg version="1.1" id="Layer_1" xmlns="http://www.w3.org/2000/svg" xmlns:xlink="http://www.w3.org/1999/xlink" x="0px" y="0px"
	 viewBox="0 0 42.9 37.9" enable-background="new 0 0 42.9 37.9" xml:space="preserve">
<g>
	<path fill="#26222B" d="M1.9,1.5H0.2V0h5.1v1.5H3.6v8.7H1.9V1.5z"/>
	<path fill="#26222B" d="M6.3,10.2V0h1.6v3.3c0.6-0.5,0.9-0.8,1.8-0.8c0.8,0,1.3,0.6,1.3,1.6v6.1H9.4V4.3c0-0.4-0.2-0.6-0.6-0.6
		c-0.3,0-0.6,0.2-1,0.5v6H6.3z"/>
	<path fill="#26222B" d="M17.4,6.7H14v1.1C14,8.7,14.3,9,14.9,9c0.6,0,0.9-0.4,0.9-1.2V7.6h1.6c0,1.6-0.7,2.7-2.5,2.7
		c-1.8,0-2.5-1.2-2.5-2.8V5.3c0-1.7,0.6-2.8,2.5-2.8s2.5,1.2,2.5,2.8V6.7z M15.8,5.4V5c0-0.9-0.3-1.2-0.9-1.2C14.3,3.8,14,4.1,14,5
		v0.4H15.8z"/>
	<path fill="#26222B" d="M3.9,13.8h1.4l1.2,6.5h0l1-6.5h1.6L7.4,24H5.9l-1.3-6.7h0L3.4,24H1.9L0,13.8h1.6l1.1,6.5h0L3.9,13.8z"/>
	<path fill="#26222B" d="M15,20.5h-3.3v1.1c0,0.9,0.3,1.2,0.9,1.2c0.6,0,0.9-0.4,0.9-1.2v-0.2H15c0,1.6-0.7,2.7-2.5,2.7
		c-1.8,0-2.5-1.2-2.5-2.8v-2.2c0-1.7,0.6-2.8,2.5-2.8s2.5,1.2,2.5,2.8V20.5z M13.4,19.2v-0.4c0-0.9-0.3-1.2-0.9-1.2
		c-0.6,0-0.9,0.4-0.9,1.2v0.4H13.4z"/>
	<path fill="#26222B" d="M16.3,18.6c0.1-1.5,1.1-2.4,2.5-2.4c1.5,0,2.3,0.7,2.3,2.1v4.9c0,0.2,0.1,0.6,0.1,0.8h-1.5
		c0-0.2-0.1-0.4-0.1-0.6c-0.6,0.5-1.1,0.7-1.9,0.7c-1.1,0-1.6-0.7-1.6-1.7c0-1.7,1.1-2.6,3.4-3.4v-0.5c0-0.6-0.3-1-0.8-1
		c-0.7,0-0.9,0.4-0.9,1.1H16.3z M19.6,20.1c-1.4,0.8-1.8,1.3-1.8,2c0,0.5,0.3,0.7,0.7,0.7c0.4,0,0.8-0.3,1.1-0.7V20.1z"/>
	<path fill="#26222B" d="M22.1,17.7v-1.3H23v-2h1.6v2h1.1v1.3h-1.1v4.4c0,0.4,0.2,0.6,0.5,0.6h0.5V24c-0.2,0.1-0.4,0.1-0.8,0.1
		c-1.2,0-1.9-0.6-1.9-1.7v-4.7H22.1z"/>
	<path fill="#26222B" d="M26.7,24V13.8h1.6v3.3c0.6-0.5,0.9-0.8,1.8-0.8c0.8,0,1.3,0.6,1.3,1.6V24h-1.6v-5.9c0-0.4-0.2-0.6-0.6-0.6
		s-0.7,0.2-1,0.5v6H26.7z"/>
	<path fill="#26222B" d="M37.8,20.5h-3.3v1.1c0,0.9,0.3,1.2,0.9,1.2c0.6,0,0.9-0.4,0.9-1.2v-0.2h1.6c0,1.6-0.7,2.7-2.5,2.7
		c-1.8,0-2.5-1.2-2.5-2.8v-2.2c0-1.7,0.6-2.8,2.5-2.8c1.8,0,2.5,1.2,2.5,2.8V20.5z M36.2,19.2v-0.4c0-0.9-0.3-1.2-0.9-1.2
		c-0.6,0-0.9,0.4-0.9,1.2v0.4H36.2z"/>
	<path fill="#26222B" d="M39.2,24v-7.6h1.5v0.9h0c0.4-0.6,1-1,1.8-1h0.3v1.7c-0.3-0.1-0.6-0.2-1-0.2c-0.5,0-1.1,0.3-1.1,1V24H39.2z"
		/>
	<path fill="#26222B" d="M4.4,31v-0.8c0-0.9-0.4-1.2-0.8-1.2c-0.7,0-0.9,0.4-0.9,1.1v5.2c0,0.8,0.2,1.1,0.9,1.1c0.6,0,0.8-0.4,0.8-1
		v-1.2h1.8v1.2c0,1.4-0.8,2.6-2.6,2.6c-1.8,0-2.7-1.2-2.7-2.6V30c0-1.4,0.8-2.6,2.7-2.6c1.8,0,2.6,1.3,2.6,2.8V31H4.4z"/>
	<path fill="#26222B" d="M7.8,37.8V27.6h1.6v3.3c0.6-0.5,0.9-0.8,1.8-0.8c0.8,0,1.3,0.6,1.3,1.6v6.1H11v-5.9c0-0.4-0.2-0.6-0.6-0.6
		c-0.3,0-0.6,0.2-1,0.5v6H7.8z"/>
	<path fill="#26222B" d="M13.9,32.4C14,30.8,15,30,16.5,30c1.5,0,2.3,0.7,2.3,2.1v4.9c0,0.2,0.1,0.6,0.1,0.8h-1.5
		c0-0.2-0.1-0.4-0.1-0.6c-0.6,0.5-1.1,0.7-1.9,0.7c-1.1,0-1.6-0.7-1.6-1.7c0-1.7,1.1-2.6,3.4-3.4v-0.5c0-0.6-0.3-1-0.8-1
		c-0.7,0-0.9,0.4-0.9,1.1H13.9z M17.2,33.9c-1.4,0.8-1.8,1.3-1.8,2c0,0.5,0.3,0.7,0.7,0.7c0.4,0,0.8-0.3,1.1-0.7V33.9z"/>
	<path fill="#26222B" d="M20.4,37.8v-7.6h1.5v0.8c0.7-0.6,1-0.9,1.9-0.9c0.8,0,1.3,0.6,1.3,1.6v6.1h-1.6v-5.9c0-0.4-0.2-0.6-0.6-0.6
		c-0.3,0-0.6,0.2-1,0.5v6H20.4z"/>
	<path fill="#26222B" d="M26.6,37.8v-7.6h1.5v0.8c0.7-0.6,1-0.9,1.9-0.9c0.8,0,1.3,0.6,1.3,1.6v6.1h-1.6v-5.9c0-0.4-0.2-0.6-0.6-0.6
		c-0.3,0-0.6,0.2-1,0.5v6H26.6z"/>
	<path fill="#26222B" d="M37.8,34.3h-3.3v1.1c0,0.9,0.3,1.2,0.9,1.2c0.6,0,0.9-0.4,0.9-1.2v-0.2h1.6c0,1.6-0.7,2.7-2.5,2.7
		c-1.8,0-2.5-1.2-2.5-2.8v-2.2c0-1.7,0.6-2.8,2.5-2.8s2.5,1.2,2.5,2.8V34.3z M36.2,32.9v-0.4c0-0.9-0.3-1.2-0.9-1.2
		c-0.6,0-0.9,0.4-0.9,1.2v0.4H36.2z"/>
	<path fill="#26222B" d="M39.2,37.8V27.6h1.6v10.2H39.2z"/>
</g>
</svg>
