<?xml version="1.0" encoding="utf-8"?>
<!-- Generator: Adobe Illustrator 18.1.1, SVG Export Plug-In . SVG Version: 6.00 Build 0)  -->
<svg version="1.1" id="Layer_1" xmlns="http://www.w3.org/2000/svg" xmlns:xlink="http://www.w3.org/1999/xlink" x="0px" y="0px"
	 viewBox="0 0 792 612" enable-background="new 0 0 792 612" xml:space="preserve">
<g>
	<path fill="#5BADC5" d="M597,169c-18.3-13.7-45.7-4.6-59.4,18.3L396,475L249.9,187.3c-9.1-22.8-36.5-32-59.4-18.3
		c-18.3,9.1-27.4,36.5-18.3,54.8l182.7,360.8c9.1,18.3,27.4,27.4,41.1,22.8c18.3,0,36.5-9.1,41.1-22.8l182.7-360.8
		C628.9,205.5,619.8,178.1,597,169z"/>
	<path fill="#5BADC5" d="M501,0H286.4c-22.8,0-45.7,18.3-45.7,41.1s18.3,41.1,45.7,41.1H501c22.8,0,45.7-18.3,45.7-41.1
		C546.7,18.3,528.4,0,501,0z"/>
</g>
</svg>
