<?xml version="1.0" encoding="utf-8"?>
<!-- Generator: Adobe Illustrator 18.1.1, SVG Export Plug-In . SVG Version: 6.00 Build 0)  -->
<svg version="1.1" id="Layer_1" xmlns="http://www.w3.org/2000/svg" xmlns:xlink="http://www.w3.org/1999/xlink" x="0px" y="0px"
	 viewBox="0 0 792 612" enable-background="new 0 0 792 612" xml:space="preserve">
<g id="x2UonN.tif">
	<g>
		<path d="M325.4,475.1c-46.5-1.2-91.4-8.5-133.4-29.3c-31.9-15.8-58.5-37.7-76.4-69c-34.5-60.2-22.8-135.4,28.7-184.2
			c24.9-23.6,54.5-39,87.2-48.1c68.8-19.2,137.4-18.3,205,5.6c34.2,12.1,63.9,31.3,86.6,60.2c25.9,32.9,35.8,70.4,30.6,111.7
			c-5.8,46.7-30.3,81.9-68.3,108.3c-32.9,22.9-70,34.9-109.3,40.2C359.4,472.9,342.3,473.7,325.4,475.1z M275.4,239.2
			c0.4-0.5,0.8-1,1.1-1.5c2.4-0.3,4.8-0.7,7.2-0.8c9.8-0.8,19.7-1.4,29.6-2.3c3.6-0.3,5.4-3.6,5.1-8.8c-0.2-3.8-3.2-2.6-5.1-2.6
			c-41-0.2-82-0.4-122.9-0.5c-8.3,0-8.1,0.1-7.9,8.4c0.1,3.9,1.6,4.9,5.1,5.3c10.3,1.2,20.6,2.6,30.8,4.3c2.4,0.4,5,1.6,6.7,3.3
			c6.5,6.5,13.1,13,18.9,20.2c17.5,21.4,34.8,43.1,51.9,64.9c2.4,3.1,4,7.5,4.3,11.5c0.7,12.6,0.8,25.3,0.8,37.9
			c0,6.3-1.8,8.8-7.9,9.8c-8.6,1.3-17.4,1.7-26.1,2.1c-7.2,0.3-7.2,0.1-8.4,7.2c-1.1,6.5-1.1,6.5,5.5,6.4c30-0.3,59.9-0.7,89.9-0.9
			c10.9-0.1,21.7-0.1,32.6,0.2c3.2,0.1,4.5-1,4.3-4.1c-0.1-1.1,0.1-2.3,0.2-3.4c0.4-6.6,0.3-6.8-6.4-6.9
			c-10.2-0.2-20.4-0.3-30.6-0.2c-3.9,0-6-1.1-6.2-5.4c-0.4-12.6-1-25.2-1.6-37.8c-0.4-8.7,3.3-15.4,9.5-21.4
			c20-19.3,41.7-36.5,64.5-52.3c2.7-1.9,5.9-3.6,9.1-4.4c7.7-2,15.4-4.1,23.3-4.8c9-0.8,11.4-7.6,16-14.3c-5.1-0.2-9.1-0.5-13.1-0.6
			c-22.8-0.3-45.7-0.5-68.5-0.7c-10.5-0.1-21.1,0-31.6-0.1c-3.6,0-4.8,1.2-4,5c2.3,10.5-0.2,8.4,11.1,10.2c1.1,0.2,2.3,0.2,3.4,0.4
			c7.6,1.1,15.2,2.3,24.2,3.7c-15.7,21.2-37.5,33.5-55.5,51C314.7,290.8,295,265,275.4,239.2z"/>
		<path d="M705.9,137.1c-5.2,20.6-10.1,40.2-15,59.8C677.3,251,663.7,305,650.2,359c-1.1,4.6-2.1,9.2-3.6,13.6
			c-0.4,1.1-2.5,2.6-3.6,2.5c-13-1.4-26.1-3.1-39.1-4.5c-3.2-0.4-3.3-2.4-3.3-4.8c-0.1-13.3-0.3-26.6-0.3-39.8
			c-0.1-65.6-0.1-131.2-0.1-196.8c0-1.4,0-2.9,0-5.2C635.5,128.3,670.4,132.7,705.9,137.1z"/>
		<path d="M641.9,467.4c-19.9-2.4-38.3-4.8-56.8-6.9c-2.8-0.3-3.3-1.5-3-4.2c2-15.6,3.9-31.1,5.7-46.7c0.4-3.2,1.4-4.4,4.9-3.9
			c17.6,2.4,35.3,4.5,53,6.5c3.8,0.4,5,1.5,4.4,5.3c-2.1,15.4-3.9,30.8-6,46.2C643.8,465.2,642.4,466.5,641.9,467.4z"/>
		<path d="M692,416c-1.3,1.7-2.6,3.4-4.2,5.6c-1.5-1.9-2.8-3.6-4.8-6.4c-0.5,4.3-0.8,7.5-1.2,10.7c-0.5,0-1-0.1-1.5-0.1
			c0-5.2,0-10.4,0-15.6c0.3-0.3,0.6-0.6,0.9-0.9c2.2,2.4,4.4,4.8,6.9,7.5c1.4-2,2.4-4,3.9-5.5c0.7-0.7,2.3-0.6,3.5-0.8
			c0,5,0,10.1,0,15.1c-0.6,0-1.2,0.1-1.8,0.1c-0.1-1.6-0.3-3.2-0.4-4.8c-0.1-1.5-0.1-3-0.2-4.6C692.6,416.3,692.3,416.2,692,416z"/>
		<path d="M662.9,410.4c4.1,0,8.1,0,12.2,0c-9.7,2.6-1.9,11.3-7.1,15.6c-0.2-2.2-0.3-4.5-0.5-6.7c-0.2-3.5,1.7-8.2-6.2-7.1
			C661.9,411.6,662.4,411,662.9,410.4z"/>
	</g>
</g>
</svg>
