<?xml version="1.0" encoding="utf-8"?>
<!-- Generator: Adobe Illustrator 18.1.1, SVG Export Plug-In . SVG Version: 6.00 Build 0)  -->
<svg version="1.1" id="Layer_1" xmlns="http://www.w3.org/2000/svg" xmlns:xlink="http://www.w3.org/1999/xlink" x="0px" y="0px"
	 viewBox="0 0 42.9 37.9" enable-background="new 0 0 42.9 37.9" xml:space="preserve">
<g>
	<g id="L7x8qV.tif">
		<g>
			<path fill="#26222B" d="M21.6,15.4c0,0.6,0.1,1.2,0,1.7c-0.1,0.4-0.4,1-0.8,1.1c-0.4,0.1-0.9-0.1-1.3-0.3
				c-0.3-0.2-0.5-0.5-0.7-0.8c-2-3.1-3.9-6.2-5.9-9.3c-0.7-1.1-0.5-1.6,0.6-2.2c1.9-0.9,3.8-1.5,5.9-1.6c1-0.1,1.5,0.3,1.6,1.3
				C21.2,8.6,21.4,12,21.6,15.4C21.6,15.4,21.6,15.4,21.6,15.4z"/>
			<path fill="#26222B" d="M21.6,29.4c0,1.1,0,2.1,0,3.2c0,1-0.5,1.5-1.5,1.4c-1.8-0.2-3.4-0.8-4.9-1.8c-0.8-0.5-0.8-1.1-0.2-1.9
				c1.4-1.7,2.8-3.3,4.2-5c0.4-0.5,0.9-0.7,1.5-0.4c0.6,0.2,0.9,0.7,0.9,1.4C21.6,27.2,21.6,28.3,21.6,29.4
				C21.6,29.4,21.6,29.4,21.6,29.4z"/>
			<path fill="#26222B" d="M10,21.7c0.1-0.8,0.2-1.8,0.4-2.8c0.2-1,0.9-1.3,1.9-0.9c1.9,0.8,3.9,1.6,5.8,2.4c0.7,0.3,1,0.7,1,1.4
				c0,0.7-0.5,1.1-1.1,1.3c-2,0.6-3.9,1.2-5.9,1.9c-1.2,0.4-1.7,0-1.9-1.2C10.1,23.2,10,22.5,10,21.7z"/>
			<path fill="#26222B" d="M25.2,23.2c0.6,0.2,1.1,0.4,1.6,0.5c1.7,0.6,3.4,1.1,5.2,1.7c1,0.3,1.3,0.9,0.8,1.9
				c-0.7,1.6-1.8,3-3.2,4.1c-0.7,0.6-1.3,0.5-1.8-0.3c-1.2-1.9-2.4-3.7-3.5-5.6c-0.2-0.4-0.2-1,0-1.4C24.4,23.7,24.9,23.5,25.2,23.2
				z"/>
			<path fill="#26222B" d="M32.7,17.9c0,0.8-0.3,1.2-0.9,1.3c-2.2,0.5-4.3,1.1-6.5,1.6c-0.7,0.2-1.2-0.1-1.5-0.6
				c-0.3-0.5-0.3-1.1,0.1-1.6c1.3-1.7,2.5-3.4,3.7-5.1c0.7-0.9,1.4-1.1,2.2-0.2c1,1.3,1.8,2.7,2.7,4C32.7,17.6,32.7,17.9,32.7,17.9z
				"/>
		</g>
	</g>
</g>
</svg>
