<?xml version="1.0" encoding="utf-8"?>
<!-- Generator: Adobe Illustrator 18.1.1, SVG Export Plug-In . SVG Version: 6.00 Build 0)  -->
<svg version="1.1" id="Layer_1" xmlns="http://www.w3.org/2000/svg" xmlns:xlink="http://www.w3.org/1999/xlink" x="0px" y="0px"
	 viewBox="0 0 792 612" enable-background="new 0 0 792 612" xml:space="preserve">
<path d="M223.7,209.8c0-35.4,0-70.4,0-105.5c114.5,0,228.9,0,343.7,0c0,1.5,0,2.8,0,4.2c0,28.2,0,56.4,0.1,84.7
	c0,2.8-0.8,4.8-2.6,6.8C504.4,266.8,444,333.8,383.6,400.7c-1.9,2.2-3.9,4.3-6.4,7.2c67.2,0,133.5,0,200.1,0c0,35.4,0,70.3,0,105.5
	c-121.2,0-242.3,0-363.9,0c0-1.5,0-2.8,0-4.2c0-30,0-60-0.1-90c0-2.8,0.9-4.8,2.7-6.8c60.4-65.6,120.7-131.2,181-196.8
	c1.5-1.7,3.1-3.3,5.3-5.8C342.2,209.8,283,209.8,223.7,209.8z"/>
</svg>
