{
	"asset": {
		"version": "2.0"
	},
	"scenes": [
		{
			"nodes": [
				0
			]
		}
	],
	"nodes": [
		{
			"name": "book",
			"mesh": 0
		}
	],
	"meshes": [
		{
			"name": "book",
			"primitives": [
				{
					"attributes": {
						"POSITION": 1,
						"NORMAL": 2,
						"TEXCOORD_0": 3
					},
					"indices": 0,
					"material": 0
				}
			]
		}
	],
	"accessors": [
		{
			"bufferView": 0,
			"type": "SCALAR",
			"componentType": 5123,
			"count": 5934,
			"byteOffset": 0,
			"min": [
				0
			],
			"max": [
				1137
			]
		},
		{
			"bufferView": 1,
			"type": "VEC3",
			"componentType": 5126,
			"count": 1138,
			"byteOffset": 0,
			"min": [
				-1.687235951423645,
				-11.838970184326172,
				-7.947264194488525
			],
			"max": [
				1.687235951423645,
				11.838970184326172,
				7.959763050079346
			]
		},
		{
			"bufferView": 1,
			"type": "VEC3",
			"componentType": 5126,
			"count": 1138,
			"byteOffset": 12,
			"min": [
				-1.0,
				-1.0,
				-1.0
			],
			"max": [
				1.0,
				1.0,
				1.0
			]
		},
		{
			"bufferView": 1,
			"type": "VEC2",
			"componentType": 5126,
			"count": 1138,
			"byteOffset": 24,
			"min": [
				0.001953125,
				0.0019530998542904854
			],
			"max": [
				0.998046875,
				0.998046875
			]
		}
	],
	"bufferViews": [
		{
			"buffer": 0,
			"byteOffset": 0,
			"byteLength": 11868,
			"target": 34963
		},
		{
			"buffer": 0,
			"byteOffset": 11868,
			"byteLength": 36416,
			"target": 34962,
			"byteStride": 32
		}
	],
	"buffers": [
		{
			"uri": "data:application/octet-stream;base64,",
			"byteLength": 48284
		}
	],
	"materials": [
		{
			"pbrMetallicRoughness": {
				"baseColorFactor": [
					0.5,
					0.5,
					0.5,
					1.0
				],
				"metallicFactor": 0.5,
				"roughnessFactor": 0.5
			}
		}
	]
}