{"asset":{"version":"2.0","generator":"VECTARY"},"nodes":[{"translation":[-5.6505203237300354e-8,0.0000035787659436579135,1.776790520269245e-18],"scale":[0.001,0.001,0.001],"rotation":[0,-0.7071067811865475,0,0.7071067811865476],"name":"Group","children":[1,2,3,4,5,6,7]},{"translation":[11.821571835327147,0,86.30110574835706],"scale":[1.8542000000000003,1.4999976335173302,1.85416842046188],"rotation":[0,0,0,1],"name":"dent_front","mesh":0},{"translation":[-11.821362291431429,0,86.30110574835706],"scale":[1.8542000000000003,1.4999976335173302,1.85416842046188],"rotation":[-1.2274173396278401e-48,-9.869188120389905e-65,1,6.123233998860309e-17],"name":"dent_back","mesh":1},{"translation":[12.979295228052134,0,-6.407315274736966],"scale":[0.018542,2.9999952670346604,1.85416842046188],"rotation":[0,0,0,1],"name":"front","mesh":2},{"translation":[-12.97929522805214,0,-99.11573629783095],"scale":[0.018542,2.9999952670346604,1.85416842046188],"rotation":[0,0,0,1],"name":"back","mesh":3},{"translation":[0.00010477194785805325,0,-95.30739945690716],"scale":[0.23641050000000008,2.9666174053328747,1.9097934730757364],"rotation":[0,0,0,1],"name":"pages","mesh":4},{"translation":[0.00010477194785796229,0,95.57194785066645],"scale":[1,1.0033603279680097,1],"rotation":[0,0,0,1],"name":"Box 5","mesh":5},{"translation":[0.00010477194785805325,0,97.24069942908216],"scale":[0.1972868800000001,2.999999999999999,0.01870855936246037],"rotation":[0,0,0,1],"name":"Box 2","mesh":6},{"translation":[0.2557920003602964,0.1779636956034973,-0.21199046647314],"scale":[1,1,1],"rotation":[-0.096290542751503,0.8697580500403757,0.1877377570149889,0.44609819586898714],"name":"Camera","camera":0}],"materials":[{"pbrMetallicRoughness":{"baseColorFactor":[1,1,1,1],"baseColorTexture":{"index":0,"extensions":{"KHR_texture_transform":{"offset":[0,0],"scale":[0.075,0.15],"rotation":0}},"texCoord":0},"metallicFactor":0.02,"roughnessFactor":0.9},"name":"Fabric Editable 1","normalTexture":{"index":1,"scale":1,"extensions":{"KHR_texture_transform":{"offset":[0,0],"scale":[1,1],"rotation":0}},"texCoord":0},"emissiveFactor":[0,0,0],"alphaMode":"OPAQUE","doubleSided":false},{"pbrMetallicRoughness":{"baseColorFactor":[1,1,1,1],"baseColorTexture":{"index":2,"extensions":{"KHR_texture_transform":{"offset":[0,0],"scale":[0.995,0.995],"rotation":0}},"texCoord":0},"metallicFactor":0.02,"roughnessFactor":0.9},"name":"Fabric Editable","normalTexture":{"index":3,"scale":1,"extensions":{"KHR_texture_transform":{"offset":[0,0],"scale":[0.995,0.995],"rotation":0}},"texCoord":0},"emissiveFactor":[0,0,0],"alphaMode":"OPAQUE","doubleSided":true},{"pbrMetallicRoughness":{"baseColorFactor":[1,1,1,1],"baseColorTexture":{"index":4,"extensions":{"KHR_texture_transform":{"offset":[0,0],"scale":[1,1],"rotation":0}},"texCoord":0},"metallicRoughnessTexture":{"index":6,"extensions":{"KHR_texture_transform":{"offset":[0,0],"scale":[1,1],"rotation":0}},"texCoord":0},"metallicFactor":0.02,"roughnessFactor":0.2},"name":"Fabric Editable 4","normalTexture":{"index":5,"scale":1,"extensions":{"KHR_texture_transform":{"offset":[0,0],"scale":[1,1],"rotation":0}},"texCoord":0},"emissiveFactor":[0,0,0],"alphaMode":"OPAQUE","doubleSided":true},{"pbrMetallicRoughness":{"baseColorFactor":[0.9157501292792527,0.9239933352518732,1,1],"metallicRoughnessTexture":{"index":8,"extensions":{"KHR_texture_transform":{"offset":[0,0],"scale":[1,1],"rotation":0}},"texCoord":0},"metallicFactor":0.3,"roughnessFactor":1},"name":"Material 1","normalTexture":{"index":7,"scale":1,"extensions":{"KHR_texture_transform":{"offset":[0,0],"scale":[1,1],"rotation":0}},"texCoord":0},"emissiveFactor":[0,0,0],"alphaMode":"OPAQUE","doubleSided":false},{"pbrMetallicRoughness":{"baseColorFactor":[1,1,1,1],"baseColorTexture":{"index":9,"extensions":{"KHR_texture_transform":{"offset":[0,0],"scale":[1,1],"rotation":0}},"texCoord":0},"metallicFactor":0.1,"roughnessFactor":0.4},"name":"Material","normalTexture":{"index":10,"scale":0.05,"extensions":{"KHR_texture_transform":{"offset":[0,0],"scale":[1,1],"rotation":0}},"texCoord":0},"emissiveFactor":[0,0,0],"alphaMode":"OPAQUE","doubleSided":false},{"pbrMetallicRoughness":{"baseColorFactor":[1,1,1,1],"baseColorTexture":{"index":11,"extensions":{"KHR_texture_transform":{"offset":[0,0],"scale":[1,1],"rotation":0}},"texCoord":0},"metallicFactor":0.02,"roughnessFactor":0.9},"name":"Fabric Editable 3","normalTexture":{"index":12,"scale":1,"extensions":{"KHR_texture_transform":{"offset":[0,0],"scale":[1,1],"rotation":0}},"texCoord":0},"emissiveFactor":[0,0,0],"alphaMode":"OPAQUE","doubleSided":false}],"textures":[{"sampler":0,"source":0},{"sampler":0,"source":1},{"sampler":0,"source":2},{"sampler":0,"source":3},{"sampler":0,"source":4},{"sampler":0,"source":5},{"sampler":0,"source":6},{"sampler":0,"source":7},{"sampler":0,"source":8},{"sampler":0,"source":9},{"sampler":0,"source":10},{"sampler":0,"source":11},{"sampler":0,"source":12}],"images":[{"uri":"dent_1.jpg","mimeType":"image/jpeg"},{"uri":"dent.jpg","mimeType":"image/jpeg"},{"uri":"tadse_2.jpg","mimeType":"image/jpeg"},{"uri":"tadse_1.jpg","mimeType":"image/jpeg"},{"uri":"back_2.jpg","mimeType":"image/jpeg"},{"uri":"back_1.jpg","mimeType":"image/jpeg"},{"uri":"metallicTexture&back_1.jpg","mimeType":"image/jpeg"},{"uri":"pages.jpg","mimeType":"image/jpeg"},{"uri":"metallicTexture&pages.jpg","mimeType":"image/jpeg"},{"uri":"highlight_1.jpg","mimeType":"image/jpeg"},{"uri":"highlight.jpg","mimeType":"image/jpeg"},{"uri":"spine_1.jpg","mimeType":"image/jpeg"},{"uri":"spine.jpg","mimeType":"image/jpeg"}],"samplers":[{"wrapS":10497,"wrapT":10497}],"meshes":[{"primitives":[{"mode":4,"attributes":{"POSITION":1,"NORMAL":2,"TEXCOORD_0":3},"material":0,"indices":0}]},{"primitives":[{"mode":4,"attributes":{"POSITION":1,"NORMAL":2,"TEXCOORD_0":3},"material":0,"indices":0}]},{"primitives":[{"mode":4,"attributes":{"POSITION":5,"NORMAL":6,"TEXCOORD_0":7},"material":1,"indices":4}]},{"primitives":[{"mode":4,"attributes":{"POSITION":9,"NORMAL":10,"TEXCOORD_0":11},"material":2,"indices":8}]},{"primitives":[{"mode":4,"attributes":{"POSITION":13,"NORMAL":14,"TEXCOORD_0":15},"material":3,"indices":12}]},{"primitives":[{"mode":4,"attributes":{"POSITION":17,"NORMAL":18,"TEXCOORD_0":19},"material":4,"indices":16}]},{"primitives":[{"mode":4,"attributes":{"POSITION":21,"NORMAL":22,"TEXCOORD_0":23},"material":5,"indices":20}]}],"accessors":[{"bufferView":0,"byteOffset":0,"componentType":5125,"count":3600,"type":"SCALAR"},{"bufferView":1,"byteOffset":0,"componentType":5126,"count":2400,"max":[1.1243789196014404,100,6.9112548828125],"min":[-1.1243789196014404,-100,0],"type":"VEC3"},{"bufferView":2,"byteOffset":0,"componentType":5126,"count":2400,"type":"VEC3"},{"bufferView":3,"byteOffset":0,"componentType":5126,"count":2400,"type":"VEC2"},{"bufferView":4,"byteOffset":0,"componentType":5125,"count":900,"type":"SCALAR"},{"bufferView":5,"byteOffset":0,"componentType":5126,"count":216,"max":[50,50,50],"min":[-50,-50,-50],"type":"VEC3"},{"bufferView":6,"byteOffset":0,"componentType":5126,"count":216,"type":"VEC3"},{"bufferView":7,"byteOffset":0,"componentType":5126,"count":216,"type":"VEC2"},{"bufferView":8,"byteOffset":0,"componentType":5125,"count":900,"type":"SCALAR"},{"bufferView":9,"byteOffset":0,"componentType":5126,"count":216,"max":[50,50,100],"min":[-50,-50,0],"type":"VEC3"},{"bufferView":10,"byteOffset":0,"componentType":5126,"count":216,"type":"VEC3"},{"bufferView":11,"byteOffset":0,"componentType":5126,"count":216,"type":"VEC2"},{"bufferView":12,"byteOffset":0,"componentType":5125,"count":144,"type":"SCALAR"},{"bufferView":13,"byteOffset":0,"componentType":5126,"count":54,"max":[50,50,100],"min":[-50,-50,0],"type":"VEC3"},{"bufferView":14,"byteOffset":0,"componentType":5126,"count":54,"type":"VEC3"},{"bufferView":15,"byteOffset":0,"componentType":5126,"count":54,"type":"VEC2"},{"bufferView":16,"byteOffset":0,"componentType":5125,"count":384,"type":"SCALAR"},{"bufferView":17,"byteOffset":0,"componentType":5126,"count":227,"max":[11.588749885559082,148.79481506347656,1.8708559274673462],"min":[-11.588749885559082,-148.79481506347656,0],"type":"VEC3"},{"bufferView":18,"byteOffset":0,"componentType":5126,"count":227,"type":"VEC3"},{"bufferView":19,"byteOffset":0,"componentType":5126,"count":227,"type":"VEC2"},{"bufferView":20,"byteOffset":0,"componentType":5125,"count":144,"type":"SCALAR"},{"bufferView":21,"byteOffset":0,"componentType":5126,"count":54,"max":[50,50,100],"min":[-50,-50,0],"type":"VEC3"},{"bufferView":22,"byteOffset":0,"componentType":5126,"count":54,"type":"VEC3"},{"bufferView":23,"byteOffset":0,"componentType":5126,"count":54,"type":"VEC2"}],"bufferViews":[{"buffer":0,"byteOffset":0,"byteLength":14400,"target":34963},{"buffer":0,"byteOffset":14400,"byteLength":28800,"target":34962},{"buffer":0,"byteOffset":43200,"byteLength":28800,"target":34962},{"buffer":0,"byteOffset":72000,"byteLength":19200,"target":34962},{"buffer":0,"byteOffset":91200,"byteLength":3600,"target":34963},{"buffer":0,"byteOffset":94800,"byteLength":2592,"target":34962},{"buffer":0,"byteOffset":97392,"byteLength":2592,"target":34962},{"buffer":0,"byteOffset":99984,"byteLength":1728,"target":34962},{"buffer":0,"byteOffset":101712,"byteLength":3600,"target":34963},{"buffer":0,"byteOffset":105312,"byteLength":2592,"target":34962},{"buffer":0,"byteOffset":107904,"byteLength":2592,"target":34962},{"buffer":0,"byteOffset":110496,"byteLength":1728,"target":34962},{"buffer":0,"byteOffset":112224,"byteLength":576,"target":34963},{"buffer":0,"byteOffset":112800,"byteLength":648,"target":34962},{"buffer":0,"byteOffset":113448,"byteLength":648,"target":34962},{"buffer":0,"byteOffset":114096,"byteLength":432,"target":34962},{"buffer":0,"byteOffset":114528,"byteLength":1536,"target":34963},{"buffer":0,"byteOffset":116064,"byteLength":2724,"target":34962},{"buffer":0,"byteOffset":118788,"byteLength":2724,"target":34962},{"buffer":0,"byteOffset":121512,"byteLength":1816,"target":34962},{"buffer":0,"byteOffset":123328,"byteLength":576,"target":34963},{"buffer":0,"byteOffset":123904,"byteLength":648,"target":34962},{"buffer":0,"byteOffset":124552,"byteLength":648,"target":34962},{"buffer":0,"byteOffset":125200,"byteLength":432,"target":34962}],"cameras":[{"name":"Camera","type":"perspective","extras":{"targetDistance":0.4318081772731806},"perspective":{"aspectRatio":1.3877551020408163,"yfov":0.6108652381980153,"zfar":36.37234797117798,"znear":0.00268031992335774}}],"scene":0,"scenes":[{"nodes":[0,8],"name":"Book"}],"extensionsUsed":["KHR_texture_transform"],"buffers":[{"byteLength":125632,"uri":"Book.bin"}]}