<?xml version="1.0" encoding="utf-8"?>
<!-- Generator: Adobe Illustrator 18.1.1, SVG Export Plug-In . SVG Version: 6.00 Build 0)  -->
<svg version="1.1" id="Layer_1" xmlns="http://www.w3.org/2000/svg" xmlns:xlink="http://www.w3.org/1999/xlink" x="0px" y="0px"
	 viewBox="0 0 792 612" enable-background="new 0 0 792 612" xml:space="preserve">
<path stroke="#FFFFFF" stroke-miterlimit="10" d="M318.3,401.2c-1.7,2.9-3.1,5.1-4.5,7.3c-19.9,34.5-57.2,40.6-84.4,11.4
	c-11.7-12.5-21.3-29.2-25.8-45.7c-11.7-43.5-14.8-88.4-8-133.2c2-13.2,7.3-26.5,13.8-38.3c16.5-29.9,47-35.1,74.1-13.8
	c3.9,3.1,7.5,6.6,11.1,9.8c1-0.6,2.3-1,2.3-1.5c2.3-21.1,2.3-21.2,23.7-24.2c10.4-1.5,20.9-2.3,31.3-3.7c9-1.2,13.4,1.7,14.3,11.4
	c4.2,46.4,9,92.7,13.5,139.1c2.5,25.9,5.4,51.8,7.2,77.8c1.1,16.4,1.5,32.9,0.6,49.3c-1.5,27.1-16.6,45.1-40.4,57.5
	c-35.7,18.6-73.5,20.2-112.2,15.4c-4.5-0.6-8.9-5.3-12.3-9.1c-2.3-2.5-2.9-6.6-3.9-10.1c-9.1-34.7,0.8-45.6,35.7-39.1
	c3.6,0.7,7.3,1,10.8,2c17.5,4.9,33.4,4.1,46.1-11C323,439.1,325.5,422.7,318.3,401.2z M322.5,320c-4.5-20-7.7-39.8-13.5-58.9
	c-5.8-19.2-19.7-29.6-32.8-28c-12.8,1.6-24.9,17.3-27.4,35.6c-0.2,1.4-0.5,2.7-0.4,4.1c1.8,22.3,2.2,44.8,6.1,66.6
	c1.9,10.5,8.8,21.3,16.4,29.2c14.3,14.9,33,11.5,41.1-7.4C317.4,348.5,319,334.2,322.5,320z"/>
<path stroke="#FFFFFF" stroke-miterlimit="10" d="M534,98.4c16.4,0,34.4,0,53.9,0c0.9,14.3,2.2,29.2,2.7,44.1
	c2.9,90.9,5.4,181.9,8.6,272.8c0.5,13.3-5.1,18.7-17.1,18.6c-11.4,0-23-0.2-34-2.4c-3.4-0.7-7.7-8-7.9-12.5
	c-1.6-37.5-2.7-74.9-3.1-112.4c-0.1-11.9-3.6-15.7-15.8-15.1c-32.9,1.7-32.8,1.1-31.4,34.3c1.3,31.5,2.2,63,3.6,94.5
	c0.6,13.1-5.8,18.6-18.1,18.1c-13.1-0.6-26.2-1.8-41.3-2.8c-3.5-111.5-6.9-221.4-10.4-333.5c19.9,0,38.3,0,58.9,0
	c0,10.9-0.2,22.7,0,34.4c0.6,29.3,1.6,58.5,2,87.8c0.1,10.4,4.3,14.1,14.7,14.5c35.8,1.3,35.4,1.7,34.9-33.7
	C533.6,170.4,534,135.8,534,98.4z"/>
</svg>
