<?xml version="1.0" encoding="utf-8"?>
<!-- Generator: Adobe Illustrator 18.1.1, SVG Export Plug-In . SVG Version: 6.00 Build 0)  -->
<svg version="1.1" id="Layer_1" xmlns="http://www.w3.org/2000/svg" xmlns:xlink="http://www.w3.org/1999/xlink" x="0px" y="0px"
	 viewBox="0 0 42.9 37.9" enable-background="new 0 0 42.9 37.9" xml:space="preserve">
<g id="V9l4xK.tif">
	<g>
		<path fill="#26222B" d="M13.1,18.9c0-7.4,5.9-13.3,13.3-13.4c7.5,0,13.5,6,13.5,13.4c0,7.5-6,13.4-13.4,13.4
			C18.9,32.3,13.1,26.4,13.1,18.9z M29.5,18.9c0-1.7-1.4-3.1-3.1-3.2c-1.6,0-3.1,1.4-3.2,3.1c0,1.8,1.4,3.2,3.1,3.2
			C28.1,22.1,29.5,20.6,29.5,18.9z"/>
		<path fill="#26222B" d="M6.5,15.5c2,0,3.5,1.5,3.4,3.5c0,2-1.5,3.4-3.5,3.4c-2,0-3.4-1.5-3.4-3.5C3,17,4.5,15.5,6.5,15.5z"/>
	</g>
</g>
</svg>
