<?xml version="1.0" encoding="utf-8"?>
<!-- Generator: Adobe Illustrator 18.1.1, SVG Export Plug-In . SVG Version: 6.00 Build 0)  -->
<svg version="1.1" id="Layer_1" xmlns="http://www.w3.org/2000/svg" xmlns:xlink="http://www.w3.org/1999/xlink" x="0px" y="0px"
	 viewBox="0 0 792 612" enable-background="new 0 0 792 612" xml:space="preserve">
<path d="M538.6,549c-24-13.3-48.6-25-65-48c-4.8-6.7-11-7.8-18.4-7.7c-78.4,0.1-156.8,0.1-235.2,0.1c-19.7,0-26-6.3-26-25.9
	c-0.1-119.7-0.1-239.4-0.2-359.1c0-19.5,6.4-25.8,26.2-25.8c118.3,0,236.6,0,354.9,0c19.8,0,26.4,6.7,26.4,26.9
	c0,119-0.1,238-0.1,357c0,20.7-6.4,26.9-27.4,27c-8.1,0-16.2-0.1-24.4,0c-13.7,0.2-18.9,5-17.6,18.8
	C533.1,524.2,536.2,536.1,538.6,549z M219.4,192.3c0.1,48,38.6,86.5,86.1,86.2c47.5-0.3,85.9-39.2,85.8-86.8
	c-0.2-47.8-38.8-86.3-86.3-86.2C257.4,105.7,219.3,144.3,219.4,192.3z M219.4,381.7c0.2,47.8,39,86.6,86.1,86.3
	c47.1-0.3,85.8-39.5,85.8-86.9c0-48-39.1-87-86.9-86.6C257.1,294.8,219.1,333.8,219.4,381.7z M578.6,381.3c0.1-48-38-86.7-85.4-86.8
	c-47.8-0.1-86.8,39-86.6,87c0.2,47.4,39.2,86.6,86.2,86.5C540.1,467.9,578.6,429.1,578.6,381.3z M578.6,192.6
	c0.2-48.1-37.8-86.7-85.4-86.8c-47.5-0.1-86.1,38.4-86.4,86.1c-0.3,47.4,38.5,86.8,85.7,87.1C539.7,279.2,578.4,240.4,578.6,192.6z"
	/>
<path d="M305.1,449.5c-37.8-0.1-68.3-31.1-68-69.2c0.3-37.4,31.2-68.2,68.2-68c37.7,0.1,68.1,31.3,67.8,69.4
	C372.8,419.6,342.6,449.6,305.1,449.5z"/>
<path d="M492.4,449.5c-37.5-0.2-67.4-30.5-67.4-68.4c0-38.2,30.7-69.2,68.2-68.8c37.6,0.4,68.2,31.8,67.7,69.6
	C560.5,419.5,529.9,449.7,492.4,449.5z"/>
<path d="M424.9,191.8c0.1-37.7,30.4-68.3,67.7-68.5c37.4-0.1,68.5,31.3,68.4,69.1c-0.1,37.9-31.2,68.6-69,68.3
	C454.6,260.4,424.8,229.8,424.9,191.8z"/>
</svg>
