<?xml version="1.0" encoding="utf-8"?>
<!-- Generator: Adobe Illustrator 18.1.1, SVG Export Plug-In . SVG Version: 6.00 Build 0)  -->
<svg version="1.1" id="Layer_1" xmlns="http://www.w3.org/2000/svg" xmlns:xlink="http://www.w3.org/1999/xlink" x="0px" y="0px"
	 viewBox="0 0 792 612" enable-background="new 0 0 792 612" xml:space="preserve">
<path d="M304.3,365.6c76.8,9.6,150.3,21.2,224.3,26.9c28.2,2.2,57.7-8.4,86.2-14.9c11.4-2.6,21.1-10,28.8,5.3
	c7.6,15,5.9,27.1-8.9,35.7c-37.2,21.6-77.9,25-119.1,18.2c-62.2-10.2-124-22.6-186.1-33.9c-9.5-1.7-19.3-2.1-29.5-3.2
	c-6.1,15.6-10.7,30.4-17.4,44.1c-11.9,24.1-30.5,40.5-58.6,43c-38.1,3.4-62.8-27.4-50.5-63.5c10.8-31.9,36.4-46.7,67.2-55.3
	c8.1-2.3,15.2-8.2,22.8-12.4c-1.2-2.3-2.4-4.6-3.6-6.9c-12.4,3-24.6,6.5-37.1,8.9c-41.4,7.8-63.8-15-54.4-56
	c6.2-27.1,14.3-53.8,21.4-80.7c1.4-5.4,1.7-11,3.3-21.5c-13.1,5.1-22.9,8.9-33.3,12.9c-24.8-19.9-23.9-33.2,4.9-47.1
	c19.9-9.6,41.3-15.5,60.3-0.1c17.8,14.5,15,34.4,9,54.4c-6.6,21.9-12.1,44.2-17.5,66.5c-5.1,21.5,0.1,26.7,22.4,23.2
	c21.4-3.3,35.4-12.3,37.6-37.3c2.8-31.7,11-62.9,14-94.6c1.9-19.3,13.1-21,26.9-19.7c17,1.6,21.1,13.4,18.4,28.4
	c-7,38.7-14.4,77.2-21.3,115.9C311.1,321.1,308.3,340.5,304.3,365.6z M252.4,409.5c-1.9-2.2-3.8-4.4-5.7-6.6
	c-8.6,6.1-18.5,11-25.1,18.7c-3,3.5,0.4,12.6,0.9,19.2c5.6-2,13.2-2.4,16.4-6.3C244.8,427.3,248.1,417.9,252.4,409.5z"/>
<path d="M524.5,255.3c-5.2,6.3-13.3,11.9-14.9,19c-5,22.3-9.6,45-10.4,67.7c-0.7,18.3-10.5,19.8-23.8,19.6
	c-16-0.2-22.3-9.6-20.1-24.2c4.4-29.2,9.7-58.2,14.7-87.2c5.9-34.4,6-34.2,40.4-28.1c4.5,0.8,9.4-0.5,14-1.5
	c5.6-1.2,11.7-5.5,16.4-4.2c26.1,7.6,51.6,2.4,77.7,0.4c21-1.7,26.9,16.5,25,34.5c-3.4,32.5-7.3,65.1-13.8,97.1
	c-1.2,5.8-17.1,14-23.7,12.1c-8.1-2.3-19.1-14.1-19-21.6c0.3-20.2,6.5-40.3,8.9-60.5c0.8-6.4-3-13.4-4.7-20.1
	c-5.8,5.7-15.3,10.6-16.8,17.3c-5.1,22.2-9.3,45-10.2,67.7c-0.7,17.2-10,18.4-22.2,18.5c-13.8,0.1-22.5-6.5-20.8-21
	c2.6-21.9,6.8-43.7,10-65.5c0.8-5.2,0.1-10.7,0.1-16C529.2,257.9,526.9,256.6,524.5,255.3z"/>
<path d="M329,322.5c4.3-31.6,6.7-61,13.2-89.6c1.5-6.7,17.7-15.6,24.9-14c7.5,1.7,17.2,15.2,17.1,23.5c-0.1,19.3-6.2,38.6-8.2,58
	c-0.6,5.6,4.7,11.8,7.4,17.7c5.6-4.8,14.6-8.8,16.1-14.7c5.5-22.1,10.5-44.8,11.9-67.4c1-17,11.8-20.9,22.2-18
	c8.5,2.4,20.9,14.4,20.4,21.2c-3.1,37.3-8.3,74.6-16.3,111.1c-1.2,5.3-21.1,7.7-32.7,9.3c-9.6,1.3-20.1-2.8-29.4-0.9
	C345,365.2,328.2,351.8,329,322.5z"/>
</svg>
