<?xml version="1.0" encoding="utf-8"?>
<!-- Generator: Adobe Illustrator 18.1.1, SVG Export Plug-In . SVG Version: 6.00 Build 0)  -->
<svg version="1.1" id="Layer_1" xmlns="http://www.w3.org/2000/svg" xmlns:xlink="http://www.w3.org/1999/xlink" x="0px" y="0px"
	 viewBox="0 0 792 612" enable-background="new 0 0 792 612" xml:space="preserve">
<path d="M168.2,420.2c1.9-8.7,2.5-14.2,4.4-19.1c7.9-19.9,8.1-40.2,5.2-61.1c-3.4-24.2-5.5-48.6-8-72.9c-2.8-27.4,10.1-43.2,37.8-45
	c85.7-5.6,171.5-10.8,257.2-16.3c40.7-2.6,81.3-5.2,121.9-8.1c28.9-2.1,42.7,10.7,40.5,39.7c-3.6,47.3-7.6,94.5-12.1,141.7
	c-2.8,29.3-18.7,41.3-47.9,39.3c-83.5-5.9-167-11.2-250.5-16.8c-25.9-1.7-51.7-3.7-77.6-4.7c-7.8-0.3-16.1,1.3-23.5,3.9
	C200.6,406.2,185.9,412.9,168.2,420.2z M433.9,299.9c-9.4,3.3-13.4,1-13-7.9c0.3-6.6-0.2-13.3,0.1-20c0.3-6.7-1.6-10.3-9.3-10.1
	c-7,0.2-8.8,3.3-8.7,9.6c0.2,24,0.2,48,0,72.1c0,6.2,1.5,9.4,8.6,9.5c7.5,0.1,9.8-3.1,9.4-9.9c-0.3-5.5,0.2-11.1-0.1-16.6
	c-0.5-9.1,3.7-11,13.2-7.7c0,10.7,0,22,0,33.9c7.9-1.3,17.6,5.4,17.7-8.2c0.1-24.8-0.1-49.5,0.1-74.3c0-6.3-2.7-8.3-8.7-8.3
	c-6.3,0-9.7,1.6-9.4,8.7C434.2,280.5,433.9,290.4,433.9,299.9z M512,352.7c8-0.4,14.9-2.4,20.7-0.6c14.7,4.5,23-0.4,23.5-16.1
	c0.4-11.5,0.2-22.9,0.1-34.4c-0.1-21.3-5.2-25.3-26.3-20.7c-0.2-2.6-0.5-5.2-0.4-7.7c0.3-6.5-0.1-11.5-9.1-11.3
	c-9.3,0.2-8.5,6.1-8.5,12.1c0,7,0,14.1,0,21.1C512,313.8,512,332.6,512,352.7z M351.4,352.8c8-0.4,14.7-2.3,20.3-0.6
	c14.3,4.1,22.6-0.2,23.6-15.1c0.8-11,1-22.2,0.1-33.3c-0.6-7.4-1.5-16.4-6-21.3c-3.6-3.9-12.8-2.7-20.7-4c0-2.1,1.1-6.3-0.3-9.2
	c-1.5-3.1-5.5-6.7-8.5-6.7c-2.8,0-8.1,4.2-8.2,6.6C351.2,296.5,351.4,323.8,351.4,352.8z M257,292c2.5-14.8-0.9-23.5-10.4-28.4
	c-9.5-4.9-23-2.6-29.7,5.1c-7,8-7.8,21.2-1.1,31c3.5,5.1,8.3,9.4,12.5,14c3.2,3.5,7.5,6.6,9.5,10.7c1.7,3.5,1.2,8.2,0.8,12.3
	c-0.1,0.9-4.9,2.7-5.5,2.1c-2.5-2.6-5.7-5.8-6.1-9.1c-0.8-7.5-6.1-7.5-10.3-6.1c-2.9,1-6.5,5.5-6.6,8.5c-0.3,9.6,4,17.1,13.6,20.7
	c10.7,4.1,23.2,1.8,29.6-6.1c7-8.5,8.6-18.6,3-27.9c-4.3-7.1-11-12.8-16.5-19.2c-3.4-3.9-7.6-7.4-9.5-11.9c-1.1-2.6,1.9-6.8,3-10.2
	c2.7,2.2,5.9,4,7.9,6.6c1.4,1.8,1.1,4.9,1.6,7.9C247.7,292,252,292,257,292z M477.3,278.8c-8.1,2-17-4-17.2,7.8
	c-0.3,18.1-0.5,36.3,0.3,54.4c0.5,11.4,9.1,15.6,19.7,11.5c3-1.1,7-1.1,10.1-0.1c9.7,3.1,14.3-0.1,14.3-10.7
	c0.1-16.3,0.1-32.6,0-48.8c0-14.7-0.8-15.3-17.7-11.8c0,5.1,0,10.5,0,16c0,11.8,0.2,23.7-0.3,35.5c-0.1,2.2-2.9,4.3-4.5,6.5
	c-1.5-2.1-3.8-4-4.4-6.4c-0.8-3.1-0.4-6.6-0.4-9.9C477.3,308.7,477.3,294.7,477.3,278.8z M343,354.6c0-23.7-0.1-44,0.1-64.3
	c0-6.5-0.1-11.3-9.1-11.3c-9.5,0.1-8.6,5.9-8.6,11.8c0,13.7,0.1,27.4-0.3,41.1c-0.1,2.4-2.4,4.7-3.7,7c-1.8-2.3-4.2-4.4-5.1-7
	c-0.9-2.7-0.3-5.9-0.3-8.8c0-14.3,0-28.6,0-42.9c-6.7,0-11.6,0-17.5,0c0,20.5-0.6,40.1,0.2,59.6c0.5,13,10.2,17.4,22,11.4
	c1.8-0.9,4.3-1.7,6.2-1.3C331.5,350.8,336,352.5,343,354.6z M293,351.4c-1.9-4.6-3.4-8.2-4.9-11.9c-1.2-2.9-3.1-5.7-3.2-8.7
	c-0.4-10-0.3-20,0-30c0.1-2.6,1.6-5.3,2.5-7.9c1.3-3.7,4.8-8.6,3.5-10.8c-3-5.3-7.8-9.9-12.8-13.4c-1.9-1.3-8.7,0.6-9.4,2.4
	c-2.4,6.4-3.7,13.5-4.2,20.3c-0.3,4,2.7,8.1,2.9,12.2c0.5,10,0,20,0.2,30C267.8,350.1,273.2,354.3,293,351.4z M585.9,282.1
	c-0.3,0-0.6-0.1-0.9-0.1c0-4.1-0.3-8.2,0.1-12.2c0.7-8.2-4.2-9-10.5-8.7c-5.8,0.3-12.6-1.2-11.8,8.4c1.3,16.2,2,32.5,3.9,48.6
	c0.3,2.9,5,5.3,7.6,7.9c2.6-2.9,6.8-5.4,7.4-8.7C583.8,305.7,584.6,293.8,585.9,282.1z M571.6,356.2c1.7,0,3.3,0,5,0
	c2.8-4.4,7.8-8.9,7.7-13.1c-0.1-3.7-6.8-10.3-9.6-9.8c-4.3,0.7-10.4,6-11,10C563.1,347.2,568.7,351.9,571.6,356.2z"/>
<path d="M538.6,316.7c0,5.5,0.3,11.1-0.2,16.6c-0.2,2-2.5,3.7-3.9,5.6c-1.6-1.7-4.4-3.4-4.5-5.2c-0.4-11.8-0.4-23.6,0-35.4
	c0.1-1.8,3-3.4,4.6-5.1c1.3,1.9,3.6,3.8,3.8,5.8C538.9,304.9,538.6,310.8,538.6,316.7z"/>
<path d="M377.9,316.8c0,5.5,0.4,11.1-0.2,16.6c-0.2,2-2.7,3.7-4.1,5.5c-1.5-1.7-4.2-3.4-4.2-5.2c-0.4-11.8-0.4-23.6,0-35.4
	c0.1-1.7,2.9-3.4,4.4-5c1.4,1.9,3.8,3.8,3.9,5.8C378.2,304.9,377.9,310.9,377.9,316.8z"/>
</svg>
