<?xml version="1.0" encoding="utf-8"?>
<!-- Generator: Adobe Illustrator 18.1.1, SVG Export Plug-In . SVG Version: 6.00 Build 0)  -->
<svg version="1.1" id="Layer_1" xmlns="http://www.w3.org/2000/svg" xmlns:xlink="http://www.w3.org/1999/xlink" x="0px" y="0px"
	 viewBox="0 0 792 612" enable-background="new 0 0 792 612" xml:space="preserve">
<g>
	<path fill="#231F20" d="M555.9,196.6c-14.5-10.9-36.3-3.6-47.2,14.5L396,440.1L279.7,211.2c-7.3-18.2-29.1-25.4-47.2-14.5
		c-14.5,7.3-21.8,29.1-14.5,43.6l145.4,287.1c7.3,14.5,21.8,21.8,32.7,18.2c14.5,0,29.1-7.3,32.7-18.2l145.4-287.1
		C581.3,225.7,574.1,203.9,555.9,196.6z"/>
	<path fill="#231F20" d="M479.6,62.2H308.8c-18.2,0-36.3,14.5-36.3,32.7s14.5,32.7,36.3,32.7h170.8c18.2,0,36.3-14.5,36.3-32.7
		S501.4,62.2,479.6,62.2z"/>
</g>
</svg>
